/* XPM */
static char *_7a0ed208f964836ef0eb98525244b9deu5U9swRAlCy9fna[] = {
/* columns rows colors chars-per-pixel */
"64 32 67 1 ",
"  c #BFA7FD",
". c #BFA5FE",
"X c #BEA5FF",
"o c #BEA6FE",
"O c #BFA6FF",
"+ c #BEA7FF",
"@ c #BFA7FF",
"# c #BFA8F8",
"$ c #BFAAF9",
"% c #BFA8FA",
"& c #BEA8FB",
"* c #BDAAFB",
"= c #BFA9FC",
"- c #BEABFC",
"; c #BEABFD",
": c #BDA9FE",
"> c #BFA8FF",
", c #BEA9FF",
"< c #BEAAFF",
"1 c #BFABFF",
"2 c #C0A7FB",
"3 c #C0A5FF",
"4 c #C2A5FF",
"5 c #C0A6FF",
"6 c #C1A6FF",
"7 c #C0A7FF",
"8 c #C3A6FF",
"9 c #C2A7FF",
"0 c #C4A7FF",
"q c #C0ABFA",
"w c #C2ADF8",
"e c #C0A8FC",
"r c #C1A8FC",
"t c #C1A9FD",
"y c #C2A9FD",
"u c #C2ABFD",
"i c #C0A8FE",
"p c #C0A8FF",
"a c #C0A9FF",
"s c #C1A9FF",
"d c #C3A8FF",
"f c #C0AAFF",
"g c #C1ABFF",
"h c #C2AAFE",
"j c #C2AAFF",
"k c #C2ABFF",
"l c #C3ABFF",
"z c #C4A9FF",
"x c #C4ABFF",
"c c #C0ADFC",
"v c #C2ADFC",
"b c #C1ADFF",
"n c #C3ACFE",
"m c #C2ACFF",
"M c #F0EAF8",
"N c #F1EDFB",
"B c #F2EFFA",
"V c #F2E9FE",
"C c #F2EAFF",
"Z c #F3EBFF",
"A c #F0EDFE",
"S c #F1ECFF",
"D c #F3ECFE",
"F c #F1EEFF",
"G c #F4EDFD",
"H c #F5EDFF",
"J c #F6EEFF",
/* pixels */
" iiiiixniiiiiinixiiiixixiiiiniiiininixiiiixniiiiiiniiinixixiiiii",
"iiiiiniixinixiiiiiniiiiiinixiiixiiixiiininiixinixiiixiiiniiiniii",
"iniiiiiniiiiiixiniiinixnixinixiiiiniiniiiiiniiiiiixiiixiixiiixii",
"iiixxiiiinixxiniiixiiiiiiiiiiinxxiiiiiixxiiiinixxininiiiiiiniiii",
"iiiixixiiiiiiiiiiixnniiininiiiiiinxiiininiiiixiniiiininixininiii",
"ixinniiixinxinixiniiiixiiiiiixiniiiixiiiiiixiiiiinxiiiiiiiiiiiii",
"iiiiiixiiiiiixiniiiniiinxnixiiiiixniiixiixiinixiiiiixnixinixiiii",
"nixiixnnininiiiixiiiixixiiiinixiiiiixiniiinxiiiiixniiiiiiiiinxii",
"xiiiinxiiiiixniiixiiiiiiiiixniiinixiiixnixiiixiiiiixniiiixixiiii",
"nxiiiiiiixiniixiiiinixininiiiixiiiniiniiiiiniiininiiiixiiiiiinii",
"iiiiixniiiiixiiiiniiiiiixiiiiiinniiiiiininiiiniixiiiiiinnixnxiii",
"xiniiiiinixiiiinixinnixininiixixiixixiiiiiixixinniniixixiiiiiiii",
"nniiinixxiniiiixiiiiiiiiixiiiiniiiiixixiixixiiiiixiiiiniiiiiiiii",
"iiiiixiiiiiiniiinixinxiniiinxiiiixinniiiiiiiinxiiiinxiiixinxniii",
"xiiiiiixinixiinixiniiiiiiniiiixiiiiiixiinixniiiiiniiiixiiiiiixii",
"nixiiniiiiiinxiiiiiixixiiiixniiinixiiiiniiiiixniiiixniiiininiiii",
"iixiiiixin==iiniiiniiiiniiiininiiiiiinxiiiixniiiiiniiinixxiniiii",
"niiiniiixin==nixniiiixiinixiiiiixinxiiiiiniiiixixiiixiiiiiixiiii",
"ixiiiiniii-==-iiinixiiixxinixnixiiiiixnixiiiiiiniixiiixininiiiii",
"iiinnxiii=n==1iiiiiiiniiiiiiiiiiininiiiininiixixxininiiiiiiiiiii",
"iiiiixiiinSGGVviiiixxniiinixxiniiiininixixiiiiniiiiininiinixii  ",
"nxiniiini=GSSGiiiniiiixiixiiiiiiixiiixiiiiinxiiiinxiiiiixxiiii  ",
"iiiiiniirnMFSMn=xiiixiiiiiixinixiiixiiixiniiiixiiiiixnixniiiiii ",
"xixiiiixi=BSSBixniniiiininiiiiiiiniiiniiiiixniiiixniiiiiiiiiiiii",
"ii=7ixiiiiixniiiixiiiiiinixiiixnxixiiiixiiiininirivniri2xiiiii  ",
"iiiiixniniiiiiixiiinnixiiiniiniiniiiniiinixiiiiixi=ii7x7xiiiii  ",
"iiiiiiixiiniixiiiniixininiiiiiinixiiiinixinixnix07niix 7iiii    ",
"iiiiiniinxiiiinxiiixiiiiiixixiiiiiinnxiiiiiiiiiii7wrvw=nnii=    ",
"iiiiiiiiiiiiiiiiixiixiixiiiixixiinxiixiiinixiiii7=VGGGn=        ",
"iiiiiiiiiiiiixiniiinniiiixinniiiiiiiiiinixiiixii=-SSNS==  X     ",
"iiiiiiiiiiiiiiiiiiiiiiiiiiiiixiiiiiiiiiiiiiiiiiiqi-=  7#        ",
"iiiiiiiiiiiinixiiiiiiiiinixiiiiniiiiiiiiiiiiii27077  323     X X"
};
