/* XPM */
static char *a33240cc7cc044a5d3f4175fe881652beLiOQRG7mkTpevUi[] = {
/* columns rows colors chars-per-pixel */
"64 64 219 2 ",
"   c #2400BF",
".  c #2204BC",
"X  c #2B02BE",
"o  c #2804BE",
"O  c #2000C2",
"+  c #2500C0",
"@  c #2401C0",
"#  c #2601C0",
"$  c #2601C1",
"%  c #2502C1",
"&  c #2603C1",
"*  c #2400C2",
"=  c #2501C3",
"-  c #2601C3",
";  c #2704C0",
":  c #2300C4",
">  c #2201C4",
",  c #2301C7",
"<  c #2500C4",
"1  c #2700C4",
"2  c #2600C5",
"3  c #2702C4",
"4  c #2500C6",
"5  c #2400C7",
"6  c #2501C7",
"7  c #2700C6",
"8  c #2701C6",
"9  c #2600C7",
"0  c #2602C6",
"q  c #2703C7",
"w  c #2800C1",
"e  c #2901C2",
"r  c #2800C3",
"t  c #2803C2",
"y  c #2803C3",
"u  c #2A03C2",
"i  c #2901C4",
"p  c #2800C5",
"a  c #2900C5",
"s  c #2A02C5",
"d  c #2900C6",
"f  c #2800C7",
"g  c #2A01C7",
"h  c #2802C7",
"j  c #2200C9",
"k  c #2301C9",
"l  c #2400C8",
"z  c #2500C9",
"x  c #2701C8",
"c  c #2600C9",
"v  c #2700C9",
"b  c #2503C9",
"n  c #2602C8",
"m  c #2703C9",
"M  c #2500CB",
"N  c #2600CA",
"B  c #2700CB",
"V  c #2601CB",
"C  c #2500CC",
"Z  c #2600CC",
"A  c #2700CD",
"S  c #2702CC",
"D  c #2500CE",
"F  c #2900C8",
"G  c #2800C9",
"H  c #2A01C9",
"J  c #2802C9",
"K  c #2800CA",
"L  c #2900CA",
"P  c #2900CB",
"I  c #2A01CB",
"U  c #2802CB",
"Y  c #2800CC",
"T  c #2801CC",
"R  c #2B00CC",
"E  c #2A00CE",
"W  c #2902CF",
"Q  c #2A06CC",
"!  c #ADACBA",
"~  c #B0AFBD",
"^  c #ADB0B7",
"/  c #AFB2B9",
"(  c #ADB1BA",
")  c #AEB1BA",
"_  c #AFB2BB",
"`  c #AFB1BD",
"'  c #AFB1BE",
"]  c #AFB3BF",
"[  c #B3B2B8",
"{  c #B1B1BB",
"}  c #B2B2BA",
"|  c #B3B2BA",
" . c #B3B3BB",
".. c #B0B5B9",
"X. c #B3B4B9",
"o. c #B1B4BB",
"O. c #B3B1BC",
"+. c #B0B3BC",
"@. c #B1B0BE",
"#. c #B3B1BE",
"$. c #B2B1BF",
"%. c #B3B1BF",
"&. c #B0B2BE",
"*. c #B0B2BF",
"=. c #B1B3BF",
"-. c #B2B2BE",
";. c #B3B3BF",
":. c #B1B4BD",
">. c #B1B6BC",
",. c #B0B4BF",
"<. c #B2B5BE",
"1. c #B6B5BD",
"2. c #B3AFC0",
"3. c #B1AFC4",
"4. c #B1AFC5",
"5. c #B3AFC6",
"6. c #B6ADCA",
"7. c #AEB1C0",
"8. c #AFB1C0",
"9. c #AFB2C1",
"0. c #AFB0C4",
"q. c #AEB0C5",
"w. c #AFB1C6",
"e. c #AFB1C8",
"r. c #B1B3C0",
"t. c #B0B2C1",
"y. c #B3B2C0",
"u. c #B1B0C2",
"i. c #B3B0C3",
"p. c #B2B1C3",
"a. c #B1B3C2",
"s. c #B4B2C0",
"d. c #B5B2C3",
"f. c #B0B4C0",
"g. c #B1B5C0",
"h. c #B2B4C1",
"j. c #B3B5C1",
"k. c #B4B4C0",
"l. c #B0B1C5",
"z. c #B2B0C5",
"x. c #B3B2C4",
"c. c #B1B2C6",
"v. c #B1B2C7",
"b. c #B4B1C4",
"n. c #B4B0C7",
"m. c #B4B2C7",
"M. c #B8B7C5",
"N. c #BBB7C6",
"B. c #B2B0C8",
"V. c #BFA7FF",
"C. c #BFACFE",
"Z. c #C3AEF3",
"A. c #C2ACF7",
"S. c #C1A7FF",
"D. c #C2ABFB",
"F. c #C1A9FD",
"G. c #C0AAFC",
"H. c #C1AAFC",
"J. c #C0AAFD",
"K. c #C3AAFD",
"L. c #C2ABFD",
"P. c #C1A8FF",
"I. c #C1A9FF",
"U. c #C2A8FF",
"Y. c #C3A9FF",
"T. c #C1ABFE",
"R. c #C0AAFF",
"E. c #C2AAFE",
"W. c #C3AAFE",
"Q. c #C2AAFF",
"!. c #C3AAFF",
"~. c #C3ABFF",
"^. c #C5A9FE",
"/. c #C5A8FF",
"(. c #C4A9FF",
"). c #C4ABFE",
"_. c #C3ACFC",
"`. c #C3ACFE",
"'. c #C5AEFC",
"]. c #C4ACFF",
"[. c #C5AEFE",
"{. c #C8ABFD",
"}. c #E5E3F1",
"|. c #E7E3F2",
" X c #EEE6F1",
".X c #EDE7F5",
"XX c #EFE6F7",
"oX c #EEE7F7",
"OX c #EDEAF1",
"+X c #EFEAF1",
"@X c #EFE9F3",
"#X c #EDEAF3",
"$X c #EBE9F7",
"%X c #ECE9F4",
"&X c #EDEAF5",
"*X c #EEEBF4",
"=X c #ECE8F6",
"-X c #ECE8F7",
";X c #EDE9F7",
":X c #EEE8F6",
">X c #EFE9F7",
",X c #ECEAF7",
"<X c #EEE7F9",
"1X c #EDE5FD",
"2X c #EEE4FC",
"3X c #EEE6FE",
"4X c #EFE7FE",
"5X c #EBE8F9",
"6X c #EBE8FB",
"7X c #EDE9F8",
"8X c #EFE8F8",
"9X c #ECEAF8",
"0X c #EEEAF8",
"qX c #EFEBFA",
"wX c #F0E8F7",
"eX c #F0E9F9",
"rX c #F2ECFA",
"tX c #F1EAFC",
"yX c #F0E8FF",
/* pixels */
"W.W.W.W.W.W.W.W.C.D.).D.Z j V L W.W.W.W.C.W.D.W.W.W.W.W.W.W.W.W.W.W.W.W.W.W.W.W.W.C.W.C.W.W.W.W.L Z j Y W.W.D.C.W.W.W.W.W.W.W.W.",
"W.W.W.W.W.W.W.W.D.S./.).1 % y L W.S.W.W.W.W.W.C.W.W.W.W.W.W.W.W.W.W.W.W.W.W.W.W.W.D.W.W.S.C.S.W.L % & a W./.S.D.W.W.W.W.W.W.W.W.",
"W.W.W.W.W.W.W.W.)./.)./.a 1 y a W.A.'.W.W.V.W.W.W.W.W.W.W.W.W.W.W.W.W.W.W.W.W.W.W.W.W.A.W.'.A.W.a u 1 a /.{./.'.W.W.W.W.W.W.W.W.",
"W.W.W.W.W.W.W.W.W.W.).).j , V Y W.D.S.W.Z.D.W.C.W.W.W.W.W.W.W.W.W.W.W.W.W.W.W.W.C.W.W.A.S.S.D.W.Z V j j W.).W.D.W.W.W.W.W.W.W.W.",
"W.W.W.W.W.W.W.W.Z 1 a V 1.' k.[ L a L X S.W.W.).W.W.W.W.W.W.W.W.W.W.W.W.W.W.W.W.W.W.W.V.X L a L X.1.' 1., a a Z W.W.W.W.W.W.W.W.",
"W.W.W.W.W.W.W.W.j % 1 j &.9.l.&.Y L Z L S.'.S.S.W.W.W.W.W.W.W.W.W.W.W.W.W.W.W.W.W.S.D.W.R Z L Y &.w.9.9.j 1 % j W.W.W.W.W.W.W.W.",
"W.W.W.W.W.W.W.W.Z y y 1 1.l.l.&.% o L a D.A.S.).W.W.W.W.W.W.W.W.W.W.W.W.W.W.W.W.W.S.A.W.a L o % &.y.w.y.V y y V W.W.W.W.W.W.W.W.",
"W.W.W.W.W.W.W.W.L L L Z [ #.O.O.Y % Y V W.W.).).W.W.W.W.W.W.W.W.W.W.W.W.W.W.W.W.W.W.W.'.L L % Z O. .y.[ Z a L L W.W.W.W.W.W.W.W.",
"W.W.W.W.W.W.W.W.V a 1 V ;X8XoX;X/ g.[ d.* V a Y W.S.W.S.S.W.S.W.W.W.S.W.S.)./.S.R 1 V % d.[ g._ ;XoX<XwX1 1 a a W.W.W.W.W.W.W.W.",
"W.W.W.W.W.W.W.W.a a 1 V 8X8XoX;Xc.' l.6.% 1 V 1 W.W.W.W.).D.W.W.W.W.W.W.W.S.W.D.y L 1 1 5.5.9.l.wXoXeXwXV V a V W.W.W.W.W.W.W.W.",
"W.W.W.W.W.W.W.W.L a V 1 eXoXoXwX' 9.b.d.b * y Z W.W.W.W.W.W.W.W.W.S.W.W.W.C.W.W.V 1 * b y.B.9.<.wXoX<X;X1 V L a W.W.W.W.W.W.W.W.",
"W.W.W.W.W.W.W.W.1 a 1 V oXeX;XwXy.9.[ 5.. b % * C.D.F.D.C.W.C.W.C.D.C.W.W.D.C.D.* % b . 5.[ ' &.;XoX;XoXV 1 a 1 W.W.W.W.W.W.W.W.",
"W.W.W.W.W.W.W.W.V a 1 V eXoXoXwX' <.y.&.5.y.b.b.L L L L L L L L L L L L L L L L d.l.#.b.y.b.] ' wXoXeX;X1 1 V L W.W.W.W.W.W.W.W.",
"W.W.W.W.W.W.W.W.a 1 V 1 oXeXoX;Xw.<.^ l.[ B.5.[ 1 a a V L 1 1 L a 1 L 1 L 1 V 1 [ 5.l.' y._ <.w.wX;XwXwXV 1 a 1 W.W.W.W.W.W.W.W.",
"W.W.W.W.W.W.W.W.1 a V 1 wX;XoXwX[ g._ <.y.9.' g.V V V V j V V V V V V j V V V V g.y.9.y.&.o.<.[ ;XoX<XeX1 V a V W.W.W.W.W.W.W.W.",
"W.W.W.W.W.W.W.W.a L 1 V wXeX;XwXl._ w.9.g.' l._ 1 1 1 % 1 1 1 1 1 1 1 1 1 1 % 1 _ l.' <.9.w._ l.wXoXwX<XV 1 a 1 W.W.W.W.W.W.W.W.",
"W.W.W.C.L a V 1 y.~ y.y.y.~ y.y.~ y.y.~ y.y.y.~ y.y.~ ~ y.y.~ y.#.d.#.d.#.d.#.d.#.d.#.d.#.d.#.d.&.&.d.~ &.#.d.#.a V a L W.W.W.W.",
"W.W.S.D.L % V 1 y.~ y.~ y.y.~ y.~ y.y.~ y.~ y.y.~ y.y.y.y.~ y.y.&.~ &.~ &.~ &.~ &.~ &.~ &.~ &.~ #.y.#.&.~ d.~ &.1 V 1 L C.W.W.S.",
"W.W.W.C.L a V % y.y.~ y.~ ~ y.y.y.y.y.y.~ y.~ y.~ y.y.y.y.y.~ ~ ~ d.#.&.~ d.#.&.~ d.#.&.~ d.#.&.&.~ d.~ &.#.&.~ 1 V % L C.W.W.W.",
"S.).W.W.L 1 V 1 ~ y.y.y.y.y.y.~ y.~ ~ y.y.y.~ y.y.y.~ ~ ~ y.y.y.&.#.d.~ &.#.d.~ &.#.d.~ &.#.d.~ #.d.#.&.~ d.#.d.1 V a L F.W.W.W.",
"W.W.S.D.L a V 1 y.y.~ ~ ~ y.y.y.y.~ ~ y.y.y.~ y.~ y.y.y.y.y.y.~ ~ &.~ d.#.&.~ &.~ &.~ d.#.&.~ &.d.~ &.#.d.~ &.#.1 V a L D.W.W.S.",
"S.W.W.C.L 1 V 1 ~ y.y.y.y.y.~ ~ y.y.y.y.~ y.~ y.y.y.~ y.~ ~ y.y.d.#.&.#.d.~ d.#.d.#.&.#.d.~ d.#.#.&.~ d.#.&.~ d.1 V 1 L F.W.W.W.",
"W.W.W.C.L a V 1 ~ y.y.y.y.~ y.y.~ y.y.~ y.~ y.y.y.~ y.~ y.y.~ y.#.d.~ d.#.&.#.d.#.d.~ d.#.&.&.d.d.#.d.#.d.#.d.#.1 V 1 L W.W.W.S.",
"W.W.W.W.L 1 j 1 y.y.~ ~ y.y.~ y.~ y.y.~ y.y.y.~ y.~ y.y.y.~ y.y.&.~ &.#.d.~ &.~ &.~ &.#.d.~ &.&.~ &.~ &.~ &.~ &.1 V 1 a C.W.W.W.",
"S.W.W.D.L a V 1 &.y.y.~ y.~ y.y.B._ l.' 9.] l.[ y.y.&.y.y.y.~ ~ ~ d.#.&.~ &.~ d._ l.&.9.' w._ l.~ y.y.y.y.y.y.~ 1 j 1 L W.C.W.W.",
").).W.F.L 1 V % y.~ y.y.y.~ y.~ &.<.o.<.y.y.&.g.y.' y.~ ~ y.y.y.&.#.d.~ d.#.&.#.g.' y.y.<.o.<._ y.y.~ ~ ~ ~ y.y.1 V 1 L W.W.W.S.",
"S.W.W.C.L a V 1 ~ y.~ y.y.y.~ y.l.o.^ l.&.b.l.[ y.y.y.~ ~ y.y.y.~ &.~ &.#.d.~ d.[ 5.l.[ y._ o.l.y.~ y.y.y.y.~ y.1 V 1 L W.W.W.W.",
").D.S.F.V 1 V 1 y.y.~ y.~ y.y.y.&.<.d.&.5.y.5.b.~ ~ y.y.y.y.~ ~ d.#.d.#.&.~ &.#.d.5.d.l.&.l.<.' y.y.~ y.y.~ y.y.1 V 1 L C.W.W.W.",
"/.W.W.D.L 1 V % y.~ y.y.~ y.y.~ y.' &.5.. V % * y.y.~ y.y.~ y.y.#.d.#.d.~ &.~ d.% % V . 5.&.&.g.~ ~ y.y.y.y.~ ~ % V a L F.W.W.W.",
"W.W.S.F.L 1 V 1 y.y.~ y.~ y.y.~ &.9.b.y.b   a V y.~ y.y.y.y.~ y.&.~ &.~ d.#.&.#.V y * V &.B.y.] y.y.y.~ ~ y.y.y.1 V a L D.S.W.S.",
"S.W.W.C.L 1 V 1 ~ ~ y.y.y.y.y.y.l.9.l.5.% 1 L a y.y.~ ~ ~ ~ y.y.~ d.#.&.#.d.~ d.a V 1 1 5.5.9.l.y.y.y.~ ~ y.y.&.1 V a L W.W.D.W.",
").W.W.D.L a V 1 y.y.y.~ y.~ ~ y.[ g.[ b.% Z 1 Y ~ y.y.y.y.y.y.~ &.#.d.~ &.~ &.#.Y 1 V % d.[ y.[ ~ ~ y.y.y.y.~ &.1 V % L C.W.).S.",
"V V 1 V #X<X#X;XoX<X$X$Xy.y.~ y._ g.[ d.% V a Y &.[ 5.y.y.[ q.y.2.5.X.&.y.n.#.#.Y a V * b.o.g.[ 9.&.y.&.$X;X8XoX;X#XoX#XZ 1 V V ",
"L % % V oX1XtX#X8XoX-X$X~ &.y.&.l.' 5.5.% 1 L 1 <.' y.&.' &.g.y.y.k.' <.&.&._ o.1 L a % 5.l.' w.' y.&.d.$X$XoX8X#X4X2XoXL y   L ",
"L y 1 V XXeX<X<X;X-XeX8Xd.~ g.g.' y.B.d.V * 1 V e.9.<.w.<.] ' o./ 9.' <.w.9.<.e.L 1   V #.n.y.] y.y.~ #.$X8XoX$X;X<XtXXXV % y L ",
"V a y L  XXXoX#X-X$X;X}.M.&.9.' g.' [ l.. b % * y.&.5.&.l.<.5.&.y.w.&.l.&.5.y.y.% % b . 5.[ 9.y.9.y.#.M.}.$X$XoXwX#XoX XL y y V ",
").C.W.C.V V L Z y.#.d.M.! &.y.9.9.<.y.&.b.d.5.d.8X;X*XtXo V y b b y V o 4X;X#X;Xb.5.&.5.&.y.<.9.9.<.&.! M.d.#.d.Z Y V L C.W.C.W.",
"D.W.D.W.a % y 1 y.&.~ &.y.y.' ' w.o.^ l.&.l.5.[ #X;XXXoXV L L Z Z L a L ;XXX#XwX[ l.n.&.b.^ o.l.' ' g.&.&.~ &.d.1 % % a W.'.C.W.",
"D.W.W.C.a y   V ~ &.d.&.g.' g.y.' g.o.<.y.9.9.g.1XeX<X<Xb L V s a V Y V 1X<XrX<Xg.9.9.y.<.o.<._ y.g.' 9.&.g.d.~ V % y a C.C.W.W.",
"W.W.W.W.L V L V y.' y.&.9.' y.&.l.[ l.&.&.<.l._ 8X5X#X<Xy Z 1 y y a Z 1 $XOX6X8X[ l.&.&.9.w.' l.' 9.' y.&.y.' &.V L V L W.W.D.W.",
"V V 1 Z #XwX#X;XoX;X$X$X&.<.&.&._ l.' g.9.l.[ w.8X8X8X8X8X8X8X8X8X8X8X8XeXwX8X8Xl._ l.' 9.' l._ <.&.<.#.$XoX;XoX;X#XoX#XZ 1 V V ",
"L . y L oX1XtX#XeX;X;X$X&.d.g.&.g.&.y.&.&.o.<.' 8X8X8X8X8X8X8X8X8X8X8X8X;X;X8X8X&.<.o.<.y.y.<.g.' &.d.#.$X$X;XeX#XtX2XoXL y   L ",
"V y * V XXeX1X<X;XoX9X6Xd.~ #.#.[ 5.B.&.y._ o.w.;X8X8X;X6X,X8X9X8X9X8X6X6X;X8X8Xl.o.^ l.&.b.l.[ y.y.&.d.$X8X;X;XoX<XtXXXV % y L ",
"L a % Y  XXXoX#X8XwXeX|.N.#.d.#.b.b.y.5.&.y.<.' ,X,X6X;X,X,X9X9X9X9X,X,X9X9X9X8X&.<.d.&.5.y.5.b.y.y.&.N.|.8X8X8X#XoXoX XV y a V ",
"W.C.W.C.L V V Z 1 V V Q * j 1 j * * b . 5.[ 9.y.&.#.d.#.d.#.&.y.<.&.y.&.d.#.&.#.y.' [ 5.. V % * j , , O Q V 1 1 Z Y V L W.D.C.D.",
"W.W.D.W.a % u 1 b b 1 1 V b b b Z y * b y.B.9.] y.y.&.d.&.#.d.y.&.d.y.y.d.#.d.g.<.9.l.d.V % 1 L 1 V b 1 1 V V V 1 % % a W.D.W.D.",
"W.W.W.C.y y % V 1 1 b 1 1 * 1 1 1 V 1 1 5.w.&.l.' 9.9.' &.&.' &.&.y.' &.' &.y.' l.&.5.b.% 1 V a a b 1 1 1 1 1 1 V % y a C.W.W.W.",
"W.D.D.W.L L V V L a L 1 L 1 L a L a Z % b.[ g.[ y.&.' y.' y.9.y.y.&.9.' &.&.' 9._ g.[ l.* V y Y 1 L 1 L V L 1 a V L V V W.D.A.W.",
"W.W.W.C.D.W.W.W.V L L L D.W.W.C.1 1 V V &.<.y.<.y.~ y.y.y.y.~ ~ &.~ &.~ &.~ &.~ <.&.<.d.V a 1 V D.W.W.W.W.W.W.W.W.W.W.W.W.W.W.W.",
"C.W.W.W.W.W.V.W.V   y a W.W.W.D.V a a V &.g.&.k.&.y.y.~ ~ y.y.y.#.d.#.d.#.d.#.d.d.' 9.&.1 V a 1 D.).W.W.W.W.W.W.W.W.W.W.W.W.W.W.",
"D.D.V.A.W.D.A.W.1 y % a D.D.W.W.1 a V y &.9.&.#.y.y.y.~ ~ y.y.y.d.~ &.#.d.~ &.#.&.&.g.&.V 1 a V W.W.W.W.W.W.W.W.W.W.W.W.W.W.W.W.",
"W.W.A.A.S.W.W.).Z V V V C.W.C.D.V a 1 V 2.y.&.g.~ ~ y.y.y.y.~ ~ #.&.~ d.#.&.~ d.1.&.9.y.b a a 1 W.W.W.W.W.W.W.W.W.W.W.W.W.W.W.W.",
"W.W.W.V.o L a L #XoXoX XZ 1 a V 1 a V 1 &.9.' d.y.y.~ y.y.~ y.y.d.#.d.~ &.#.d.#.y.y.9.<.1 V a V W.W.W.W.W.W.W.W.W.W.W.W.W.W.W.W.",
"W.W.'.V.L Z L Y XX1XeXoXV 1 y V V a a V &.g.&.<.y.~ y.y.y.y.~ y.~ &.#.&.~ d.~ &.y.' g.&.V a a 1 W.W.W.W.W.W.W.W.W.W.W.W.W.W.W.W.",
"W.V.A.W.a L o % #XtX<XoXL y   L V a V 1 #.g.&.y.y.y.~ ~ ~ ~ y.y.&.~ d.~ &.#.y.&.<.9.9.&.1 V V 1 W.W.W.W.W.W.W.W.W.W.W.W.W.W.W.W.",
"W.W.W.W.L L % Y #X;XwXwXZ % V V 1 a a V y.g.&.d.~ y.y.y.y.y.y.~ #.d.#.&.~ d.&.y.#.' y.y.V a a 1 W.W.W.W.W.W.W.W.W.W.W.W.W.W.W.W.",
"W.W.W.W.W.W.W.W.V V % Z wX8X#X;X^ 9.&.b., Z 1 Y <.&.#.d.j j V 1 a a 1 j g.d.' <.1 V 1 L W.W.W.W.W.W.W.W.W.W.W.W.W.W.W.W.W.W.W.W.",
"W.W.W.W.W.W.W.W.L   y V  X1XtX#Xy.' y.l.% y a y ' &.d.#., y a U L V , , d.&.<.' 1 V 1 L W.C.W.W.W.W.W.W.W.W.W.W.W.W.W.W.W.W.W.W.",
"W.W.W.W.W.W.W.W.L a , V XXeX1X8X[ 5.5.&.1 % 1 V &.d.' &., b 1 1 a 1 b , &.&.y.&.1 V a L C.W.W.S.W.W.W.W.W.W.W.W.W.W.W.W.W.W.W.W.",
"W.W.W.W.W.W.W.W.1 a y L  XoXoX#Xb.b.2.6.& Y L 1 1.&.<.N.* U 1 L a 1 V * N.y.y.y.1 V 1 L D.S.W.W.W.W.W.W.W.W.W.W.W.W.W.W.W.W.W.W.",
"W.W.W.W.W.W.W.W.W.C.W.C.L V V V , % V & V 1 L a 6X$XoX}.Q 1 , 1 V 1 1 Q |.<X$X$X1 V 1 L W.W.W.W.W.W.W.W.W.W.W.W.W.W.W.W.W.W.W.W.",
"W.W.W.W.W.W.W.W.W.W.D.W.a 1 & 1 Y y   L % W Y y ;X$XeX;XV 1 1 L L 1 , V wXeX$X;X% V 1 L C.W.W.W.W.W.W.W.W.W.W.W.W.W.W.W.W.W.W.W.",
"W.W.W.W.W.W.W.W.W.W.W.C.a o % V a L 1 a L Z V V 8XoX;XwX1 V 1 1 a 1 L 1 8XoXoX8X1 V % L F.W.W.W.W.W.W.W.W.W.W.W.W.W.W.W.W.W.W.W.",
"W.W.W.W.W.W.W.W.W.A.D.).L V L V Y % L a L y L   $XeX<XwXV V 1 a V 1 V 1 8X;X8X$X1 V a L C.W.W.W.W.W.W.W.W.W.W.W.W.W.W.W.W.W.W.W."
};
