/* XPM */
static char *_11f837c55bf4ac3d7a82adb4c408510BPYjbCNpod3BUd5Y[] = {
/* columns rows colors chars-per-pixel */
"64 64 218 2 ",
"   c #2400BF",
".  c #2602BE",
"X  c #2204BC",
"o  c #2903BB",
"O  c #2B02BE",
"+  c #2804BE",
"@  c #2000C2",
"#  c #2500C0",
"$  c #2401C0",
"%  c #2601C0",
"&  c #2601C1",
"*  c #2502C1",
"=  c #2603C1",
"-  c #2400C2",
";  c #2500C2",
":  c #2501C3",
">  c #2700C2",
",  c #2601C3",
"<  c #2707C0",
"1  c #2704C3",
"2  c #2100C5",
"3  c #2300C4",
"4  c #2201C4",
"5  c #2301C7",
"6  c #2500C4",
"7  c #2700C4",
"8  c #2600C5",
"9  c #2403C4",
"0  c #2602C4",
"q  c #2702C4",
"w  c #2703C5",
"e  c #2500C6",
"r  c #2400C7",
"t  c #2501C7",
"y  c #2700C6",
"u  c #2701C6",
"i  c #2600C7",
"p  c #2800C1",
"a  c #2901C2",
"s  c #2800C3",
"d  c #2803C2",
"f  c #2803C3",
"g  c #2A03C2",
"h  c #2901C4",
"j  c #2800C5",
"k  c #2900C5",
"l  c #2A02C5",
"z  c #2900C6",
"x  c #2800C7",
"c  c #2A01C7",
"v  c #2802C7",
"b  c #2200C9",
"n  c #2300C9",
"m  c #2301C9",
"M  c #2400C8",
"N  c #2500C9",
"B  c #2701C8",
"V  c #2600C9",
"C  c #2700C9",
"Z  c #2503C9",
"A  c #2602C8",
"S  c #2703C9",
"D  c #2500CB",
"F  c #2600CA",
"G  c #2700CB",
"H  c #2601CB",
"J  c #2600CC",
"K  c #2700CD",
"L  c #2702CC",
"P  c #2500CE",
"I  c #2700CF",
"U  c #2900C8",
"Y  c #2800C9",
"T  c #2A01C9",
"R  c #2903C8",
"E  c #2802C9",
"W  c #2800CA",
"Q  c #2900CA",
"!  c #2900CB",
"~  c #2802CB",
"^  c #2801CC",
"/  c #2B00CC",
"(  c #2A00CE",
")  c #2902CF",
"_  c #2A06CC",
"`  c #2800D3",
"'  c #ADACBA",
"]  c #B0AFBD",
"[  c #ADB0B7",
"{  c #AFB2B9",
"}  c #ADB1BA",
"|  c #AFB2BB",
" . c #AFB1BE",
".. c #B3B2B8",
"X. c #B1B1BB",
"o. c #B2B2BA",
"O. c #B3B2BA",
"+. c #B3B3BB",
"@. c #B1B4BB",
"#. c #B0B5BB",
"$. c #B3B1BC",
"%. c #B0B3BC",
"&. c #B1B0BE",
"*. c #B2B1BF",
"=. c #B3B1BF",
"-. c #B0B2BE",
";. c #B0B2BF",
":. c #B1B3BF",
">. c #B2B2BE",
",. c #B3B3BF",
"<. c #B1B4BD",
"1. c #B0B4BF",
"2. c #B2B5BE",
"3. c #B4B4BC",
"4. c #B6B5BD",
"5. c #B3AFC0",
"6. c #B1ADC4",
"7. c #B1AFC4",
"8. c #B1AFC5",
"9. c #B3AFC6",
"0. c #B6ADCA",
"q. c #AFB1C0",
"w. c #AFB2C1",
"e. c #AFB0C4",
"r. c #AFB1C6",
"t. c #B1B0C0",
"y. c #B1B3C0",
"u. c #B0B2C1",
"i. c #B3B2C0",
"p. c #B1B0C2",
"a. c #B3B0C3",
"s. c #B1B3C2",
"d. c #B4B2C0",
"f. c #B4B1C2",
"g. c #B5B2C3",
"h. c #B0B4C0",
"j. c #B2B4C1",
"k. c #B4B4C0",
"l. c #B7B5C0",
"z. c #B6B4C2",
"x. c #B0B1C5",
"c. c #B3B2C4",
"v. c #B1B2C6",
"b. c #B1B2C7",
"n. c #B4B1C4",
"m. c #B4B0C7",
"M. c #B4B2C7",
"N. c #B8B7C5",
"B. c #BBB7C6",
"V. c #BFA7FF",
"C. c #BFACFE",
"Z. c #C3AEF3",
"A. c #C2ACF7",
"S. c #C0A6FF",
"D. c #C1A7FF",
"F. c #C2AAF8",
"G. c #C1AAFA",
"H. c #C2ABFB",
"J. c #C1A9FD",
"K. c #C0AAFC",
"L. c #C1AAFC",
"P. c #C0AAFD",
"I. c #C3AAFD",
"U. c #C2ABFD",
"Y. c #C1A8FF",
"T. c #C1A9FF",
"R. c #C2A8FF",
"E. c #C3A9FF",
"W. c #C1ABFE",
"Q. c #C0AAFF",
"!. c #C2AAFE",
"~. c #C3AAFE",
"^. c #C2AAFF",
"/. c #C3AAFF",
"(. c #C3ABFF",
"). c #C5A9FE",
"_. c #C5A8FF",
"`. c #C4A9FF",
"'. c #C4ABFE",
"]. c #C3ACFC",
"[. c #C3ACFE",
"{. c #C5AEFC",
"}. c #C4ACFF",
"|. c #C5AEFE",
" X c #C8ABFD",
".X c #C6B0F8",
"XX c #E5E3F1",
"oX c #E7E3F2",
"OX c #EEE6F1",
"+X c #EDE7F3",
"@X c #EDE7F5",
"#X c #EFE6F7",
"$X c #EEE7F7",
"%X c #EFEAF1",
"&X c #EFE9F3",
"*X c #EDEAF3",
"=X c #EBE9F7",
"-X c #ECEAF5",
";X c #EDEAF5",
":X c #EEEBF4",
">X c #ECE8F6",
",X c #ECE8F7",
"<X c #ECEAF7",
"1X c #E8E5F8",
"2X c #EBE6FC",
"3X c #EDE5FD",
"4X c #EEE6FE",
"5X c #EBE8F9",
"6X c #EDE9F8",
"7X c #EFE8F8",
"8X c #ECEAF8",
"9X c #EDEBF8",
"0X c #EEEAF8",
"qX c #EFEBFA",
"wX c #F0EAF6",
"eX c #F0E9F9",
"rX c #F1EAFC",
"tX c #F0E8FF",
/* pixels */
"~.~.~.~.~.~.~.~.~.~.~.~.~.~.~.~.~.H.~.V.H b H Q ~.~.D.K.~.K.K.}.'.~.~.~.~.~.~.~.~.H.~.V.H b H Q ~.~.D.K.~.K.K.}.'.~.~.~.~.~.~.~.",
"~.~.~.~.~.~.~.~.~.~.~.~.~.~.~.~.H.D.'.~.k * g Q ~.~.~.~.}.K.}.K.~.~.~.~.~.~.~.~.H.D.'.~.k * g Q ~.~.~.~.}.K.}.K.~.~.~.~.~.~.~.~.",
"~.~.~.~.~.~.~.~.~.~.~.~.~.~.~.~.'._. X'.k H g k ~.A.}.~.H.V.~.~.~.~.~.~.~.~.~.~.'._. X'.k H g k ~.A.}.~.H.V.~.~.~.~.~.~.~.~.~.~.",
"~.~.~.~.~.~.~.~.~.~.~.~.~.~.~.~.~.'.'.K.7 b 5 J ~.H.V.~.A.K.~.~.~.~.~.~.~.~.~.~.~.'.'.K.7 b 5 J ~.H.V.~.A.K.~.~.~.~.~.~.~.~.~.~.",
"~.~.~.~.~.~.~.~.~.~.~.~.~.~.~.~.Q 7 k H 4. .4.$.H k Q O ~.~.~.~.~.~.~.~.~.~.~.~.Q 7 k H 4. .4.$.H k Q O ~.~.~.~.~.~.~.~.~.~.~.~.",
"~.~.~.~.~.~.~.~.~.~.~.~.~.~.~.~.b * 7 b  .w.r.t.^ Q J Q ~.}.~.D.~.~.~.~.~.~.~.~.b * 7 b  .w.x.-.^ Q J Q ~.}.~.D.~.~.~.~.~.~.~.~.",
"~.~.~.~.~.~.~.~.~.~.~.~.~.~.~.~.H f f H k.r.t.$.* + Q k H.A.V.~.~.~.~.~.~.~.~.~.H f f H k.r.t.$.* + Q k H.A.V.~.~.~.~.~.~.~.~.~.",
"~.~.~.~.~.~.~.~.~.~.~.~.~.~.~.~.Q Q f ^ $.-.$.-.^ * ^ Q ~.~.~.~.~.~.~.~.~.~.~.~.Q Q f ^ $.-.$.-.^ * ^ Q ~.~.~.~.~.~.~.~.~.~.~.~.",
"~.~.~.~.~.~.~.~.C.H.'.H.J b H Q w.<.t.$.6X6X7X7XH . k Q H.H.~.A.C.H.'.~.J b J Q w.<.t.-.8X6X6X7XH . Q k K.H.~.H.~.~.~.~.~.~.~.~.",
"~.~.~.~.~.~.~.~.H.D._.'.7 * f Q t.<.-.d.6X6X7X7X7 f ` ^ V.~.V.H.H.D.~.~.7 * g Q <.w.-.d.8X6XeX7X7 1 J ^ ~.~.D.~.~.~.~.~.~.~.~.~.",
"~.~.~.~.~.~.~.~.'._.'._.k 7 f k -.t.-.d.9X6X6XeXH * b 1 K..X~.V.'._.'.'.k 7 g k t.-.d.$.6X6X7X7XQ 7 b 1 V..XK.H.~.~.~.~.~.~.~.~.",
"~.~.~.~.~.~.~.~.~.~.'.'.b 5 H ^ t.-.t.d.8X6X6XeXQ * 7 o V.K.~.~.~._._.'.5 5 H Q -.t.t.d.6X6X7X7XH 7 7 o V.C.V.~.~.~.~.~.~.~.~.~.",
"~.~.~.~.~.~.~.~.J 7 k 5 4. .k... .h.-.d.6X6X7X7XQ * H ` o 1 ^ k H * k 5 4. .k.$.t. .-.d.6X6X7X7XH 7 H I o k Q k ~.~.~.~.~.~.~.~.",
"~.~.~.~.~.~.~.~.b * 7 5 -.w.x.-.t.-.t.$.6X6X7X7XH f k H k b ` H b * H 7  .w.x.-.<.h.d.-.6X6X7X7Xk * S J k b I H ~.~.~.~.~.~.~.~.",
"~.~.~.~.~.~.~.~.J 1 g H k.x.x.-.-.t.-.d.8X6X7X7XQ * * 7 * 7 k . J f f H <.x.x.$.w. .t.d.6X6X6X7XQ * * 7 * f f . ~.~.~.~.~.~.~.~.",
"~.~.~.~.~.~.~.}.Q Q k ^ $.$.$.$.t.-.5.-.8X6X7XwXQ Q H H H H 7 Q Q Q k ^ $.-.$.$.-.t.<.d.8X6X7X7XQ Q H Q H H 7 H ~.~.~.~.~.~.~.~.",
"~.~.~.V.H k H * 5.$.t.-.d.-.t.-.d.-.t.-.d.$.t.d.-.d.-.t.d.t.$.t.5.-.t.d.5.-.t.d.5.-.t.d.5.-.t.d.-.5.-.d.t.d.t.-.k H 7 Q ~.~.~.~.",
"~.~.~.H.Q f H 7 -.d.d.t.$.5.d.t.$.5.d.t.-.5.-.t.t.d.5.$.d.-.5.-.$.d.-.t.$.d.-.t.$.d.-.t.$.d.-.t.d.-.d.] $.5.-.d.* H k Q H.~.~.~.",
"~.~.~.V.Q k H * t.-.5.-.t.-.d.$.t.-.d.$.t.d.d.-.$.t.-.t.-.t.d.d.t.d.5.$.t.d.5.$.t.d.5.$.t.d.5.$.d.-.t.$.d.-.t.$.7 H k Q V.~.~.D.",
"~.~.~.~.Q 7 H 7 d.t.$.d.d.t.-.5.d.t.-.5.-.t.$.5.5.-.d.d.5.$.t.-.-.t.-.d.-.t.-.d.-.t.-.d.-.t.-.d.-.t.d.t.-.t.d.5.7 H 7 Q V.~.~.~.",
"~.~.~.H.Q k H 7 5.$.t.-.5.-.t.d.5.-.t.d.d.$.t.d.-.d.-.t.-.d.-.t.d.$.t.d.5.$.t.-.d.$.t.d.5.$.t.-.5.$.d.-.5.$.d.-.7 H k Q H.~.~.~.",
"~.~.~.C.Q 7 H 7 -.d.d.t.$.d.-.t.$.d.-.t.-.5.-.t.t.d.5.$.d.-.d.k.-.5.-.t.-.d.d.t.-.5.-.t.-.d.d.t.d.t.-.t.d.t.-.t.7 H 7 Q H.~.~.~.",
"~.~.~.V.Q k H 7 t.-.5.-.t.d.5.$.t.d.5.$.t.d.d.-.$.t.-.t.-.5.$.t.t.d.d.-.t.-.5.-.t.d.d.-.d.-.t.t.t.-.5.d.t.-.5.d.7 H 7 Q V.~.~.~.",
"D.~.~.~.Q 7 b 7 d.t.$.d.-.t.-.d.-.t.-.d.-.t.$.5.5.-.d.d.t.$.t.t.-.t.$.5.d.t.$.d.-.t.$.5.-.d.-.t.-.d.$.t.-.d.$.t.* H 7 Q H.V.~.~.",
"~.~.~.V.Q 7 H 7 -.d.-.5.5.$.t.-.d.$.t.d.5.$.t.-...b.<.h.t.x.| x.d.-.t.-.d.$.t.d.x...r.w.h.-.x...-.t.$.5.-.t.$.5.7 H k ^ ~.V.~.~.",
"~.~.~.H.Q k H 7 t.-.d.-.-.d.d.t.-.5.-.t.-.d.d.t.t.t.t.h.<.#.<.#.$.5.d.t.-.5.-.t.-.<.<.<.<.t.-.k.d.d.t.-.d.d.t.-.7 H 7 Q ~.~.~.~.",
"~.H.~.V.Q 7 H 7 t.d.] d.t.-.5.-.t.d.d.-.t.-.5.-...9.M.-.n.[ #.r.t.-.d.$.t.d.d.-.x.#.{ n.-.m.9.-.-.5.-.d.-.5.-.d.7 7 7 Q V.~.~.~.",
"~.~.~.H.Q * H 7 -.t.$.t.d.t.$.d.-.t.$.5.d.t.$.d.n.9.-.n.-.n.<.w.d.t.-.5.-.t.$.5.-.<.x.t.n.-.9.d.t.$.t.d.t.$.t.d.5 H 7 Q H.~.~.~.",
"~.~.~.V.H k H 7 d.-.t.-.d.-.t.-.d.-.t.-.d.-.t.-.* 7 H X x... .h.5.-.t.d.d.$.t.d.t.<.-.n.X Z 7 * d.d.-.5.d.] d.t.7 H k Q V.~.~.~.",
"D.~.~.H.Q 7 H 7 $.5.d.t.$.5.d.t.$.5.d.t.$.5.d.t.J 7 $ H t.M.w. .$.d.-.t.-.5.-.t.<.h.n.t.Z $ 7 J t.-.t.$.-.t.t.$.7 H 7 Q H.~.~.~.",
"~.~.~.H.Q 7 H 7 t.-.d.$.t.-.d.$.t.-.d.$.t.-.d.$.7 Q 7 * 9.x.t.M.t.d.5.$.t.d.d.-.x.t.9.x.* 7 Q 7 $.5.d.t.] d.-.-.7 H 7 Q ~.V.~.~.",
"~.~.~.V.Q k H * d.t.-.5.d.t.-.5.d.t.-.5.d.t.-.5.^ k H * n...h...-.t.-.d.-.t.$.5.-.h...n.$ J k / t.-.d.-.d.-.5.-.7 H 7 k V.~.~.~.",
"H H 7 J &X6X&X;X#X7X=X=Xd.d.-.t.-.t.$.5.-.t.$.5.^ k H * d.4.<.<.d.$.k.-.k.4.t.h.<.-.4.t.7 H k Q h.-.d.-.-.5.$.t.;X&X7X#XH 7 H H ",
"Q * f H ;X4X4X&X7X#X=X8X$.-.d.-.d.d.t.-.d.d.t.-.k b 7 9 9.x.h.x.h.t.-.h.-.t.t.-.x.h.9.9.9 w H k -.d.-.5.d.-.t.d.&XtX7X#XH * . Q ",
"H + $ H #XtX1XeX=X=X6X8Xd.] h.h.-.5.-.d.-.5.-.d.H 1 = 5 n.9.t.<.h.h.h.h.h.h.h.h.<.t.9.k.5 = w b d.t.d.] d.t.-.d.6X4XeX#XH $ f Q ",
"Q k f Q OX#X#X&X#X=X=XoXB.t.w.<.t.$.t.d.t.$.t.d.7 w 5 + 9.k.d.t.t.$.t.d.d.-.d.-.d.d.k.9.+ 2 9 w t.$.t.d.t.$.5.-.&X;X#X+XH f k H ",
"~.~.K.V.H H Q H t.d.d.B.' t.t.t.d.d.-.5.d.] d.t.h.9.k.9.9X1X=X8XZ H H H H H 7 Z 6X;X1X9X9.d.9.d.-.d.d.t.-.d.d.t.H H H Q ~.K.K.}.",
"K.~..XK.k * f 7 t.-.] -.d.h.-.-.t.-.t.$.-.d.t.$.4.9.9.k.1X:X:X2Xk 7 k 7 k k 7 Q 1X;X;X1X4.9.9.4.5.-.t.$.5.-.t.$.7 g 5 k ~.K.~.}.",
"K.}.~.V.k f * H -.t.t.t.h.-.h.h.$.5.d.t.d.-.t.$.-.h.t.t.;X:X#X;Xk k 7 Q k k k k wX&X;X=Xt.t.h.-.$.t.-.5.$.t.-.5.H . f k ~.~.~.K.",
"K.K..XK.Q H Q Q t.-.h.<.h.-.t. .t.-.d.-.-.t.d.-.<.x.<.d.1X7X;X4X7 H 7 H 7 H 7 H 4X;X4X8Xd.<.x.#.t.d.d.-.t.d.d.-.H H Q ^ K.}.K.K.",
"Q J 7 J &X;X&X=X#X6X=X;Xt.-.-.<...M.<.t.t.x.#.x.h.-.d.d.7X1X7X#X6X7X7X7X6XeX7X7X4XwX4X1Xd.<.x.<.4.k.$.h.t.4.h.k.&X&X7X;XJ 7 H H ",
"Q * f H #X4X4X&X7X=X=X=Xd.d.t. .h.w.t.-.<.#.<.-.-.t.d.$.8X;X#X7XeX6X7X7XeX6X7X7XwX+X:X;Xt.5.h.-.w.t.h.-.h.t.-.t.&X4X7X#XQ * * Q ",
"Q f * H 7XeX4X;X7X7X9X8Xd.-.d.d...9.M.-.g.[ #.x.t.k.-.t.8X6X1X8X6X6X6X6X6X6X6X6X2X:X:X1X4.9.x.4.w.h.t.h.h.h.h.h.6X4X6X#XH * f Q ",
"H k 7 Q +X#X;X&XeXeX6XoXB.t.d.d.n.9.t.x.<.x.<.t.-.-.-.B.oX=X;X6X8X6X6X6X8X8X8X6X8X;X1X9X9.z.x.t.-.-.d.-.d.-.$.-.&X;X#X+XH f k H ",
"K.V.C.V.Q H H J 7 H 7 _ @ b 5 5 $ * Z X n.-.-.t.t.h.t.' B.d.d.d.-.d.$.d.t.d.$.d.t.d.k.9.+ 5 9 w Q 7 Z Z 7 H 7 Z H H H Q ~.K.K.}.",
".X~.}.~.k * f 7 Q H 5 7 Z Z 7 H J 7 $ H d.m.t.<.-.-.h.d.t.] ] d.t.d.k.t.t.d.k.t.<.t.9.k.2 = g H k Q H k H k H k 7 g 5 k ~.K.~.}.",
"K.}.~.~.k f * H * 7 Z 7 k 7 k 7 7 J k * 9.x. .b.h.h.-.h.-.k.-.-.-.t.w.-.-.t.w.-.x.h.x.0.9 w b Q Q k k k H k k k H . f k ~.~.~.K.",
"K.K.K.}.Q H k H Q k Q k H 7 Q k ^ k Q * z.#.h.|  .t.-.h.t.t.-.t.t.<.<.w.t.<.<.w.#.-.4.d.7 b k Q 7 7 H 7 7 7 H 7 H H Q ^ K.}.K.K.",
"}.~.K.~.K.~.~.~.H H Q Q K.K.K.'.H k 7 7 -.h.t.<.t.d.-.d.d.t.-.5.d.t.-.d.d.t.-.d.<.t.h.d.H Q 7 7 ~.~.~.~.~.~.~.~.~.~.~.~.~.~.~.~.",
"~.}.K.~.~.~.D.~.H . f k ~.~.'.K.7 k H H t.h.-.d.d.-.d.-.t.$.d.-.t.$.5.-.t.$.5.-.k.t.h.$.7 7 Q H ~.~.~.~.~.~.~.~.~.~.~.~.~.~.~.~.",
"}.}.V.K.~.}.H.~.7 f * k K.}.~.K.H k k Z $.h.h.h.d.] ] d.-.5.d.t.-.d.d.t.-.d.d.t.h.-.h.-.Z 7 Q 7 ~.~.~.~.~.~.~.~.~.~.~.~.~.~.~.~.",
"~.K.}.Z.V.~.H.~.J H H H K.K.~.}.7 Q 7 H t.h.t.4.t.d.-.t.d.-.t.$.5.-.t.$.5.-.t.$.4.t.h.-.Z Q k 7 ~.~.~.~.~.~.~.~.~.~.~.~.~.~.~.~.",
"K.~.~.~.+ Q k Q %X#X#XOX_ f k H 7 7 H 7 t.h.h.t.$.t.-.5.$.t.-.5.$.t.-.d.d.t.-.5.t.t.w.<.7 H k H ~.~.~.~.~.~.~.~.~.~.~.~.~.~.~.~.",
"~.~.K.~.Q J Q Q ;X4XeX#XH 5 f Q H k k H -.h.-.4.t.d.d.-.t.d.d.-.t.d.5.-.t.$.d.-.k.-.h.t.H 7 k 7 ~.~.~.~.~.~.~.~.~.~.~.~.~.~.~.~.",
"~.D.F.H.k Q + * &X4X4X#XQ f . Q 7 k k H d.h.t.h.-.5.$.t.-.5.$.t.-.d.$.t.-.5.-.t.h.-.h.<.H k k H ~.~.~.~.~.~.~.~.~.~.~.~.~.~.~.~.",
"~.~.~.~.Q ^ f ^ =X&X6X&XJ * H H H k k Q -.h.t.d.d.-.t.d.d.-.t.d.5.-.t.d.d.-.d.t.4.t.h.d.H k k 7 ~.~.~.~.~.~.~.~.~.~.~.~.~.~.~.~.",
"~.~.~.~.~.~.~.~.H H * H wX#X&X;X{ w...d.7 J 7 ^ <.-.d.d.5 7 k H k k 7 b h.d. .<.7 H 7 Q ~.~.~.D.~.~.~.~.~.~.~.~.~.~.~.~.~.~.~.~.",
"~.~.~.~.~.~.~.~.H . f H +X3X4X&Xw. .r.x.= 7 k f  .h.d.k.5 H 7 S Q 7 5 5 d.d.h. .7 H 7 Q K.V.~.~.~.~.~.~.~.~.~.~.~.~.~.~.~.~.~.~.",
"~.~.~.~.~.~.~.~.H f 5 H #XeX4X6X..9.n.5.Z . 7 H t.h. .t.5 Z 7 7 H 7 Z b $.-.d.h.7 H k Q K.}.'.~.~.~.~.~.~.~.~.~.~.~.~.~.~.~.~.~.",
"~.~.~.~.~.~.~.~.k k f Q +X#X;X&Xn.9.5.0.* ^ Q 7 k.d.t.B.$ Z 7 Q k k H $ B.d.t.k.7 H 7 Q K.K.~.~.~.~.~.~.~.~.~.~.~.~.~.~.~.~.~.~.",
"~.~.~.~.~.~.~.~.K.V.C.V.Q H H J $ * H * H * Q k ;X6X6XoXS 7 7 k H 7 7 _ oX6X8X=X7 H 7 Q ~.~.~.D.~.~.~.~.~.~.~.~.~.~.~.~.~.~.~.~.",
"~.~.~.~.~.~.~.~.K.~..X~.k * f 7 H f . J * ` J f ;X1XeX6XH 7 Z Q Q 7 5 H eXeX#X=X* H 7 Q V.~.~.~.~.~.~.~.~.~.~.~.~.~.~.~.~.~.~.~.",
"~.~.~.~.~.~.~.'.}.}.~.~.k + * H k Q k Q Q ^ H H 6X;X6XeX7 H 7 7 k 7 k 7 ;X#X=X6X7 H k k H.~.~.~.~.~.~.~.~.~.~.~.~.~.~.~.~.~.~.~.",
"~.~.~.~.~.~.~.}.K.H.K.'.Q H Q H ^ f H k k f Q * #XeX#X7XH H 7 k H 7 Q H 6X#XeX=X7 H 7 H V.~.~.~.~.~.~.~.~.~.~.~.~.~.~.~.~.~.~.~."
};
