/* XPM */
static char *_9af1111ddc94d6debf6298845782905io2eHufPJoJwazBx[] = {
/* columns rows colors chars-per-pixel */
"64 64 218 2 ",
"   c #2400BF",
".  c #2602BE",
"X  c #2204BC",
"o  c #2903BB",
"O  c #2B02BE",
"+  c #2804BE",
"@  c #2000C2",
"#  c #2500C0",
"$  c #2401C0",
"%  c #2601C0",
"&  c #2601C1",
"*  c #2502C1",
"=  c #2603C1",
"-  c #2400C2",
";  c #2500C2",
":  c #2501C3",
">  c #2700C2",
",  c #2601C3",
"<  c #2707C0",
"1  c #2704C3",
"2  c #2100C5",
"3  c #2300C4",
"4  c #2201C4",
"5  c #2301C7",
"6  c #2500C4",
"7  c #2700C4",
"8  c #2600C5",
"9  c #2403C4",
"0  c #2602C4",
"q  c #2702C4",
"w  c #2703C5",
"e  c #2500C6",
"r  c #2400C7",
"t  c #2501C7",
"y  c #2700C6",
"u  c #2701C6",
"i  c #2600C7",
"p  c #2800C1",
"a  c #2901C2",
"s  c #2800C3",
"d  c #2803C2",
"f  c #2803C3",
"g  c #2A03C2",
"h  c #2901C4",
"j  c #2800C5",
"k  c #2900C5",
"l  c #2A02C5",
"z  c #2900C6",
"x  c #2800C7",
"c  c #2A01C7",
"v  c #2802C7",
"b  c #2200C9",
"n  c #2300C9",
"m  c #2301C9",
"M  c #2400C8",
"N  c #2500C9",
"B  c #2701C8",
"V  c #2600C9",
"C  c #2700C9",
"Z  c #2503C9",
"A  c #2602C8",
"S  c #2703C9",
"D  c #2500CB",
"F  c #2600CA",
"G  c #2700CB",
"H  c #2601CB",
"J  c #2600CC",
"K  c #2700CD",
"L  c #2702CC",
"P  c #2500CE",
"I  c #2700CF",
"U  c #2900C8",
"Y  c #2800C9",
"T  c #2A01C9",
"R  c #2903C8",
"E  c #2802C9",
"W  c #2800CA",
"Q  c #2900CA",
"!  c #2900CB",
"~  c #2802CB",
"^  c #2801CC",
"/  c #2B00CC",
"(  c #2A00CE",
")  c #2902CF",
"_  c #2A06CC",
"`  c #2800D3",
"'  c #ADACBA",
"]  c #B0AFBD",
"[  c #ADB0B7",
"{  c #AFB2B9",
"}  c #ADB1BA",
"|  c #AFB2BB",
" . c #AFB1BE",
".. c #B3B2B8",
"X. c #B1B1BB",
"o. c #B2B2BA",
"O. c #B3B2BA",
"+. c #B3B3BB",
"@. c #B1B4BB",
"#. c #B0B5BB",
"$. c #B3B1BC",
"%. c #B0B3BC",
"&. c #B1B0BE",
"*. c #B2B1BF",
"=. c #B3B1BF",
"-. c #B0B2BE",
";. c #B0B2BF",
":. c #B1B3BF",
">. c #B2B2BE",
",. c #B3B3BF",
"<. c #B1B4BD",
"1. c #B0B4BF",
"2. c #B2B5BE",
"3. c #B4B4BC",
"4. c #B6B5BD",
"5. c #B3AFC0",
"6. c #B1ADC4",
"7. c #B1AFC4",
"8. c #B1AFC5",
"9. c #B3AFC6",
"0. c #B6ADCA",
"q. c #AFB1C0",
"w. c #AFB2C1",
"e. c #AFB0C4",
"r. c #AFB1C6",
"t. c #B1B0C0",
"y. c #B1B3C0",
"u. c #B0B2C1",
"i. c #B3B2C0",
"p. c #B1B0C2",
"a. c #B3B0C3",
"s. c #B1B3C2",
"d. c #B4B2C0",
"f. c #B4B1C2",
"g. c #B5B2C3",
"h. c #B0B4C0",
"j. c #B2B4C1",
"k. c #B4B4C0",
"l. c #B7B5C0",
"z. c #B6B4C2",
"x. c #B0B1C5",
"c. c #B3B2C4",
"v. c #B1B2C6",
"b. c #B1B2C7",
"n. c #B4B1C4",
"m. c #B4B0C7",
"M. c #B4B2C7",
"N. c #B8B7C5",
"B. c #BBB7C6",
"V. c #BFA7FF",
"C. c #BFACFE",
"Z. c #C3AEF3",
"A. c #C2ACF7",
"S. c #C0A6FF",
"D. c #C1A7FF",
"F. c #C2AAF8",
"G. c #C1AAFA",
"H. c #C2ABFB",
"J. c #C1A9FD",
"K. c #C0AAFC",
"L. c #C1AAFC",
"P. c #C0AAFD",
"I. c #C3AAFD",
"U. c #C2ABFD",
"Y. c #C1A8FF",
"T. c #C1A9FF",
"R. c #C2A8FF",
"E. c #C3A9FF",
"W. c #C1ABFE",
"Q. c #C0AAFF",
"!. c #C2AAFE",
"~. c #C3AAFE",
"^. c #C2AAFF",
"/. c #C3AAFF",
"(. c #C3ABFF",
"). c #C5A9FE",
"_. c #C5A8FF",
"`. c #C4A9FF",
"'. c #C4ABFE",
"]. c #C3ACFC",
"[. c #C3ACFE",
"{. c #C5AEFC",
"}. c #C4ACFF",
"|. c #C5AEFE",
" X c #C8ABFD",
".X c #C6B0F8",
"XX c #E5E3F1",
"oX c #E7E3F2",
"OX c #EEE6F1",
"+X c #EDE7F3",
"@X c #EDE7F5",
"#X c #EFE6F7",
"$X c #EEE7F7",
"%X c #EFEAF1",
"&X c #EFE9F3",
"*X c #EDEAF3",
"=X c #EBE9F7",
"-X c #ECEAF5",
";X c #EDEAF5",
":X c #EEEBF4",
">X c #ECE8F6",
",X c #ECE8F7",
"<X c #ECEAF7",
"1X c #E8E5F8",
"2X c #EBE6FC",
"3X c #EDE5FD",
"4X c #EEE6FE",
"5X c #EBE8F9",
"6X c #EDE9F8",
"7X c #EFE8F8",
"8X c #ECEAF8",
"9X c #EDEBF8",
"0X c #EEEAF8",
"qX c #EFEBFA",
"wX c #F0EAF6",
"eX c #F0E9F9",
"rX c #F1EAFC",
"tX c #F0E8FF",
/* pixels */
"~.~.~.~.~.~.~.~.~.~.~.C.~.D.~.~.G G m L C.].H.C.~.~.~.~.~.~.~.~.~.~.~.C.~.D.~.~.T G m P C.].H.C.~.~.~.~.~.~.~.~.~.~.~.~.~.~.~.~.",
"~.~.~.~.~.~.~.~.~.[.[.~.~.C.D._.T g $ 8 _._.~.H.~.~.~.~.~.~.~.~.C.~.[.~.~.C.D.~.T g $ 8 _._.~.~.~.~.~.~.~.~.~.~.~.~.~.~.~.~.~.~.",
"~.~.~.~.~.~.~.~.~.~.V.H.~.[.A.~.s g 8 l _.]._.].~.~.~.~.~.~.~.~.~.~.V.H.~.{.A.~.z g 8 l _.]._.].~.~.~.~.~.~.~.~.~.~.~.~.~.~.~.~.",
"~.~.~.~.~.~.~.~.C.~.H.Z.V.~.H.~.P G m 8 [._._.~.~.~.~.~.~.~.~.~.H.~.~.Z.V.D.~.~.P m Z 8 [._._.H.~.~.~.~.~.~.~.~.~.~.~.~.~.~.~.~.",
"~.~.~.~.~.~.~.~.~.~.~.D.O T z G %.=.&.,.5 z 8 G ~.~.~.~.~.~.~.~.~.~.~.D.O T z G %.=.&.,.5 l , P ~.~.~.~.~.~.~.~.~.~.~.~.~.~.~.~.",
"~.~.~.~.~.~.~.~.~.D.].C.T P T T i.r.q. .m 8 1 m ~.~.~.~.~.~.~.~.~.D.].C.T P T T i.r.q. .m 8 , m ~.~.~.~.~.~.~.~.~.~.~.~.~.~.~.~.",
"~.~.~.~.~.~.~.~.~.D.H.H.z T . , +.i.b.,.5 g w P ~.~.~.~.~.~.~.~.~.D.H.H.z T . , +.5.b.,.m g w G ~.~.~.~.~.~.~.~.~.~.~.~.~.~.~.~.",
"~.~.~.~.~.~.~.~.~.~.~.~.T T , P +.+.&.+.P z T T ~.~.~.~.~.~.~.~.~.~.~.~.T T , P +.+.&.+.P z T T ~.~.~.~.~.~.~.~.~.~.~.~.~.~.~.~.",
"~.~.~.~.~.~.~.~.H.D.H.~.8 8 . G $XeX,X6X&.&.q.&.T G m L H.~.H.C.H._.H.~.T 8 . G 6X7X6X6X&.i.&.q.G G m G C.~.H.C.~.~.~.~.~.~.~.~.",
"~.~.~.~.~.~.~.~._.D.~.~.G P z 8 eX$X6X6X=.i.<.w.G 1 , 8 ~._.D.H.D.D.~.C.T P w 8 6X7X6X6Xi.&.i. .T 1 1 z D._.~.H.~.~.~.~.~.~.~.~.",
"~.~.~.~.~.~.~.~.H.~.A.C.z m 1 G $XeX6X8X=.i.<. .z g 8 l _._._.[.C.~.A.~.l m , 8 6XeX6X6X&.i.q.<.8 s 8 z _. X_.~.~.~.~.~.~.~.~.~.",
"~.~.~.~.~.~.~.~.H.C.~.V.o 8 , 8 eX6X6X8X=.&.i.q.P 5 m 8 ]._.~.C.H.~.C.C.o z , G 7X6X6X8Xi.i.<.w.P 8 m 8 ]._.~.C.~.~.~.~.~.~.~.~.",
"~.~.~.~.~.~.~.~.G T l o ` G , S 7X7X6X6X&.i. .w...,.&.,.G l , G 8 T z o ` G , z 7X7X6X8X&.&.q.&...,.&.4.5 z s G ~.~.~.~.~.~.~.~.",
"~.~.~.~.~.~.~.~.G P G 8 G R , G 7X7X6X6Xi.i.<. .&.b.i.<.m 8 , m G P m 8 G R , G 7X7X6X6X=.i.<.w.&.b.w. .m 8 1 5 ~.~.~.~.~.~.~.~.",
"~.~.~.~.~.~.~.~.. 1 , , , $ , T 7X7X6X<X&.i.q.i.&.i.r.j.8 s 1 P . , s 1 , $ 8 G 7X7X6X6X=.i.<. .+.b.r.k.G s , G ~.~.~.~.~.~.~.~.",
"~.~.~.~.~.~.~.~.G 8 8 G G G T T 7X6X6X<Xg.&.<.&.+.+.&.%.P z T T G 8 8 G S G T T 7X7X6X6X=.&.i.q.+.+.&.@.P z T T ~.~.~.~.~.~.~.~.",
"~.H.~.~.G 8 G , &.i.&.i.&.i.&.i.&.i.&.i.&.i.&.i.i.&.i.&.i.&.i.&.i.&.i.&.i.&.i.&.i.&.i.&.i.&.i.&.&.&.=.&.i.&.i.&.8 G 8 T ~.C.~.D.",
"~.~.D.H.T 8 G 8 i.&.i.&.i.&.i.&.i.&.i.&.i.&.i.&.&.i.&.i.&.i.&.i.&.i.&.i.&.i.&.i.&.i.&.i.&.i.&.i.&.=.&.g.&.i.&.i.8 G 8 T ~.~.~.~.",
"~.~.~.J.T z 8 8 &.i.&.i.&.i.&.i.&.i.&.i.&.i.&.i.i.&.i.&.i.&.i.&.i.&.i.&.i.&.i.&.i.&.i.&.i.&.i.&.=.&.&.<.i.&.i.&.8 8 8 T ~.~.~.~.",
"~.~.~.C.T 8 G 8 i.&.i.&.i.&.i.&.i.&.i.&.i.&.i.&.&.i.&.i.&.i.&.i.&.i.&.i.&.i.&.i.&.i.&.i.&.i.&.i.&.&.&.g.&.i.&.i.8 G z T C.~._.D.",
"~.D.~.J.G z G , &.i.&.i.&.i.&.i.&.i.&.i.&.i.&.i.i.&.i.&.i.&.i.&.i.&.i.&.i.&.i.&.i.&.i.&.i.&.i.&.k.&.i.&.i.&.i.&.8 G 8 T H.~.H.D.",
"D.H.~.C.T 8 G 8 i.&.i.&.i.&.i.&.i.&.i.&.i.&.i.&.&.i.&.i.&.i.&.i.&.i.&.i.&.i.&.i.&.i.&.i.&.i.&.i.&.i.&.i.&.i.&.i.8 G z T C.~._.D.",
"_.~.C.~.T 8 8 8 &.i.&.i.&.i.&.i.&.i.&.i.&.i.&.i.i.&.i.&.i.&.i.&.i.&.i.&.i.&.i.&.i.&.i.&.i.&.i.&.i.&.i.&.i.&.i.&.8 G 8 T C.~.H._.",
"~.H.~.~.T 8 G 8 i.&.i.&.i.&.i.&.i.&.i.&.i.&.i.&.&.i.&.i.&.i.&.i.&.i.&.i.&.i.&.i.&.i.&.i.&.i.&.i.&.i.&.i.&.i.&.i.8 8 8 T H.~.~.~.",
"~.~.~.H.T 8 G 8 &.i.&.i.&.i.&.i.{ b.<.j.q.r.{ M.&.&.i.&.i.&.i.&.b. .b.&.<. .M.| i.&.i.&.i.&.i.&.i.&.i.&.i.&.i.&.8 G z T ~.~.~.D.",
"D._.~.~.T z G , &.&.i.&.i.&.i.&.j. .w.&.<.@.<.&.<.i.&.i.&.i.&.i.{ <.<.<.i.q. .j.&.i.&.i.&.i.&.i.&.i.&.i.&.i.&.i.8 m 8 T C.~.~.~.",
"~.D.C.~.T 8 G 8 &.i.&.i.&.i.&.i.%.7.M.%.c.{ | r.i.&.i.&.i.&.i.&.r.@.[ k.%.n.r.@.i.&.i.&.i.&.i.&.i.&.i.&.i.&.i.&.8 8 8 T ~.~.~.~.",
"D.H.~.C.T 8 m 8 i.&.i.&.i.&.i.&.g.9.=.b.&.j.<.q.&.i.&.i.&.i.&.i.q.<.b.&.9.=.b.g.&.i.&.i.&.i.&.i.&.i.&.i.&.i.&.i.8 G 8 T C.~.~.D.",
"_.~.~.C.T 8 8 8 &.i.&.i.&.i.&.i., , G X b.%. .i.i.&.i.&.i.&.i.&.i.&.%.9.X G $ $ i.&.i.&.i.&.i.&.i.&.i.&.i.&.i.&., G 8 T H.~.H.D.",
"_.H.~.D.T 8 G 8 i.&.i.&.i.&.i.&.G s X G =.b.i.%.&.i.&.i.&.i.&.i. .i.n.=.G . , P &.i.&.i.&.i.&.i.&.i.&.i.&.i.&.i.8 G z T C.D.~._.",
"~.~.~.H.T z G 8 &.i.&.i.&.i.&.i., T 8 8 9.5.&.b.i.&.i.&.i.&.i.&.b. .b.9., 8 T 8 i.&.i.&.i.&.i.&.i.&.i.&.i.&.i. .8 G 8 T ~.~.~.~.",
"~.~.~.C.T 8 G , i.&.i.&.i.&.i.&./ s G $ g.%.j.%.&.i.&.i.&.i.&.i.| j.%.n.$ G z T &.i.&.i.&.i.&.i.&.i.&.i.&.i.&.i.8 8 , T C.~.~.~.",
"G G 8 G ,XeX*X,Xi.&.i.&.i.&.i.&.T z G , g.,. .@.<.j.k.<.k.<.<.j.| <.,.g.z m z T &.i.&.i.&.i.&.i.j.&.g.&.,X,X$X,X,X&X$XwXG , G 8 ",
"G . 1 G $X,XtX&X&.i.&.i.&.i.&.i.T 5 1 5 5.b.j.r.i. .i. .i.q.i.<.q.j.7.n.1 w m T i.&.i.&.i.&.i.&. .&.&.=.<X<X$X,X&XtX4X$XG s . G ",
"8 s 8 G #XeX4X,Xi.&.i.&.i.&.i.&.m 8 1 2 k.7.q.<.w.w.j.j.w.w.j. .<.&.b.n.@ 1 8 G &.i.&.i.&.i.&.i.j.j.&.,.,X6X,X,X,X,XtX#XG $ s T ",
"G z s T OX#X&X*X&.i.&.i.&.i.&.i.1 w 5 g 7.l.i.i.<.&.&.i.<.&.j.&.j.g.,.5.+ 5 9 , i.&.i.&.i.&.i.&.i.<.&.N.XX<X<X<XwX&X#XOXP , z G ",
"[.C.~.C.G G G G i.&.i.&.i.&.i.&.i.7.c.9.:X1X<X8XG S S 8 G G w 8 8X<X1X9Xr.l.9.g.&.i.&.i.<.&.&.&.i.w.&.' N.i.i.g.G G G G ~.[.C.[.",
"[.~.].C.z $ 1 8 &.i.&.i.&.i.&.i.<.7.7.l.1X*X:X2Xz z 8 G 8 T 8 G 2X:X:X1X,.b.7.+.i.&.i.&.g.&.g.&. . .j.&.&.&.&.i.8 1 $ z [.[.C.[.",
"H.~.D.~.z s . G i.&.i.&.i.&.i.&.&.<.i.g.<X&X,X:Xz z z z z z z z ,X&X,X:Xk.&.i.i.&.i.&.k.&.&.<.g.<.q. .j.i.j.&. .G . s z C.D.~.H.",
"~.~.[.[.T G G G &.i.&.i.&.i.&.i.<.b.<.&.8X4XwX4X8 8 G 8 8 8 G 8 4XwX2X8Xi.<.r.| i.&.i.&.=.&.&.&. .j. .j. .j. .j.G G T G ~.~.H.~.",
"G m 8 G &X7X,X,Xj.,.,.j.<.g.<.k.@.r.<.i.8X,XeX4X,XeXwX7X7X7X7X7X$XwX,X,X&.g.&.<.b.| M. .i. .r.| j.&.<.,.,X,X,X,X<X&X7X#XG 8 G G ",
"G . 1 G ,X,XtX&X .<.&.<. .&. . . .j.5.g.<X,XOXwXeX6X7X7X7X7X7X6X,X#X,X6Xi.&.&.&. .<.#. .i.i.q.j. .<.g.,.,X,X,XeX*X4X,X$XT , . G ",
"G s $ G #XeX,X7Xj.w.w.w.j.j.w.j.+.7.5.l.,X,X:X2X6X6X6X6X6X6X6X6X,X,X6X6Xk.&.j.j.b.<.[ j.%.n.b.@.&.j.&.=.,XrX6X$X,X,XtX#XG 8 s G ",
"G z , T OX$X$XwXi.&.<.i.&.<.&.j.g.b.k.7.8X1X<X8X6X9X9X,X6X6X8X8X,X<X8XXXN.&. .q. .<.n.<.9.=.7.n.=.g.,.B.oX,XeX6XwX&X$XOXG s z 8 ",
"~.C.C.C.T G P G S G w w w G S G 1 9 2 + 6.k.g.=.&.&.g.&.=.=.=.=.i.&.=.N.' &.i.w.j. .%.9.X G , $ 8 5 5 @ R S G 8 P G G T C.[.C.[.",
"~.~._.~.z $ g 8 z 8 8 G G z 8 8 m w 1 5 k.7.i.<.i.i.<.g.k.&.g.j.i.i. .&.i.j. . .<.q.n.=.G . 8 T 8 Z w G G 8 8 S 8 1 $ s [.[.~.[.",
"[.~.~.C.s , . G z z z 8 z z z z z m w 9 7.i.j.r. .j. .j.&. .q. .] i.j.j.j. .j.<.b. .b.9.$ , T 8 w z 5 8 8 8 8 , G . s z C.D.~.H.",
"~.H.[.~.T G G G G 8 8 G 8 8 8 G T z G 8 n.,. .@. .j. . . .j. .i.i. .q. .&. .j. .{ j.%.g.$ P 8 / G T 8 z T T 8 8 G G T G ~.~.C.~.",
"~.~.~.~.~.~.~.~.~.~.~.~.~.~.~.~.8 z T G &.w.j.<.i.&.i.&.i.&.i.&.i.&.i.&.i.&.i.&.j. .j.&.S 8 z 8 [.H.[.[.G T G 8 ~.~.D.~.~.~.C.~.",
"~.~.~.~.~.~.~.~.~.~.~.~.~.~.~.~.8 z 8 S <.2.&.k.&.i.&.i.&.i.&.i.&.i.&.i.&.i.&.i.,.<.w.j.G G z 8 H.~.~.C.z s . G ~.C.C.~.~.~.~.C.",
"~.~.~.~.~.~.~.~.~.~.~.~.~.~.~.~.G z 8 G i.w. .<.i.&.i.&.i.&.i.&.i.&.i.&.i.&.i.&.,.<.h.<.w 8 z G ~.V.[.~.s , , , ~.A.{.~.[.V.~.~.",
"~.~.~.~.~.~.~.~.~.~.~.~.~.~.~.~.8 z 8 S i.w.<.j.&.i.&.i.&.i.&.i.&.i.&.i.&.i.&.i.&.i. .&.G T z 8 [.C.~.C.G G G G ~.~.D.D.Z.H.~.~.",
"~.~.~.~.~.~.~.~.~.~.~.~.~.~.~.~.8 z G w <. .&.i.i.&.i.&.i.&.i.&.i.&.i.&.i.&.i.&.j. .j.&.S 8 z 8 G z , T OX,X$X&XG z T O V.~.~.[.",
"~.~.~.~.~.~.~.~.~.~.~.~.~.~.~.~.8 z 8 G i.j.w.k.&.i.&.i.&.i.&.i.&.i.&.i.&.i.&.i.<.i.w.i.8 z z G T s $ G #XtX4XwXT G P T ~.H.D.~.",
"~.~.~.~.~.~.~.~.~.~.~.~.~.~.~.~.G z 8 w i.w. .<.i.&.i.&.i.&.i.&.i.&.i.&.i.&.i.&.<.w.w.<.w G 8 G G X s G $X,XtX&X, . T T H.A.V.~.",
"~.~.~.~.~.~.~.~.~.~.~.~.~.~.~.~.8 z T G <.w.j.&.&.i.&.i.&.i.&.i.&.i.&.i.&.i.&.i.k.<.j.&.G 8 z 8 G G 8 G wX,X&X,XT , T G ~.~.~.~.",
"~.~.~.~.~.~.~.~.~.~.~.~.~.~.~.~.~.~.~.D.T 8 8 8 j.&.=.g.m w 8 8 z 8 8 5 <.k.&. ./ 8 P $ b.%.j.{ ,X&X#XwXG 8 G G ~.~.~.~.~.~.~.~.",
"~.~.~.~.~.~.~.~.~.~.~.~.~.~.~.~.~.~.~.C.T z G 8  .<.,.,.5 G 8 T T 8 5 5 g.&.j.<., z s 1 g.5. .i.&XtX,X,XG s X G ~.~.~.~.~.~.~.~.",
"~.~.~.~.~.~.~.~.~.~.~.~.~.~.~.~.D.~.D.H.T z 8 8 <.i.&.&.5 S 8 8 T 8 S 5 =.&.j.&.G z X w 5.9.i.&.,X4XtX#XG $ s T ~.~.~.~.~.~.~.~.",
"~.~.~.~.~.~.~.~.~.~.~.~.~.~.~.~.~.~.~.H.G 8 G 8 j.i.,.N.@ G 8 T T 8 G @ B.=.j.j.z z P 9 0.5.7.n.%X,X,XOXT , z G ~.~.~.~.~.~.~.~.",
"~.~.~.~.~.~.~.~.~.~.~.~.~.~.~.~._.~.~.C.T z G 8 ,X<X<XoX_ 8 8 T G 8 8 _ oX6X6X<Xz T , G , 8 , 5 T T G G C.~.C.[.~.~.~.~.~.~.~.~.",
"~.~.~.~.~.~.~.~.~.~.~.~.~.~.~.~.D.~.~.H.T , G 8 ,X,XeX,XS 8 8 R R 8 8 G wX6X,X<Xs P / 8 / X g P 8 , 5 s [.].D.~.~.~.~.~.~.~.~.~.",
"~.~.~.~.~.~.~.~.~.~.~.~.~.~.~.~.~.~.~.~.G 8 8 8 ,X$X,XeX8 G 8 8 8 8 G 8 eX$X,X6XG G P T 8 8 8 8 G . s z C.V.~.H.~.~.~.~.~.~.~.~.",
"~.~.~.~.~.~.~.~.~.~.~.~.~.~.~.~.D.~.C.H.T z G 8 ,XeX$XeX8 G 8 T z 8 T 8 $X$X6X$X, T s T 8 T O P G T G T [.[.~.~.~.~.~.~.~.~.~.~."
};
