/* XPM */
static char *_916e6ed9ad547fa9f5d96760ae61b7fYSCDDWRURv1DWfvC[] = {
/* columns rows colors chars-per-pixel */
"64 64 174 2 ",
"   c #2400BF",
".  c #2204BC",
"X  c #2B02BE",
"o  c #2804BE",
"O  c #2000C2",
"+  c #2500C0",
"@  c #2401C0",
"#  c #2601C0",
"$  c #2601C1",
"%  c #2502C1",
"&  c #2603C1",
"*  c #2400C2",
"=  c #2501C3",
"-  c #2601C3",
";  c #2300C4",
":  c #2201C4",
">  c #2301C7",
",  c #2500C4",
"<  c #2700C4",
"1  c #2600C5",
"2  c #2702C4",
"3  c #2500C6",
"4  c #2400C7",
"5  c #2501C7",
"6  c #2700C6",
"7  c #2701C6",
"8  c #2600C7",
"9  c #2800C1",
"0  c #2901C2",
"q  c #2800C3",
"w  c #2803C2",
"e  c #2803C3",
"r  c #2A03C2",
"t  c #2901C4",
"y  c #2800C5",
"u  c #2900C5",
"i  c #2A02C5",
"p  c #2900C6",
"a  c #2800C7",
"s  c #2A01C7",
"d  c #2200C9",
"f  c #2301C9",
"g  c #2400C8",
"h  c #2701C8",
"j  c #2600C9",
"k  c #2700C9",
"l  c #2503C9",
"z  c #2602C8",
"x  c #2703C9",
"c  c #2500CB",
"v  c #2600CA",
"b  c #2700CB",
"n  c #2601CB",
"m  c #2600CC",
"M  c #2700CD",
"N  c #2702CC",
"B  c #2500CE",
"V  c #2900C8",
"C  c #2A01C9",
"Z  c #2802C9",
"A  c #2800CA",
"S  c #2900CA",
"D  c #2900CB",
"F  c #2802CB",
"G  c #2801CC",
"H  c #2B00CC",
"J  c #2A00CE",
"K  c #2902CF",
"L  c #2A06CC",
"P  c #B0AFBD",
"I  c #ADB0B7",
"U  c #AFB2B9",
"Y  c #ADB1BA",
"T  c #AFB2BB",
"R  c #AFB1BE",
"E  c #B3B2B8",
"W  c #B1B1BB",
"Q  c #B2B2BA",
"!  c #B3B2BA",
"~  c #B3B3BB",
"^  c #B1B4BB",
"/  c #B3B1BC",
"(  c #B0B3BC",
")  c #B2B1BF",
"_  c #B3B1BF",
"`  c #B0B2BE",
"'  c #B0B2BF",
"]  c #B1B3BF",
"[  c #B2B2BE",
"{  c #B3B3BF",
"}  c #B1B4BD",
"|  c #B0B4BF",
" . c #B2B5BE",
".. c #B6B5BD",
"X. c #B3AFC0",
"o. c #B1AFC5",
"O. c #B3AFC6",
"+. c #B6ADCA",
"@. c #AFB1C0",
"#. c #AFB2C1",
"$. c #AFB0C4",
"%. c #AFB1C6",
"&. c #B1B3C0",
"*. c #B0B2C1",
"=. c #B3B2C0",
"-. c #B1B0C2",
";. c #B3B0C3",
":. c #B1B3C2",
">. c #B4B2C0",
",. c #B5B2C3",
"<. c #B0B4C0",
"1. c #B2B4C1",
"2. c #B4B4C0",
"3. c #B0B1C5",
"4. c #B3B2C4",
"5. c #B1B2C6",
"6. c #B1B2C7",
"7. c #B4B1C4",
"8. c #B4B0C7",
"9. c #B4B2C7",
"0. c #BBB7C6",
"q. c #BFA7FF",
"w. c #BFACFE",
"e. c #C3AEF3",
"r. c #C2ACF7",
"t. c #C1A7FF",
"y. c #C2ABFB",
"u. c #C1A9FD",
"i. c #C0AAFC",
"p. c #C1AAFC",
"a. c #C0AAFD",
"s. c #C3AAFD",
"d. c #C2ABFD",
"f. c #C1A8FF",
"g. c #C1A9FF",
"h. c #C2A8FF",
"j. c #C3A9FF",
"k. c #C1ABFE",
"l. c #C0AAFF",
"z. c #C2AAFE",
"x. c #C3AAFE",
"c. c #C2AAFF",
"v. c #C3AAFF",
"b. c #C3ABFF",
"n. c #C5A9FE",
"m. c #C5A8FF",
"M. c #C4A9FF",
"N. c #C4ABFE",
"B. c #C3ACFC",
"V. c #C3ACFE",
"C. c #C5AEFC",
"Z. c #C4ACFF",
"A. c #C5AEFE",
"S. c #C8ABFD",
"D. c #E7E3F2",
"F. c #EEE6F1",
"G. c #EDE7F5",
"H. c #EFE6F7",
"J. c #EEE7F7",
"K. c #EFEAF1",
"L. c #EFE9F3",
"P. c #EDEAF3",
"I. c #EBE9F7",
"U. c #EDEAF5",
"Y. c #ECE8F6",
"T. c #ECE8F7",
"R. c #ECEAF7",
"E. c #EDE5FD",
"W. c #EFE8F8",
"Q. c #EEEAF8",
"!. c #EFEBFA",
"~. c #F0E9F9",
"^. c #F1EAFC",
"/. c #F0E8FF",
/* pixels */
"x.x.x.x.x.x.x.x.w.y.N.y.m d n S x.x.t.x.x.x.Z.i.Z.N.x.x.x.x.x.x.x.x.x.x.x.x.x.x.i.i.Z.x.i.x.x.x.S m d F x.x.y.q.i.Z.x.x.x.x.x.x.",
"x.x.x.x.x.x.x.x.y.t.m.N.< % e S x.q.x.x.q.x.Z.i.N.N.x.x.x.x.x.x.x.x.x.x.x.x.x.x.i.Z.Z.x.x.x.t.x.S % e u m.m.t.y.x.x.x.x.x.x.x.x.",
"x.x.x.x.x.x.x.x.N.m.N.m.u < e u x.r.Z.x.i.q.i.i.x.x.x.x.x.x.x.x.x.x.x.x.x.x.x.x.x.i.x.i.x.Z.r.x.u r < < N.S.N.Z.x.x.x.x.x.x.x.x.",
"x.x.x.x.x.x.x.x.x.x.N.N.d > n G x.y.x.x.e.Z.Z.i.x.x.x.x.x.x.x.x.x.x.x.x.x.x.x.x.x.x.i.e.q.t.r.x.m n d d N.m.N.i.x.x.x.x.x.x.x.x.",
"x.x.x.x.x.x.x.x.m < u > ..R 2.E S u S X t.x.x.N.x.x.x.x.x.x.x.x.x.x.x.x.x.x.x.x.x.x.x.q.X S u n E ..R ..> u u m x.x.x.x.x.x.x.x.",
"x.x.x.x.x.x.x.x.d % < > ` #.3.` G S m S x.Z.x.t.x.x.x.x.x.x.x.x.x.x.x.x.x.x.x.x.t.x.Z.x.S m S S &.%.&.` d < % d x.x.x.x.x.x.x.x.",
"x.x.x.x.x.x.x.x.m e r n 2.3.3.` % o S < y.r.t.x.x.x.x.x.x.x.x.x.x.x.x.x.x.x.x.x.x.t.r.x.u S r % E 3.3.2.n e e n x.x.x.x.x.x.x.x.",
"x.x.x.x.x.x.x.x.S S u G / / / / G % G n x.x.N.N.x.x.x.x.x.x.x.x.x.x.x.x.x.x.x.x.x.x.x.N.S G % m ` / ` / m u S S x.x.x.x.x.x.x.x.",
"x.x.x.x.x.x.x.x.n u u < &.<.&.` E &.E 4.< m u S t.x.x.t.x.t.x.x.x.x.t.N.x.x.x.t.G < n % 4./ 2.E ` &.&.>.< n < < x.x.x.x.x.x.x.x.",
"x.x.x.x.x.x.x.x.< u n l &.<.` >.3.` o.O.% < n < x.x.x.x.x.x.x.x.x.x.x.N.x.x.x.x.< S < % O.o.` 3.2.R &.` n < S n x.x.x.x.x.x.x.x.",
"x.x.x.x.x.x.x.x.n u n < ` <.&./ ` &.9.X.n * e n x.x.x.x.x.x.x.x.x.t.x.x.x.x.x.x.n < * n &.9.#.R / &.<.>.n u u < x.x.x.x.x.x.x.x.",
"x.x.x.x.x.x.x.x.< u u n &.#.&.2.&.` ` O.. l * * y.q.y.y.w.q.x.x.y.i.w.x.y.y.q.y.* % l . o.E ` &.&.&.<.` l < u n x.x.x.x.x.x.x.x.",
"x.x.x.x.x.x.x.x.n u n < / &.&.&.R  .&.` O.>.4.4.S G S S S S S G S S S S S S S S >.8.&.O.` 4. .R / #.<.` z u u < x.x.x.x.x.x.x.x.",
"x.x.x.x.x.x.x.x.< u u n &.&.&./ %. .T &.` 9.o.E < < u S n < u < n < S u S < n < E o.9.E 4.I  .%.2.&.&.` n < u n x.x.x.x.x.x.x.x.",
"x.x.x.x.x.x.x.x.< S < n &.<.&.&.E <.E ` ` &.R <.n n n n n n n n n n n n n n n n <.&.&.<.` E <.E &.&.&.&.n u u n x.x.x.x.x.x.x.x.",
"x.x.x.x.x.x.x.x.< u u S &.<.&./ 3.R 3.&.&.` %.T < < < % < < < < % < % < % < < < R 3.R <.&.3.` 3./ &.&./ n < u < x.x.x.x.x.x.x.x.",
"x.x.x.q.S u n < >.&.P ` >.P X.` >.P X.` >.&.P >.` 2./ &./ 2.&./ / &./ &./ &...>.E 3.` &.#.3.` 3.&.P >.&.>.P >.>.u n u S x.i.Z.N.",
"x.x.x.y.S % n < P >.>.X.&.>.>.P &.>.>.P P >.` X.&.R &.&.#.&.&.&.&.&.&.&.&.R #.` &.` &.&. .^  .T X.&.>.P ` X.&.P < n < S q.i.x.N.",
"x.x.x.w.S < n % X.` >.P P ` >.&.P ` >.&.X.>.>.P &.&.<.<.<.&.&.&.&.&.&.&.<.<.<.<.` o.4.` &.I E %.P &.X.` P >.>.` < n % S x.x.x.t.",
"x.x.x.q.S < n < >.P &.>.>.X.P >.>.X.P >.` P &.>.>.` >.` ` ` &./ &.&.&./ &.&.&.&.>.O.>.O.` 4.` #.>.>.P >.&.>.P X.< n u S q.x.N.N.",
"x.x.i.i.S < n < >.&.P ` >.P X.>.>.P X.>.>.&.P >.< n n l l n n n n n < n n < n < % < n . O.E #.&.X.` P >.X.` P >.% n u S y.x.x.t.",
"x.N.Z.i.S u n < P >.>.X.&.>.` P &.>.` P P >.` X.n < u < u u < < u u n < u n < n G u   l >.9.&.R P >.&.>.P >.&.>.< n < S w.x.x.x.",
"x.x.q.i.S < n < X.` >.P P >.>.&.P >.>.&.X.>.>.P < S u u u u < S S u u u u u S u < S z % O.o.#.%.>.>.X.P >.>.X.P < n < S x.x.y.t.",
"t.x.x.x.S < n < >.P &.>.` X.P >.` X.P >.` P &.>.< n < n < n < n < < n < < n < u G % n * 4.E &.E &.P ` >.&.P ` >.< n u n y.t.N.N.",
"N.x.x.x.S u n < &.` X.` >.&.P ` >.&.P >.>.&.P ` 8.T 3.R &.` 3.E <.>.>./ 2.` / 2.&.P >.>.P >.` >.&.>.` X.&.>.` X.< n < S x.q.i.N.",
"m.x.x.w.S < < < &.X.P &.P >.>.X.P >.` X.P >.>.X.`  .E  .&.&.&.>.&.` ` &.&.#.&.&.>.P X.` P &.X.>.P P >.>.P P >.>.% n < S x.x.x.x.",
"t.N.x.w.S u n < X.>.>.X.X.` >.P X.>.>.P X.` >.P 3.^ I 3.` 4.o.` #.<.<.&.<.&.<.<.` >.&.>.>.>.P P >.X.&.P >.X.&.P < n < S x.x.x.x.",
"m.y.t.i.n < n < ` P &.` >.P &.>.` P &.>.>.P &.>.&. .4.` O./ O.>.` ` >.` >.P &.` X.>.P P X.` >.&.>.` >.P >.` >.P < n < S q.x.x.x.",
"x.x.x.y.S < n < >.P X.` >.P X.` >.P X.` >.P X.` &.R ` O.. n % * z n n n n n n < &.P >.>.&.>.` X.P P >.X.&.P >.>.% n u S y.x.x.x.",
"m.y.t.i.S < n < &.>.>.P &.>.>.P &.>.>.P &.>.>.P R &.9.>.n   u n < u < < u u S < >.P X.` P P >.>.>.&.>.` >.P X.` < n u S w.x.x.t.",
"t.x.x.w.S < n < P ` >.&.P ` >.&.P ` >.&.P ` >.&.3.#.3.O.% % S u u u < S u u u u ` >.&.>.>.X.&.P ` X.P >.` >.&.` < n u S x.x.y.x.",
"N.x.x.x.S u n % >.X.P >.>.X.P >.>.X.P >.>.X.P >.E <.E 4.% n u G < n < n < n < n X.>.P P >.` >.P >.>.P &.X.>.P ` < n % S w.x.N.t.",
"n n < n U.~.L.U.` X.&.>.` X.&.>.` X.&.>.` X.&.>.` X.&.>.` X.&.>.&.&.&.P >.>.P >.P >.X.P >.&.>.P >.>.X.` P >.X.P U.U.W.K.m < n n ",
"S % % n U.E.E.L.>.>.P P >.>.P P >.>.P P >.>.P P >.>.P P >.>.P P >.` >.P X.` P &.&.>.` >.>.P ` X.&.P P >.&.>.` >.L./.E.G.G e   S ",
"S e < n H.^.E.G.P >.` >.P >.` >.P >.` >.P >.` >.P >.` >.P >.` >.P P >.>.&.>.>.X.>.P P &.X.P >.>.>.` >.&.>.P P &.~.E.^.H.n % e S ",
"< u e S F.H.U.L.P &.X.>.P &.X.>.P &.X.>.P &.X.>.P &.X.>.P &.X.>.>.&.X.` P P >.` ` X.>.>.` >.&.P P X.>.P ` X.>.>.K.G.H.F.n e u n ",
"i.x.q.w.S n n m >.>.P >.>.>.P P >.>.P >.` >.P P >.>.P >.` >.P P ` X.&.>.>.>.P >.P >.X.P P &.>.P >.&.>.P >.&.>.P n n n S x.i.i.Z.",
"Z.x.Z.i.u % e < X.` P &.P &.>.&.X.` P &.X.>.>.&.X.` P &.X.>.>.&.>.>.P P X.` P &.&.>.` >.>.` X.&.>.P ` X.>.P ` X.< r > u x.i.x.Z.",
"r.Z.x.x.u e % n &.>.>.X.&.X.X.&.&.>.>.X.&.P ` X.&.>.>.X.&.P ` X.P >.` >.&.>.>.X.>.P P &.X.` X.` X.P >.>.X.P >.>.n   e u x.x.x.i.",
"x.Z.i.i.n S S S P P >.` / X.` &.P P >.` >.P >.>.P P >.` >.P >.>.P &.X.>.P P >.` ` X.>.>.P >.&.&.` >.&.P ` >.&.P n S S G i.Z.i.i.",
"n n % m L.W.U.U.&./ >.` >...>./ E 8.` ` &.3.R 3.` >.P P >.X.&.P >.>.P >.` >.P P 8.T 3.#.&.` 3.E ..` >./ ..>.` >.L.P.~.L.m < n n ",
"n % e n G.E.^.L.` &.&.&.R #.` &.<.#.&.&.` E  .` X.>.>.&.>.` >.P X.` P &.X.>.>.&.`  .^ ` &.&.&.>.&.#.&.&.#.` &.` P.E.E.G.S e   n ",
"S e % n H.^.E.H.&.&.<.<.<.&.&.&.E o.9.` >.I ^ 3.&.P ` X.P P >.>.&.>.>.X.&.P ` X.3.^ I >.` 4.o.` #.<.&.&.#.<. .<.Q.E.^.H.n > e S ",
"n u e S F.H.G.L.` >.` &.&.` &.` 4.O.>.o.` 3. .R >.P >.>.>.&.X.` P P >.` >.P >.>.&. .4.` O./ O.>.&.` ` >.` ` ` ` K.U.H.F.S < u u ",
"i.x.i.w.m n n n n < l < < n < n * * l . 4.` ` &.` >.P P ` X.&.>.>.X.&.P >.X.&.P &.R ` O.. n % * S n n < n < l n n n n S w.r.q.i.",
"i.x.Z.q.u < e < u n u n n u n u n e * n >.9.&.` X.>.>.&.>.>.P P >.` >.P >.` >.P R &.9.>.l   u n u < u n S < < S < r > u x.Z.x.Z.",
"Z.Z.x.x.u e   n < u u u u u u u < n u % O.o.` 3.&.P ` X.P >.` >.P P >.>.P P >.>.3.#.o.O.% < S u u S u u n u u u n   e u x.x.i.i.",
"x.r.Z.i.S u n n n < n < n < n u G e m < >.` &.E >.P >.>.P &.X.>.>.&.X.` >.&.X.` E <.E 4.% n < G < < < n < < n < n S S G i.Z.i.Z.",
"x.x.x.x.x.x.x.x.x.x.x.x.x.x.x.x.n < n < ` <.&.&.` >.P >.` >.P P P >.>.P P >.>.P >.&.<./ n S < < x.i.Z.Z.S n S n y.N.x.x.x.q.r.x.",
"x.x.x.x.x.x.x.x.x.x.x.x.x.x.x.x.< u u n &.<.&./ >.` P &.X.>.>.&.>.` X.&.>.` X.&.` &.<.` < < S n i.i.x.i.u e % n m.t.q.x.x.x.i.q.",
"x.x.x.x.x.x.x.x.x.x.x.x.x.x.x.x.n u < l ` &.` >.&.>.>.X.&.P ` X.&.P P >.&.P P >.2.` #.` l < u < i.x.Z.i.u % % < x.r.Z.x.i.x.Z.i.",
"x.x.x.x.x.x.x.x.x.x.x.x.x.x.x.x.< u S n >.&.&.` P P >.` >.P >.>.X.>.>.` X.>.>.` / &. .` n S u n Z.i.i.i.S n G n x.y.x.q.e.Z.Z.i.",
"x.x.x.x.x.x.x.x.x.x.x.x.x.x.x.x.< u n < ` <.` >.>.X.&.P >.X.&.P ` >.&.P P >.&.X.2.` &.&.z < u < S u % G F.W.G.L.S u S X x.x.x.i.",
"x.x.x.x.x.x.x.x.x.x.x.x.x.x.x.x.n u u n ` #.&. .>.` >.P >.` >.P >.P X.>.>.` P >.&.&.&.` n u u n n r * n H.^.E.H.S S m S x.i.x.x.",
"x.x.x.x.x.x.x.x.x.x.x.x.x.x.x.x.< u u n >.&.` >.P P >.>.P P >.>.>.P ` >.>.X.P &./ &.&.&.< n u n S   r n G.E./.L.% o S u y.y.t.x.",
"x.x.x.x.x.x.x.x.x.x.x.x.x.x.x.x.n u < S ` <.` ` >.&.X.` >.&.X.` X.&.>.P P &.>.&.>.&.&.P n u u < n n < m K.W.U.U.G % S n x.x.N.x.",
"x.x.x.x.x.x.x.x.x.x.x.x.x.x.x.x.N.N.t.y.n u n < ` ` >.>.> l n < u < < d <.>.R <.G < G > >.` &.T U.L.W.L.n < n n N.N.x.x.x.x.x.x.",
"x.x.x.x.x.x.x.x.x.x.x.x.x.x.x.x.t.y.x.x.S < n < ` &.&.>.> < u x S n > > >.>.<.` e S e % 3.X.` >.L./.E.G.n e % S x.x.x.x.x.x.x.x.",
"x.x.x.x.x.x.x.x.x.x.x.x.x.x.x.x.x.x.x.w.S < n < &.>.P ` > l < < u < l > ` P >. .m u * < X.O.&.P H.E.^.H.n % e S x.x.x.x.x.x.x.x.",
"x.x.x.x.x.x.x.x.x.x.x.x.x.x.x.x.t.x.x.y.S u n % / &. .0.* n < S u < n * 0.>.>.&.< u m % +.X.O.4.L.G.W.F.G % u S x.x.x.x.x.x.x.x.",
"x.x.x.x.x.x.x.x.x.x.x.x.x.x.x.x.N.N.x.q.S u d < Q.I.T.D.L < < n n < n F D.Q.I.Q.u S < n % < % > m G n S i.i.i.i.x.x.x.x.x.x.x.x.",
"x.x.x.x.x.x.x.x.x.x.x.x.x.x.x.x.t.x.x.x.S < n < U.T.E.H.n < < S S < < n W.~.Y.Y.e m K < G   e m < % * u i.i.x.Z.x.x.x.x.x.x.x.x.",
"x.x.x.x.x.x.x.x.x.x.x.x.x.x.x.x.N.x.i.q.S < n < Q.Q.Q.~.< n < < < < u < Q.H.T.Q.S n m S S < u < n % r < x.x.x.x.x.x.x.x.x.x.x.x.",
"x.x.x.x.x.x.x.x.x.x.x.x.x.x.x.x.N.Z.i.x.S u n < G.~.G.Q.n l < u n < n n H.H.Q.Y.% S e S < S e G n S S n i.x.y.x.x.x.x.x.x.x.x.x."
};
