/* XPM */
static char *fbc7f68987ff4ef6a54b47be34c2ebebFwzLYLNnwrWfT95L[] = {
/* columns rows colors chars-per-pixel */
"32 32 165 2 ",
"   c #090516",
".  c #1A0D1F",
"X  c #2A1C13",
"o  c #3F141B",
"O  c #32251F",
"+  c #170E23",
"@  c #0D0631",
"#  c #1D1332",
"$  c #260D23",
"%  c #22162E",
"&  c #281929",
"*  c #3B152B",
"=  c #211730",
"-  c #321B35",
";  c #3C2D25",
":  c #3C2C2A",
">  c #362224",
",  c #3A312C",
"<  c #382537",
"1  c #40171D",
"2  c #4B2B36",
"3  c #4B2B39",
"4  c #462634",
"5  c #502D35",
"6  c #5E3737",
"7  c #563536",
"8  c #472F2B",
"9  c #63332F",
"0  c #632D34",
"q  c #623436",
"w  c #633936",
"e  c #6D3B34",
"r  c #623839",
"t  c #64353B",
"y  c #713D35",
"u  c #723F39",
"i  c #4E4735",
"p  c #5C4335",
"a  c #5C4A3D",
"s  c #6D4C28",
"d  c #724B2C",
"f  c #7E572C",
"g  c #7E582D",
"h  c #6A4730",
"j  c #744136",
"k  c #7A4337",
"l  c #744139",
"z  c #7A4439",
"x  c #6E593C",
"c  c #7D5A30",
"v  c #7C6229",
"b  c #7C7524",
"n  c #786930",
"m  c #1F2340",
"M  c #272B46",
"N  c #5E4C4C",
"B  c #564943",
"V  c #604C4E",
"C  c #446345",
"Z  c #467F54",
"A  c #4B5066",
"S  c #636A7D",
"D  c #81562D",
"F  c #805A2D",
"G  c #8F4D33",
"H  c #976820",
"J  c #9B6A28",
"K  c #96772F",
"L  c #A47426",
"P  c #CC7E1A",
"I  c #CD7E21",
"U  c #875740",
"Y  c #9F5F44",
"T  c #A15F45",
"R  c #9D6044",
"E  c #877A4B",
"W  c #A16044",
"Q  c #A17666",
"!  c #76873F",
"~  c #4B8454",
"^  c #4E8D59",
"/  c #498654",
"(  c #518F5C",
")  c #4F925C",
"_  c #5B9A57",
"`  c #51925D",
"'  c #5A975A",
"]  c #5A995A",
"[  c #639C55",
"{  c #6BA54F",
"}  c #72A94C",
"|  c #6AA451",
" . c #71A952",
".. c #529260",
"X. c #609261",
"o. c #9F933D",
"O. c #A08E2A",
"+. c #9EAA3A",
"@. c #DB9A06",
"#. c #DA990A",
"$. c #DA9708",
"%. c #CA8A1C",
"&. c #CA9519",
"*. c #DAA203",
"=. c #DAAE1A",
"-. c #F0AF00",
";. c #F3B001",
":. c #E5BE1B",
">. c #C38A21",
",. c #CB9F22",
"<. c #CFA827",
"1. c #D3A726",
"2. c #D2A925",
"3. c #D3A828",
"4. c #E7B629",
"5. c #9A8948",
"6. c #8B9340",
"7. c #878355",
"8. c #898253",
"9. c #948951",
"0. c #BC9143",
"q. c #9FA740",
"w. c #94A240",
"e. c #93B954",
"r. c #BFA641",
"t. c #A1B646",
"y. c #9E8E6A",
"u. c #9E9069",
"i. c #90A17D",
"p. c #DE9D5D",
"a. c #CAB644",
"s. c #CCB56F",
"d. c #A0C458",
"f. c #9FC37D",
"g. c #A2C466",
"h. c #D4C649",
"j. c #EBDF4B",
"k. c #F2E446",
"l. c #E9DB61",
"z. c #7CAD86",
"x. c #7CAD88",
"c. c #989085",
"v. c #BCBABD",
"b. c #D1B689",
"n. c #C8B3A2",
"m. c #D1B6A1",
"M. c #CEBDBB",
"N. c #CEBCB2",
"B. c #D0BEBD",
"V. c #C5ABAA",
"C. c #9FC596",
"Z. c #9BC3A3",
"A. c #B8CDBA",
"S. c #B3D0BA",
"D. c #ECE187",
"F. c #E8E797",
"G. c #EBE3A5",
"H. c #B2BBCA",
"J. c #E9E5C5",
"K. c #E8EAC5",
"L. c #EAEADE",
"P. c #EBECE7",
"I. c #E7E8E8",
"U. c #EFF0F4",
"Y. c #F9FAF8",
/* pixels */
"p.z.z.z.z.x.x.x.z.z.x.z.z.z.x.z.z.z.z.z.z.z.z.z.z.z.z.z.z.z.z.z.",
",.` ` ` ` ` ` ` ` ` ` ` ` ` ` ` ` ` ` ` ` ` ^ ~ ` ` ` ` ` ` ` ` ",
"2...) ` ` ) ` ` ) ` ` ..` ` ` ` ..` ) ` ` ^ / ~ ~ ` ` ` ) ) ` ) ",
"<.` ` ` ) ` ) ` ..` ` ( ` ) ` ` ` ` ` ` ` ^ ~ Z / ` ` ` ` ` ` ` ",
"2.` ` ` ` ) ` ..` ` ` ` ( ` ) ) ` ` ) ` ` ..( ^ ..` ` ` ) ` ` ` ",
"2.` ` ` ` ` ` ` ` ` ` ` ` ` ` ) ` ` ` ..` ) ` ( ` ..) ` ` ` ` ` ",
"2.` ) ` ) ` ) ` A.X.....) ) ) ) ` ] { ' ) ` ` ` i.Z.` ` ` ` ` ) ",
"2.` ` ` ` ` ` ` Y.u.E 7.E 7.7.7.8.8.5.9.8.7.7.E m.S.) ` ` ) ` ) ",
"3.) ` ..` ` _ | U.Q G W R Y T Y Y Y R Y W W G G V.Z.` ` ` ` ` ` ",
"2.` ` ` ` ` _  .J.N 9 V y l l l e l u l l z z o c.C.` ` ` ` ` ` ",
"<...` ` ` ` ] } l.p 0 y j y y l l l y l l l z * 9.g.( ` ` ) ` ` ",
"2.` ` ) ` ` [ } J.V 9 G l l l l l l j l y l l o c.C.` ` ) ` ` ` ",
"<.` ` ` ` ` ` ] F.N 4 y j k j j l z l z l z e $ u.f.` ` ` ` ` ) ",
"1...` ` ) ) ` ) :.7 # 3 3 2 2 5 7 7 2 3 3 5 4 @ K t.` ` ..) ) ` ",
"3.` ) ` ` ` ` ` ;.J c D D f g d . > v g c D g d %.q.` ` ` ` ` ..",
"=.{ ( ` ` ` ` ` &.@.#.@.#.@.@.>.m B *.$.#.#.#.#.#.6.` ` ` ..` ` ",
"2.[ | ` ..` ` .., ; ; ; ; ; O B I.H.X 8 ; ; ; , ; C ` ` ` ..` ' ",
"=.| ] ` ..` ) ` L : # = % % + M Y.H.  & % % % @ d ! ..` ` ) ` ` ",
"2._ ` ` ` ` ) ` ;.h 5 r 6 q 7 < S A & w r q q - L +.` ` ` ` ` ` ",
"2...) ) ..` ` ` 4.p t k k j j 2   $ w k k u z 4 K t.` ` ` ` ` ` ",
"2.) ) ) ..` ) ` k.p 6 u y u j e 2 7 k j j j z * 5.d.` ` ` ` ` ` ",
"2.` ) ` ` ` ) ..h.x q e y e e y e e e e e e y 2 o.e.` ` ` ` ` ` ",
"2.` ` ` ) ` ..) i a.G e y y y y j y y j y e 0 0.o.C ) ` ) ` ` ` ",
"2.` ` ` ) ` ) ..H n r.a.N.B.M.B.M.M.M.M.b.s.n.O.n n ` ` ` ` ` ` ",
"<.` ) ` ) ` ` ` &.8 h.j.I.P.P.P.P.P.P.P.G.D.K.b s w.| ) ` ` ` ` ",
"2.` ` ` ) ` ` ` ` ` ) ) ) ) ` ` ` ` ..` ` ` ..] | _ } ..` ) ` ) ",
"2.` ` ) ` ` ) ` ` ` ` ` ` ` ` ` ` ` ` ` ` ) ` ] } _ } ) ` ` ..` ",
"2.` ` ` ` ` ) ..) ` ` ` ) ) ) ) ` ` ` ) ) ` ) ] } ) _ ` ) ` ` ` ",
"<.) ` ) ` ..) ` ` ` ` ` ` ` ` ` ` ` ` ` ` ` ) ' ] ` ) ' ) ) ` ` ",
"%.` ` ..` ` ` ` ) ` ` ` ` _ | ` ) ) ` ` ( ` ` ( ` ` ` ` ` ` ) ` ",
"P ..` ` ` ` ` ` ..` ` ` ' | [ | ` ` ` ` ` ) ) ` ` ) ) ` ` ) ..` ",
"I ` ` ` ) ` ( ` ` ` ` ` ` [ { ' ` ` ` ` ` ` ` ` ) ` ` ` ` ` ` ) "
};
