/* XPM */
static char *_c8949bcc1134041a61c2b02fddc338c1qYYeIWhMSip0ld0[] = {
/* columns rows colors chars-per-pixel */
"32 32 32 1 ",
"  c #CD7D32",
". c #4D9262",
"X c #D09D3C",
"o c #4A8C5E",
"O c #458157",
"+ c #D2A740",
"@ c #498A5D",
"# c #447F56",
"$ c #47865B",
"% c #559860",
"& c #66A35B",
"* c #589A5F",
"= c #77AE56",
"- c #7AB055",
"; c #6FA958",
": c #619F5C",
"> c #6CA355",
", c #4D8654",
"< c #72AA57",
"1 c #4D8E5D",
"2 c #558A51",
"3 c #6FA554",
"4 c #4A885A",
"5 c #4D8250",
"6 c #4C8453",
"7 c #509461",
"8 c #DAAD3D",
"9 c #D5A93F",
"0 c #5E9D5D",
"q c #CE8835",
"w c #69A55A",
"e c white",
/* pixels */
" ...............................",
"X.....................oO........",
"+....................@#$O.......",
"+.....................$#o.......",
"+......................@........",
"+.....   q%.....................",
"+....0     -.....%&.............",
"+....3      .....*=&............",
"+....q      .....*-;.%&.........",
"+....>     q......:>,<;.........",
"+.....*- qq0......1233,.........",
"+.....*;*;.........456o.........",
"+.....7%*;..........@o..........",
"+.......7%......................",
"+...............................",
"8&..............................",
"90&............................*",
"8&*.............................",
"9*..............................",
"9...............................",
"+...............................",
"+.........oO....................",
"+........@O$O...................",
"+.........$#o...................",
"+..........o.............*&.....",
"+......................%&*<.....",
"+......................*3%<.....",
"+......................%;.%.....",
"+.......................%.......",
"q............%&.................",
" ...........%&&&................",
" ............0w%................"
};
