/* XPM */
static char *_2d4dd97c1af4cf9b6a7090c5ca7a93bM3ejsPrHsfxySV7H[] = {
/* columns rows colors chars-per-pixel */
"32 32 31 1 ",
"  c #447F56",
". c #CD7D32",
"X c #458157",
"o c #4D8250",
"O c #4C8453",
"+ c #4D8654",
"@ c #47865B",
"# c #4A885A",
"$ c #498A5D",
"% c #4A8C5E",
"& c #4D8E5D",
"* c #558A51",
"= c #589A5F",
"- c #5E9D5D",
"; c #619F5C",
": c #6CA355",
"> c #6FA554",
", c #66A35B",
"< c #69A55A",
"1 c #6FA958",
"2 c #72AA57",
"3 c #77AE56",
"4 c #7AB055",
"5 c #4D9262",
"6 c #509461",
"7 c #559860",
"8 c #CE8835",
"9 c #D09D3C",
"0 c #D5A93F",
"q c #DAAD3D",
"w c #D2A740",
/* pixels */
".5555555555555555555555555555555",
"9555555555555555555555%X55555555",
"w55555555555555555555$ @X5555555",
"w555555555555555555555@ %5555555",
"w5555555555555555555555$55555555",
"w5555555555555555555555555555555",
"w55555555555555557,5555555555555",
"w5555555555555555=3,555555555555",
"w555557,555555555=4157,555555555",
"w55555=15555555555;:+21555555555",
"w55555=17,55555555&*>>+555555555",
"w55555=1=1555555555#oO%555555555",
"w5555567=15555555555$%5555555555",
"w5555555675555555555555555555555",
"w5555555555555555555555555555555",
"q,555555555555555555555555555555",
"0-,5555555555555555555555555555=",
"q,=55555555555555555555555555555",
"0=555555555555555555555555555555",
"05555555555555555555555555555555",
"w5555555555555555555555555555555",
"w555555555%X55555555555555555555",
"w55555555$X@X5555555555555555555",
"w555555555@ %5555555555555555555",
"w5555555555%5555555555555=,55555",
"w55555555555555555555557,=255555",
"w5555555555555555555555=>7255555",
"w5555555555555555555555715755555",
"w5555555555555555555555575555555",
"85555555555557,55555555555555555",
".555555555557,,,5555555555555555",
".555555555555-<75555555555555555"
};
