/* XPM */
static char *a84590fc07ae49989b4660bde7df93b82zeNl66gsvGDTERz[] = {
/* columns rows colors chars-per-pixel */
"64 64 191 2 ",
"   c #2400BF",
".  c #2204BC",
"X  c #2B02BE",
"o  c #2804BE",
"O  c #2401C0",
"+  c #2601C0",
"@  c #2601C1",
"#  c #2502C1",
"$  c #2603C1",
"%  c #2400C2",
"&  c #2501C3",
"*  c #2601C3",
"=  c #2704C0",
"-  c #2201C4",
";  c #2000C6",
":  c #2700C4",
">  c #2600C5",
",  c #2702C4",
"<  c #2400C7",
"1  c #2700C6",
"2  c #2600C7",
"3  c #2602C6",
"4  c #2703C7",
"5  c #2800C1",
"6  c #2901C2",
"7  c #2900C3",
"8  c #2803C2",
"9  c #2803C3",
"0  c #2A03C2",
"q  c #2901C4",
"w  c #2800C5",
"e  c #2900C5",
"r  c #2A02C5",
"t  c #2900C6",
"y  c #2800C7",
"u  c #2A00C6",
"i  c #2A01C7",
"p  c #2802C7",
"a  c #2200C9",
"s  c #2301C9",
"d  c #2303CA",
"f  c #2400C8",
"g  c #2500C9",
"h  c #2701C8",
"j  c #2600C9",
"k  c #2503C9",
"l  c #2602C8",
"z  c #2500CB",
"x  c #2600CA",
"c  c #2700CB",
"v  c #2601CB",
"b  c #2500CC",
"n  c #2700CD",
"m  c #2702CC",
"M  c #2500CE",
"N  c #2900C8",
"B  c #2800C9",
"V  c #2A01C9",
"C  c #2800CA",
"Z  c #2900CA",
"A  c #2900CB",
"S  c #2A01CB",
"D  c #2800CC",
"F  c #2801CC",
"G  c #2B00CC",
"H  c #2A00CE",
"J  c #2902CF",
"K  c #ADACBA",
"L  c #B0AFBD",
"P  c #B3AFBD",
"I  c #ADB0B7",
"U  c #AFB2B9",
"Y  c #ADB1BA",
"T  c #AEB1BA",
"R  c #AFB2BB",
"E  c #AFB1BD",
"W  c #AFB1BE",
"Q  c #AFB3BF",
"!  c #B3B2B8",
"~  c #B1B1BB",
"^  c #B2B2BA",
"/  c #B3B2BA",
"(  c #B3B3BB",
")  c #B0B5B9",
"_  c #B3B4B9",
"`  c #B1B4BB",
"'  c #B3B1BC",
"]  c #B0B3BC",
"[  c #B2B2BC",
"{  c #B1B0BE",
"}  c #B3B1BE",
"|  c #B2B1BF",
" . c #B3B1BF",
".. c #B0B2BF",
"X. c #B1B3BF",
"o. c #B2B2BE",
"O. c #B3B3BF",
"+. c #B1B4BD",
"@. c #B1B6BC",
"#. c #B2B5BE",
"$. c #B4B4BC",
"%. c #B6B5BD",
"&. c #B3AFC0",
"*. c #B1AFC4",
"=. c #B1AFC5",
"-. c #B3AFC6",
";. c #B6ADCA",
":. c #AEB1C0",
">. c #AFB1C0",
",. c #ADB3C1",
"<. c #AFB2C1",
"1. c #AFB2C3",
"2. c #AFB0C4",
"3. c #AEB0C5",
"4. c #AFB1C6",
"5. c #AFB1C8",
"6. c #B1B3C0",
"7. c #B0B2C1",
"8. c #B3B2C0",
"9. c #B1B0C2",
"0. c #B3B0C3",
"q. c #B2B1C3",
"w. c #B1B3C2",
"e. c #B3B2C2",
"r. c #B4B2C0",
"t. c #B5B2C3",
"y. c #B0B4C0",
"u. c #B1B5C0",
"i. c #B2B4C1",
"p. c #B3B5C1",
"a. c #B4B4C0",
"s. c #B6B4C1",
"d. c #B0B1C5",
"f. c #B2B0C5",
"g. c #B3B2C4",
"h. c #B1B2C6",
"j. c #B1B2C7",
"k. c #B4B1C4",
"l. c #B4B0C7",
"z. c #B4B2C7",
"x. c #B8B7C5",
"c. c #B2B0C8",
"v. c #BFA7FF",
"b. c #BFACFE",
"n. c #C3AEF3",
"m. c #C2ACF7",
"M. c #C1A7FF",
"N. c #C2ABFB",
"B. c #C1A9FD",
"V. c #C0AAFC",
"C. c #C1AAFC",
"Z. c #C3AAFD",
"A. c #C2ABFD",
"S. c #C1A8FF",
"D. c #C1A9FF",
"F. c #C2A8FF",
"G. c #C3A9FF",
"H. c #C2AAFE",
"J. c #C3AAFE",
"K. c #C2AAFF",
"L. c #C3ABFF",
"P. c #C5A9FE",
"I. c #C5A8FF",
"U. c #C4A9FF",
"Y. c #C4ABFE",
"T. c #C3ACFC",
"R. c #C3ACFE",
"E. c #C5AEFC",
"W. c #C4ACFF",
"Q. c #C8ABFD",
"!. c #E5E3F1",
"~. c #EFE6F7",
"^. c #EEE7F7",
"/. c #EDEAF1",
"(. c #EFEAF1",
"). c #EBE9F7",
"_. c #ECE9F4",
"`. c #EEEBF4",
"'. c #ECE8F7",
"]. c #EDE9F7",
"[. c #EEE8F6",
"{. c #EEE7F9",
"}. c #EEE4FC",
"|. c #EEE6FE",
" X c #EFE7FE",
".X c #EBE8F9",
"XX c #EBE8FB",
"oX c #EFE8F8",
"OX c #EFEBFA",
"+X c #F0E8F7",
"@X c #F2ECFA",
/* pixels */
"J.J.J.J.J.J.J.J.J.J.J.J.J.J.J.J.J.J.J.J.J.J.J.J.J.J.J.J.J.J.J.J.J.J.J.J.J.J.J.J.J.J.J.J.J.J.J.J.J.J.J.J.J.J.J.J.J.J.J.J.J.J.J.J.",
"J.J.J.J.J.J.J.J.J.J.J.J.J.J.J.J.J.J.J.J.J.J.J.J.J.J.J.J.J.J.J.J.J.J.J.J.J.J.J.J.J.J.J.J.J.J.J.J.J.J.J.J.J.J.J.J.J.J.J.J.J.J.J.J.",
"J.J.J.J.J.J.J.J.J.J.J.J.J.J.J.J.J.J.J.J.J.J.J.J.J.J.J.J.J.J.J.J.J.J.J.J.J.J.J.J.J.J.J.J.J.J.J.J.J.J.J.J.J.J.J.J.J.J.J.J.J.J.J.J.",
"J.J.J.J.J.J.J.J.J.J.J.J.J.J.J.J.J.J.J.J.J.J.J.J.J.J.J.J.J.J.J.J.J.J.J.J.J.J.J.J.J.J.J.J.J.J.J.J.J.J.J.J.J.J.J.J.J.J.J.J.J.J.J.J.",
"J.J.J.J.J.J.J.J.J.J.J.J.J.J.J.J.J.J.J.J.J.J.J.J.J.J.J.J.J.J.J.J.J.J.J.J.J.J.J.J.J.J.J.J.J.J.J.J.J.J.J.J.J.J.J.J.J.J.J.J.J.J.J.J.",
"J.J.J.J.J.J.J.J.J.J.J.J.J.J.J.J.J.J.J.J.J.J.J.J.J.J.J.J.J.J.J.J.J.J.J.J.J.J.J.J.J.J.J.J.J.J.J.J.J.J.J.J.J.J.J.J.J.J.J.J.J.J.J.J.",
"J.J.J.J.J.J.J.J.J.J.J.J.J.J.J.J.J.J.J.J.J.J.J.J.J.J.J.J.J.J.J.J.J.J.J.J.J.J.J.J.J.J.J.J.J.J.J.J.J.J.J.J.J.J.J.J.J.J.J.J.J.J.J.J.",
"J.J.J.J.J.J.J.J.J.J.J.J.J.J.J.J.J.J.J.J.J.J.J.J.J.J.J.J.J.J.J.J.J.J.J.J.J.J.J.J.J.J.J.J.J.J.J.J.J.J.J.J.J.J.J.J.J.J.J.J.J.J.J.J.",
"J.J.J.J.J.J.J.J.J.J.J.b.J.M.J.J.J.J.M.J.b.J.J.J.J.J.J.J.J.J.J.J.J.J.J.J.J.J.J.J.J.J.J.J.J.M.J.J.J.J.J.J.J.J.J.J.J.J.J.J.J.J.J.J.",
"J.J.J.J.J.J.J.J.J.R.R.J.J.b.M.I.J.v.J.J.J.J.J.N.J.J.J.J.J.J.J.J.J.J.J.J.J.J.J.J.J.J.J.J.J.J.J.J.J.J.J.J.J.J.J.J.J.J.J.J.J.J.J.J.",
"J.J.J.J.J.J.J.J.J.J.v.N.J.R.m.J.J.N.E.J.R.v.J.J.J.J.J.J.J.J.J.J.J.J.J.J.J.J.J.J.J.M.b.M.M.J.J.J.J.J.J.J.J.J.J.J.J.J.J.J.J.J.J.J.",
"J.J.J.J.J.J.J.J.b.J.N.n.v.J.N.J.J.N.J.M.n.N.J.b.J.J.J.J.J.J.J.J.J.J.J.J.J.J.J.J.N.N.b.J.N.B.b.b.J.J.J.J.J.J.J.J.J.J.J.J.J.J.J.J.",
"J.J.J.J.J.J.J.J.J.J.J.v.X V t c c t V X M.J.J.J.J.J.J.J.J.J.J.J.J.J.J.J.J.J.J.J.c V V V c V V V J.J.J.J.J.J.J.J.J.J.J.J.J.J.J.J.",
"J.J.J.J.J.J.J.J.J.J.R.J.V M V V c V M V J.E.M.M.J.J.J.J.J.J.J.J.J.J.J.J.J.J.J.J.1 1 1 1 c 1 1 1 J.J.J.J.J.J.J.J.J.J.J.J.J.J.J.J.",
"J.J.J.J.J.J.J.J.J.v.N.N.t V   $ $ X V 1 J.m.M.J.J.J.J.J.J.J.J.J.J.J.J.J.J.J.J.J.c 1 c c 1 c 1 c J.J.J.J.J.J.J.J.J.J.J.J.J.J.J.J.",
"J.J.J.J.J.J.J.J.J.J.J.J.V D $ D M $ c c J.J.J.J.J.J.J.J.J.J.J.J.J.J.J.J.J.J.J.J.1 1 - 1 1 1 - 1 J.J.J.J.J.J.J.J.J.J.J.J.J.J.J.J.",
"J.J.b.J.R.M.J.J.D t c O t.^ i.Y Y i.^ t.$ c $ D J.J.M.J.b.J.N.J.b.N.R.J.M s c c | | | | | | | | V c s c N.J.N.b.J.J.J.J.J.J.J.J.",
"b.J.J.J.J.b.M.J.1 V $ 1 -.-.Q z.z.@.-.-.$ 1 c t J.v.J.J.J.J.J.b.N.M.I.I.$ $ $ V | | | | | | | | V 1 $ $ J.I.J.N.J.J.J.J.J.J.J.J.",
"J.J.v.J.J.E.m.J.M $   c | z.w.R Q w.z.} k   $ D J.m.E.J.R.v.J.J.J.I.E.I.t 1 0 t | | | | | | | | t 0 c t I.Q.I.J.J.J.J.J.J.J.J.J.",
"J.J.N.n.v.M.N.J.O $ k . -.Y | | Q Q L *.. s 1 $ J.J.J.M.n.R.J.b.J.J.I.J.- c 1 M | | | | | | | | M s s - J.I.J.b.J.J.J.J.J.J.J.J.",
"J.J.J.v.X V t c t.-.| -.| z.R Q >.@.w.| z.} -.t.V t V X v.J.J.J.c 1 t - %.Q | ! | | | | | | | | ! %.Q } 1 t 1 c J.J.J.J.J.J.J.J.",
"J.J.R.J.V M V V Y z.z.^ w.I ` z.4.^ I z.Y z.-.^ D V M V J.R.J.M.s O 1 s Q >.4.| | | | | | | | | | 4.>.| s 1 $ s J.J.J.J.J.J.J.J.",
"J.v.N.N.t V   $ i.Q >.w.@.` @.| Q @.^ @.@.>.Q w.$   V t J.b.J.J.c 0 0 s } z.2.| | | | | | | | | ^ w.3.} - 0 0 M J.J.J.J.J.J.J.J.",
"J.J.J.J.V D $ D Y z.^ | Q 4.Y c.z.^ 4.>.w.Y z.^ M $ V 1 J.N.J.J.V V t M ( | ^ ^ | | | | | | | L } ( w.( D t D V J.J.J.J.J.J.J.J.",
"M.J.J.J.V 1 c 1 Y i.^ t.O M $ D Y z.Y | >.4.Y z.1 1 c 1 c 1 1 1 1 c 1 1 1 c 1 1 Y z.Y w.w.3.Q z.| w.i.| c t 1 1 J.J.J.J.J.J.J.J.",
"I.J.J.b.V 1 c $ 4.Q -.-.$ 1 V 1 w.Q >.i.@.` @.| 1 t 1 1 t t 1 t 1 1 t t 1 t 1 1 i.Q w.@.@.^ @.Y @.>.@.| k 1 1 1 J.J.J.J.J.J.J.J.",
"M.J.J.b.V 1 s 1 | >.z.| k   $ c ^ -.z.^ t.I @.4.1 1 1 t t t 1 t 1 t 1 t 1 t 1 t ^ -.z.Y z.I ^ z.t.| @.w.k t t c J.J.J.J.J.J.J.J.",
"I.N.M.N.V $ c 1 | Q ^ -.. s 1 O w.-.w.-.| w.| >.k k 1 c k k 1 c 1 k c k k k c k t.-.} z.| w.@.>.| Q ,.| 1 1 t 1 J.J.J.J.J.J.J.J.",
"J.J.J.b.c $ c $ Q R z.| z.| -.z.$ $ k . z.Y | @.| | w.| | | w.| w.i.| | | | | | O 1 s . -.^ ,.R @.Q Q | k t t 1 J.J.J.J.J.J.J.J.",
"J.N.J.N.V t s 1 4.@.I w.^ z.-.^ c 1   s } z.w.Y i.@.@.,.@.w.>.@.@.R i.,.@.i.i.,.c 1   k w.z.w.R t.| @.| k 1 t 1 J.J.J.J.J.J.J.J.",
"M.J.J.b.V 1 c 1 Y @.@.| Q w.| @.$ V 1 1 -.-.Q z.>.| R | >.| | | w.Q | | | | Q | t V 1 $ -.-.| z.@.| >.w.c 1 1 c J.J.J.J.J.J.J.J.",
"I.J.J.J.V 1 c $ z.Y z.>.| Y z.Y D t c O t.^ i.Y i.| i.a.w.} @.w.} | } w.@.} w.@.D $ c O t.^ w.^ w.Q | | 1 1 1 1 J.J.J.J.J.J.J.J.",
"J.J.J.J.c c $ M Y z.Y | >.z.R z.D 1 M O w.^ i.Y | ^ z.w.| _ -.w.| i.Q | Q | Q | } t.Q | 1 1 1 s | ^ w.( M t V V J.J.J.J.J.J.J.J.",
"J.v.N.N.t V X $ i.Q w.w.R @.@.Y t V $ $ -.-.| z.` Y | | R | | w.w.Q Q Q Q w.| L i.4.>.@.M t 0 1 ` >.z.} s 0 0 c J.J.J.J.J.J.J.J.",
"M.J.E.J.V M V c ^ -.z.^ z.I ` 4.c $   k } z.w.Y 5.i.,.4.` R Q Y Q Q i.| | | | | R ,.>.| c $ t 1 | 4.>.Q s 1 O s J.J.J.J.J.J.J.J.",
"J.J.J.M.X V 1 c w.-.| z.| w.R Q O 1 k   -.^ Q Q w.| w.| z.i.w.| | | | K x.} | t.| _ | a.- c c c ! | Q %.- t 1 c J.J.J.J.J.J.J.J.",
"J.b.J.n.v.J.J.J.$ 1 c . -.^ Q | t.-.| -.| w.| Q ].`.`. X= c k k | | } x.!._..X_.c c c ; %.| | L M 1 s - R.I.J.J.J.J.J.J.J.J.J.J.",
"J.J.v.N.J.R.m.J.c $   k | z.>.| ^ -.z.Y w.I ` z.+X`.^.^.V t V c i.w.L } _.OX.X.X1 t $ c | w.,.| t 0 1 t I.Q.I.J.J.J.J.J.J.J.J.J.",
"N.R.J.J.J.J.M.J.1 c $ O -.-.Q z.i.Q w.w.| ` @.Y  X@X^.}.k V c 0 Q | | } _.'.^.OX1 0 t M ` ,.w.w.V $ $ 1 J.I.M.N.J.J.J.J.J.J.J.J.",
"J.b.J.J.J.J.J.I.V 0 M - w.^ i.I Y z.Y | Q 4.| 4..X'.`.^.1 c k 1 w.L w.| .X^.^.^.s 1 1 V L @.w.^ V c s M J.R.N.b.J.J.J.J.J.J.J.J.",
"J.J.J.J.J.J.J.J.J.J.J.b.V 1 c 1 1 t t 1 | ,.i.@.OX.X/.'.1 s t = | | | | .X.XOX^.G 1 c O w.^ w.Y Y @.^ z.O c t D J.J.M.J.J.J.b.J.",
"J.J.J.J.J.J.J.J.J.J.J.J.V $ s 1 1 t t k | R w.a. X+X{.}.t D c 0 Q | | | _..X^.^.0 c 1 $ -.-.| z.z.| -.-.$ 1 V $ M.b.b.J.J.J.J.b.",
"J.J.J.J.J.J.J.J.I.N.M.b.V 1 c $ 1 t 1 k w.R | @.`.[.^.].c t V M i.i.L } _.OX_.^.M $ O c | z.w.Y Q Q z.} c O $ M J.m.E.J.R.v.J.J.",
"J.J.J.J.J.J.J.J.M.J.J.N.V 1 c 1 c t 1 c | w.| w.].`.`. X= c 1 k Q | | x.!..X.X].$ $ d . -.^ | w.| | Y z.. s 1 $ I.N.J.v.n.N.J.J.",
"J.J.J.J.J.J.J.J.I.J.J.N.V t c 1 1 t 1 k | R w.@.w.w.-.| z.| *.| | i.| K x.w.| } t.-.| -.| w.@.>.>.@.z.| z.| -.w.c t V X v.J.J.R.",
"J.J.J.J.J.J.J.J.M.J.J.b.V 1 - 1 1 t 1 1 | i.Q t.c.@.| 4.R Q Q ^ Q Q i.| | L | | ^ -.z.^ z.I ^ 4.4.` I w.^ z.-.^ V V M V J.N.M.J.",
"J.J.J.J.J.J.J.J.J.J.J.b.c 1 - 1 c 1 V c | Q | | ` Y @.| R Q w.w.Q i.Q | | i.| Q w.Q Q | @.^ @.Y Y | ` @.| >.Q i.$   V c N.m.M.J.",
"J.J.J.J.J.J.J.J.M.J.J.N.V t c 1 1 t 1 1 | w.w.@.| | -.w.| _ -.w.K i.Q | Q | Q | Y z.Y w.| 4.Q z.z.^ 3.Q w.Y z.^ D $ V c J.J.J.J.",
"J.J.J.b.R.J.J.J.s 1 c 1 | R z.| c 1 1 k | @.Q @.| | | | | | | | @.| t.@.| | @.| | @.t.@.w.@.} w.Y w.| w.- M 1 D } ( L ^ M t V c ",
"b.J.J.J.J.J.v.J.1 1 t s ` >.w.w.1 t 1 k | i.| | | | | | | | | | w.Q | i.| | w.Q | | Q | | | | @.,.@.*.-.$ = t $ ^ -.z.w.1 0 $ c ",
"J.J.v.N.J.R.N.J.1 t 0 c ^ w.>.Q 1 t t 1 | i.| t.| | | | | | | | | ,.@.,.,.i.@.i.,.i.i.,.i.R i.,.^ *.z.P c   t c | 4.>.Q c 1 $ s ",
"b.J.N.n.v.J.N.J.1 c c ; a.| ^ Q 1 t 1 k | ,.Q @.| | | | | | | | | | | | | | | | | | | | | w.| | t.-.P ;.$ V 1 1 ^ %.Q %.- t $ M ",
"J.J.J.v.X V t V | %.| %.- c c c c 1 1 k w.@.Q t.| | | | | | | | 1 c k k k c k k 1 k 1 k c 1 k k O $ c o c $ V t M s s - J.I.I.J.",
"M.J.E.b.V M V D Q ,.,.| M 0 t 1 1 t 1 c L ,.| @.| | | | | | | | t V t 1 t 1 t 1 1 V t 1 1 1 1 t D $   M $ M M 0 t 0 1 t I.E.I.J.",
"J.M.m.J.t V   $ w.>.>.` s t 0 1 1 t t k t.| | | | | | | | | | | t 1 t t 1 1 t 1 t 1 t t t t t t 1 V t t V M c M V 0 $ 1 J.I.J.N.",
"J.J.J.J.c V $ D P w.Q | c 1 1 s 1 t 1 c w.R Q %.| | | | | | | | 1 1 1 1 1 1 c 1 1 1 1 c 1 1 c 1 H $ c 1 V 0 V $ V c s c b.J.N.b.",
"N.J.J.J.c c $ M P t.@.w.V 1 1 s D t c O t.^ i.Y | | | | | | | | | | | | | | | | | | | | | | | | $ c 1 c J.J.I.M.J.J.J.J.J.J.J.J.",
"J.B.b.J.t V X $ w.>.,._ c t $ 1 1 V $ 1 -.-.Q z.| | | | | | | | | | | | | | | | | | | | | | | | 1 c 0 V b.J.N.J.J.J.J.J.J.J.J.J.",
"M.M.E.J.V M V D w.>.4.| c $ t V M $ $ 1 | z.>.Y | | | | | | | | | | | | | | | | | | | | | | | | - c 1 V N.J.J.J.J.J.J.J.J.J.J.J.",
"I.J.J.M.X V t c | ^ ` a.; c c c O O c . -.^ >.w.| | | | | | | | | | | | | | | | | | | | | | | | $ c 1 V b.J.J.J.J.J.J.J.J.J.J.J.",
"J.J.R.n.v.M.N.J.1 c c ; %.| ` | w.-.w.-.| w.Q Q | | | | | | | | | | | | | | | | | | | | | | P w.1 c $ V B.M.N.I.J.J.J.J.J.J.J.J.",
"N.J.b.N.J.E.m.J.1 t $ c | >.>.Q ^ z.z.L w.I ^ z.| | | | | | | | | | | | | | | | | | | | | | | } 1 s 1 V b.J.J.M.J.J.J.J.J.J.J.J.",
"N.J.J.J.J.b.M.J.1 t t c @.>.>.i.i.R >.| @.| @.Q | | | | | | | | | | | | | | | | | | | | | | w.L $ c 1 V B.J.J.J.J.J.J.J.J.J.J.J.",
"M.b.J.b.J.J.J.J.d 1 1 c | | w.| Y z.R Q Q z.R 4.| | | | | | | | | | | | | | | | | | | | | | L Q 1 c 1 V b.J.J.J.J.J.J.J.J.J.J.J."
};
