/* XPM */
static char *_11ef5646aee4265bebf8d2261b58a12AxaWuocsMDGypQVm[] = {
/* columns rows colors chars-per-pixel */
"64 64 158 2 ",
"   c #10005F",
".  c #0E0065",
"X  c #0F016B",
"o  c #120066",
"O  c #12016B",
"+  c #18026C",
"@  c #140071",
"#  c #190076",
"$  c #130078",
"%  c #1C00BE",
"&  c #2402BA",
"*  c #2F09BE",
"=  c #47439A",
"-  c #4E469F",
";  c #4F4B9E",
":  c #504997",
">  c #52469E",
",  c #51499F",
"<  c #4E46A1",
"1  c #4F49A3",
"2  c #4F4AA8",
"3  c #5247A4",
"4  c #5149A3",
"5  c #594DA6",
"6  c #5249AB",
"7  c #5B4CA9",
"8  c #1E00C0",
"9  c #2501C6",
"0  c #2900C5",
"q  c #2601C9",
"w  c #2800C9",
"e  c #2800D0",
"r  c #4B0ECE",
"t  c #4110CB",
"y  c #4F1DCE",
"u  c #4F07D3",
"i  c #440ED4",
"p  c #4E0ED6",
"a  c #4A0FDB",
"s  c #530DD6",
"d  c #530DD9",
"f  c #4410D5",
"g  c #4B11D5",
"h  c #4A11DA",
"j  c #5610D3",
"k  c #4A10E1",
"l  c #7E6DC9",
"z  c #8364CC",
"x  c #856ECC",
"c  c #8A6FCC",
"v  c #8971C7",
"b  c #8973C6",
"n  c #8A72C6",
"m  c #8872C4",
"M  c #8C74C5",
"N  c #8773CA",
"B  c #8775CB",
"V  c #8576CB",
"C  c #8673CC",
"Z  c #8773CC",
"A  c #8772CD",
"S  c #8773CF",
"D  c #8672CC",
"F  c #8871C9",
"G  c #8B73C9",
"H  c #8A72C8",
"J  c #8970CB",
"K  c #8B71CA",
"L  c #8972CA",
"P  c #8A72CA",
"I  c #8A73CB",
"U  c #8B73CB",
"Y  c #8A74C9",
"T  c #8874CB",
"R  c #8C76CB",
"E  c #8871CC",
"W  c #8970CC",
"Q  c #8A71CC",
"!  c #8B71CC",
"~  c #8A71CD",
"^  c #8972CD",
"/  c #8972CC",
"(  c #8B72CD",
")  c #8A73CD",
"_  c #8971CF",
"`  c #8970CE",
"'  c #8A71CF",
"]  c #8B72CE",
"[  c #8A73CE",
"{  c #8E71CD",
"}  c #8F70CD",
"|  c #8D73CC",
" . c #8C72CD",
".. c #8C73CE",
"X. c #8C73CF",
"o. c #8D73CE",
"O. c #8F72CE",
"+. c #8975CC",
"@. c #8B74CC",
"#. c #8975CE",
"$. c #8B74CF",
"%. c #8C74CC",
"&. c #8F75CC",
"*. c #8B72CD",
"=. c #8C78CF",
"-. c #9071CE",
";. c #917ACD",
":. c #856FD1",
">. c #8C6FD1",
",. c #8771D5",
"<. c #8971D1",
"1. c #8873D0",
"2. c #8B72D0",
"3. c #8A72D0",
"4. c #8A72D2",
"5. c #8C73D1",
"6. c #8B76D3",
"7. c #8C72D2",
"8. c #8B72D8",
"9. c #8973D8",
"0. c #9073D0",
"q. c #927FDB",
"w. c #9A7FDC",
"e. c #967AE1",
"r. c #9879E1",
"t. c #9F83D6",
"y. c #9585DE",
"u. c #9683DE",
"i. c #9B81DC",
"p. c #9B82DD",
"a. c #9A83DD",
"s. c #9B82DE",
"d. c #9A83DE",
"f. c #9C83DE",
"g. c #9D82DF",
"h. c #9F82DF",
"j. c #9885DF",
"k. c #9B84DE",
"l. c #9D84DF",
"z. c #9C85DF",
"x. c #9E84DF",
"c. c #9C85DE",
"v. c #9D88DD",
"b. c #A084D8",
"n. c #9784E0",
"m. c #9984E1",
"M. c #9B86E1",
"N. c #9D84E0",
"B. c #9E85E1",
"V. c #9D86E0",
"C. c #9F86E1",
"Z. c #9C87E2",
"A. c #9C85E2",
"S. c #9989E2",
"D. c #9C88E2",
"F. c #A187E2",
"G. c #A186E3",
"H. c #A183E4",
/* pixels */
"O @ O @ @ @ O O w q 9 0 g s p g 9 9 0 9 q 0 9 9 w w 9 9 @ @ o O O o O X O o @ O 9 0 q q 0 q 9 w q 9 0 h i p j g p p p p p p p p ",
"o o o o o o X o 0 9 0 0 g s s g 9 9 9 q q 9 9 9 0 0 9 9 O o o O o O O X O O X @ 9 9 9 9 9 9 9 9 9 0 0 p p s s g p p p p p p p p ",
"O O O O O O O O w q 9 0 p d s s 0 0 0 0 0 0 0 0 0 w w 0 @ O O @ @ O @ @ o o O O 0 0 0 0 0 0 0 0 9 0 0 h d d s s p s p p p p p p ",
"O O o O O O O o 0 9 9 0 i g p i w w w w w w 0 w 0 0 & & # + O o O X @ . + o o O w q 0 w w w 0 w 9 0 0 h h p i p s s s s s s s s ",
"1.1.[ [ [ [ #.[ ..#.K x 0.-.....K T T K K K T K ..1.[ 8.m N N #.O O o + 1.6.[ 1.T T K K K K T K &.[ [ -...} ....N N D D x S N S ",
"K K K K K K K K K K T K ..T K K [ K [ K [ [ [ [ [ &.v c K [ N m o o O o 6.#.[ ..K K [ [ [ [ [ [ { #.T K K K N B N K N K K K K K ",
"1.1.7.1.1.1.7.[ [ [ [ c [ 1.S [ { G { T K K K T 7.[ [ [ #.[ [ [ + o O o [ K &.K T { { T K T T { K K [ [ #.[ S N [ c c [ [ [ K [ ",
"K K K K K K K K #.K K { [ ....c T | T | | T K { { K [ K K v { K O @ O O 1...{ ..G | T | T { K K R B K K ....K ..c [ [ K c K S K ",
"..[ [ [ [ [ [ [ [ [ [ [ c K [ [ [ [ [ [ [ [ K [ [ K c [ c [ K { q 9 9 9 S K K m [ c ....[ c ..[ K { [ K [ K c [ [ K [ [ [ [ [ [ ",
"[ K ..K [ K { [ [ K [ K ..{ { [ K { { K ..c ..[ [ { ..[ ..[ [ [ q 0 0 0 [ K [ #.[ [ c [ ..[ { K [ [ [ { [ { ..[ [ [ K { { K ..c ",
"c ..c { c ..{ K ..K [ { K ..K [ c ..K { K [ c [ [ { K [ { K [ [ 0 0 9 0 [ [ K | { [ ..{ ..K { c [ [ c ..[ { K [ [ [ [ ..K { { K ",
"K { [ ..[ K ..c [ { [ [ [ c [ [ [ [ [ [ [ ..{ K [ K { [ [ [ K { 0 0 0 0 x C S B K [ [ K [ [ K [ ..c [ [ [ K { [ { K [ c [ [ [ [ ",
"[ { K [ [ { K [ { ..[ [ ..{ K [ c ..{ [ K { [ K [ ..K [ K [ [ ..q 9 q 8 5 4 4 , [ [ [ [ { K [ [ { [ [ { [ [ { [ c [ K { [ ..{ K ",
"[ [ [ [ [ [ [ [ K c [ K [ c ..[ [ [ K [ [ [ [ { [ c [ ..{ [ [ c q 9 q 8 3 ; 1 1 c [ [ K [ [ K { K [ [ K [ K K [ ..[ [ [ [ c [ [ ",
"[ [ c ..{ K [ [ [ [ [ { { ..K [ K [ [ K [ [ c ..K ..c { c ..[ [ 0 q q 9 5 4 3 1 ....[ { [ { K [ [ K [ [ c { K { { K [ [ c [ [ { ",
"{ [ K { ..c [ K { [ [ [ K c [ ..{ [ [ { ..c [ ..[ [ [ K [ [ K [ 0 0 q q 3 4 3 3 K [ c ..c ..[ [ [ { ..c [ [ [ [ [ [ K { ..[ [ K ",
"K [ [ [ c K [ [ [ ..[ { K [ [ [ { K [ [ [ { K [ c K [ K [ c K K 9 0 9 9 < 1 1 1 S K [ K [ K K K [ [ [ [ c ..{ [ [ { K [ [ ..{ K ",
"[ [ [ K ..{ { [ K ..c ..[ [ [ K [ [ K { c ..[ [ [ K c K S K c S 9 0 q 9 3 1 1 1 K K c c c c [ c { K ..c [ [ K [ [ K { [ [ c [ [ ",
"c K [ { K ..K [ [ c ..[ { [ [ { [ { K [ { c { K [ c K c c c K K q 0 w 9 3 1 1 1 [ c K S K [ c [ K { { K K [ [ K [ ..{ [ c [ [ { ",
"..{ [ [ [ c [ [ ..[ K [ K [ c ..c ..[ [ K [ [ [ K c [ [ K [ [ c 9 0 q 9 3 ; 1 1 [ K c [ K c [ c [ [ [ [ { [ [ { [ c K [ { [ [ K ",
"{ ..[ [ ..{ K [ [ [ [ K [ [ [ ....c [ K [ K [ ..f.f.f.f.f.f.f.f.q 0 w 9 3 1 1 1 d.d.f.f.N.f.f.f.[ [ K [ [ [ c ..c [ K { K [ { K ",
"K c [ K [ c ..[ K { c { [ K { [ { [ [ { [ ..c [ A.A.F.f.l.A.l.l.9 0 q 9 3 ; 1 1 f.N.N.N.N.N.N.N.{ c { [ ..c [ [ ..[ [ [ [ [ [ [ ",
"[ [ [ { { ..K [ [ [ ..c { K ..K K [ [ [ ..c ..K A.A.H.f.A.f.A.F.9 0 w 9 3 1 1 1 N.N.N.N.N.N.N.N.K [ { [ { [ [ [ { K [ [ c [ [ { ",
"{ [ [ [ K c [ ..[ K { [ [ [ [ #.[ [ [ K { [ ..[ b.A.l.A.A.F.A.A.9 0 q 9 3 1 1 3 N.F.A.N.N.F.A.A.[ [ K [ K [ { K [ [ K { ..[ [ K ",
"< 1 4 1 3 1 1 1 A.A.l.l.j.l.l.l.f.l.l.l.l.l.l.l.1 1 1 4 3 1 1 1 O O O O 6 1 1 4 3 1 1 1 1 1 1 1 d.A.u.D.4 1 ; 2 > y.F.i.i.l.j.l.",
"1 1 1 1 1 1 1 1 A.A.l.l.l.l.l.l.f.f.l.l.l.f.l.l.1 1 1 1 1 1 1 1 O O O O 3 1 4 4 1 1 1 1 1 6 1 1 l.N.d.M.> 1 1 1 4 j.f.H.F.f.f.l.",
"1 1 1 1 1 1 1 1 A.l.l.A.l.l.A.l.l.j.A.l.j.A.l.l.1 1 1 1 1 1 3 1 O O O O 3 1 1 4 1 1 3 1 1 1 1 1 d.d.A.M.4 > 4 4 > A.F.N.A.u.b.A.",
"1 1 3 1 1 1 3 1 M.D.j.D.M.D.M.j.M.D.M.D.D.M.M.M.1 3 1 1 1 1 2 1 O O O o 6 ; 1 4 1 1 1 1 1 1 3 1 D.M.n.q.5 ; 1 2 5 u.A.A.M.D.D.d.",
"1 1 1 1 1 1 1 1 4 , 4 > 4 3 > 4 4 4 > 4 , 3 3 , 1 1 1 1 1 1 1 1 O O @ o 1 ; 1 3 3 1 1 1 3 1 1 1 - 4 > 5 = 1 1 1 - 5 4 4 4 4 4 5 ",
"3 1 1 1 1 3 1 1 1 1 1 1 4 1 1 1 1 4 1 1 1 1 1 1 1 1 1 1 6 1 1 1 O O O O 6 1 1 3 1 1 1 2 1 1 1 1 4 1 > 1 1 ; ; 1 2 < 3 1 1 4 ; > ",
"1 1 1 3 1 1 1 3 1 1 1 1 1 1 1 1 1 1 1 1 1 1 1 1 3 1 1 3 1 1 1 1 O O O o 1 1 4 4 1 1 3 1 1 1 1 1 ; 1 4 1 2 1 1 3 1 1 5 1 < 1 1 3 ",
"1 1 1 1 1 1 2 1 3 4 3 3 4 3 3 4 3 3 4 3 4 3 3 4 1 1 1 1 1 1 1 3 O O O o 6 ; 4 1 1 1 1 1 1 1 1 1 1 3 3 3 3 ; 4 3 2 1 3 3 4 1 3 3 ",
"@ O o O O @ o O q 9 q 9 q 9 q 9 9 q 9 9 9 q 9 9 q q 9 9 O @ O X X O O O O O X O 9 9 q q 9 0 9 q 9 q 9 0 9 q 9 q 9 w 9 q 9 q 9 9 ",
"O O O O X X O X 0 0 0 0 0 0 0 0 0 0 0 0 0 0 0 0 0 0 9 9 O o o O O O O O O O O O 0 0 0 0 0 0 0 0 0 0 0 0 0 0 0 0 0 0 0 0 0 0 0 0 ",
"o X + O X . o X w w 9 q w w 9 q w w q q w w 9 q 0 q q q @ + O @ O O @ O + O O O 9 q q q w q q q q q w w 9 q q 9 w q w 9 q q w w ",
"@ O O   # + + + 9 9 9 9 9 9 9 9 9 9 9 9 9 9 9 9 9 q 9 & $ O O X O o o O O O O O 9 9 9 9 9 9 9 9 9 9 9 9 9 9 9 9 9 9 9 9 9 9 9 9 ",
"O X X # t g g f 4 3 3 3 3 3 3 3 4 4 3 3 4 3 3 3 4 4 5 6 : , 4 , 6 1 3 3 2 1 6 3 3 3 3 4 3 3 3 3 4 3 < 3 3 3 4 4 3 3 3 3 4 4 3 3 ",
"@ X . + g d s s 1 ; ; 1 1 1 1 ; 1 1 1 ; 1 1 ; 1 4 1 1 2 ; 2 4 ; 1 1 1 1 1 1 1 1 1 1 1 ; 1 ; 1 1 ; 1 1 1 1 1 1 1 1 ; 1 1 1 1 1 ; ",
"O O O + g s d s 1 1 1 1 1 1 1 1 2 1 1 2 1 1 1 1 2 2 1 1 3 2 1 1 1 1 ; 1 4 1 1 1 1 1 1 1 1 1 1 1 1 1 2 < 1 1 1 1 1 2 1 1 1 1 1 1 ",
"O X X + f j s i 1 1 1 1 1 1 < 1 1 1 < ; 1 1 1 1 4 3 3 3 4 4 1 3 4 4 4 4 4 4 4 4 < 1 1 1 1 1 1 1 1 1 1 ; 1 1 1 1 < ; 1 1 1 1 1 1 ",
"O O O O 4 1 1 4 ..K [ c ..{ K [ K [ { K [ c ..{ c ..{ [ [ { ..[ [ ..[ { { K [ K [ c ..{ { K [ K [ K [ [ [ [ ..c 1 < 3 4 3 1 1 3 ",
"O O + o 2 1 1 4 c [ ..[ [ K { ..K [ [ [ [ [ [ K [ [ K [ [ K [ K K [ [ K c [ [ ....[ [ K c [ [ ..[ { [ K [ K { [ 1 1 3 5 1 1 1 3 ",
"O O O O 1 1 4 4 [ ..[ K [ K [ c [ c [ [ [ [ [ [ K [ [ K [ { K ..[ [ [ [ [ [ [ [ [ [ [ [ [ [ [ [ [ c ..{ { K [ [ 1 , ; < 1 1 1 2 ",
"X O O O 6 ; 1 4 K ..[ { [ { [ [ [ [ { K c [ K { { [ [ { [ c [ [ c [ K { K { [ K c [ K { K { [ K { ..c [ [ [ K { 4 4 4 5 < 1 1 1 ",
"O O O O 3 ; 1 4 { K [ c K { [ [ [ [ { [ { [ ..K K [ [ ..[ [ [ [ ..{ K [ [ [ ..{ ..{ K [ [ [ ..{ K [ { K ..{ K [ S S N l 2 1 4 4 ",
"O O O O 6 1 1 3 [ [ [ [ [ ..c [ c [ K [ K [ ..[ { [ [ c [ K { [ [ K { ..K { c [ [ K { ..K { c [ [ [ [ [ c [ [ [ [ K 7.S 4 ; 5 4 ",
"O O O o 3 1 1 4 K [ [ [ [ [ { K ..{ K [ [ ..[ c [ [ c [ c ..{ K [ K [ c [ c ....[ K [ c [ c ....[ [ [ c [ ..[ K K K [ N 4 1 1 < ",
"O O O o 6 ; 1 4 { ..c [ K { [ [ [ K { ..c [ K ..K { ....[ K ..c [ { [ [ [ [ K [ [ { [ [ [ [ K [ { [ K { K [ [ [ N K #.C , 1 1 1 ",
"q 0 q 9 3 ; 1 1 [ [ K [ [ K [ [ c ..{ [ [ { ..[ c K [ [ [ ..K [ [ K c [ c [ K { [ K c [ c [ K { K [ { K ..{ K [ { K [ [ { [ [ c ",
"q 0 q 9 4 1 1 1 c [ { ..[ { c [ [ [ K [ [ K [ K ..{ { [ [ K [ ..[ { ..[ ..[ [ [ [ { ..[ ..[ [ [ [ [ [ [ c [ [ [ [ [ [ K K [ { ..",
"9 0 q 9 3 1 1 ; ..K [ c K { { K K [ [ K [ { K ..K ..K [ c { K { [ { K [ { K [ [ [ { K [ { K [ [ [ [ [ c [ [ [ [ [ K [ { [ K K [ ",
"9 0 q 9 < 2 < 1 [ { [ [ [ [ [ [ { [ [ { [ c [ [ [ c [ [ [ [ [ [ [ K { [ [ [ K { [ K { [ [ [ K { [ K { ..K { [ K c { [ [ [ { [ [ ",
"q 0 q 9 4 1 < 1 { [ K { [ K [ [ K [ [ ..[ [ [ ....[ c ..{ K [ [ [ { K [ K [ [ ..[ { K [ K [ [ ..{ K [ [ [ c ..{ ..c [ K [ { K [ ",
"9 0 q 9 3 ; 2 ; K [ [ ..[ { c [ { [ [ c [ K { [ ..c [ [ [ [ K { [ c ..[ { [ [ c [ c ..[ { [ [ c [ [ K { { ..c [ { [ [ { c ..[ [ ",
"q 0 w 9 3 ; 2 1 [ [ [ c { [ ..{ [ [ c [ c ....K { [ [ [ [ [ [ ..K ..K [ [ [ c [ K ..K [ [ ..K { [ { K [ K [ { [ K [ [ [ ..c { K ",
"0 0 w 9 3 1 1 1 c [ [ [ K [ [ K K { ....[ K ..#.K [ { K { K [ c [ c [ ..K { ....[ c [ ..K [ [ { c ..[ [ [ [ K [ [ [ [ K { [ [ [ ",
"0 9 9 q 3 5 1 1 4.K [ 7.v.l.N.b.F.f.f.N.N.N.l.l.f.F.l.l.N.N.f.F.c K [ c K K [ c 4.N ..>.&.[ 7.m A.b.l.l.l.l.l.l.>.K K 4.f.Z.m.M.",
"w 9 9 9 3 3 1 1 T M &.c l.j.m.d.A.A.N.B.B.N.A.A.N.A.A.A.N.N.A.A.c [ K c S K S K v | ..[ N N :.[ A.A.A.A.A.A.A.A.v G ..[ t.t.A.m.",
"9 9 q 9 4 > < 3 ..| 1.N A.j.M.M.l.v.v.l.A.l.b.l.l.b.v.l.b.A.b.A.K K [ [ c [ c K ....>.[ [ &.S S F.l.v.l.b.F.l.l.K &.1.c F.v.d.l.",
"q 0 q % 7 > 3 > ..c K &.r.H.H.w.v.j.j.M.M.j.M.M.M.M.y.M.M.M.j.j.[ c c K K K c [ c [ S ;.z >.c 7.j.j.j.j.j.M.j.M.4.5.x ;.e.A.N.j.",
"w 0 w w q.m.M.M.t.l.N.q.y r p i s s s d s d s s d d s d s s d d f.f.f.f.d.d.f.f.l.v.l.r.y r p p s s d s d s s s j.t.D.e.* 9 0 0 ",
"w w w 0 N.N.m.d.A.j.l.H.r s s s p p p p s p p p p p p p p p p p N.N.N.N.N.N.N.N.d.u.v.H.r s s s d p h s p p d p C.t.v.C.9 w w 9 ",
"0 0 w 0 B.d.N.N.A.Z.M.H.p s j s p p s p g p p p p s p p s p p p N.N.f.f.F.f.N.N.F.m.j.H.p d j p p p p p p p p p Z.Z.i.j.w w 9 0 ",
"q 9 0 0 M.d.N.m.b.m.y.w.g s p h p p p p p p p p p p p p p p p p N.F.F.A.N.A.A.A.t.l.j.A.g s i h p s p p p p p p m.Z.v.v.0 9 9 0 "
};
