/* XPM */
static char *_2ba1836ca4a4617cc9729ffa70a59a0vEE9I9xBKrMWJJKs[] = {
/* columns rows colors chars-per-pixel */
"64 64 183 2 ",
"   c #1F00BB",
".  c #2302B2",
"X  c #2904B3",
"o  c #2401BD",
"O  c #2903BD",
"+  c #2609BB",
"@  c #492EBD",
"#  c #1F00C1",
"$  c #2501C4",
"%  c #2902C4",
"&  c #240AC1",
"*  c #2808C1",
"=  c #2501CA",
"-  c #2902CB",
";  c #2708C8",
":  c #2E09CB",
">  c #2500D2",
",  c #2A01D2",
"<  c #2600D9",
"1  c #2D02D8",
"2  c #2311D9",
"3  c #3F26C2",
"4  c #5534DD",
"5  c #5732E2",
"6  c #5640C9",
"7  c #5C41DC",
"8  c #6C55D9",
"9  c #564FFF",
"0  c #5756F9",
"q  c #5458F9",
"w  c #6B52E4",
"e  c #6D54EC",
"r  c #7259E9",
"t  c #745BF1",
"y  c #7962F0",
"u  c #7D66FF",
"i  c #8A78DC",
"p  c #8F75E2",
"a  c #8263FF",
"s  c #ACAEAD",
"d  c #ACB1AB",
"f  c #B2B5AD",
"g  c #ACAEB4",
"h  c #AEAEBC",
"j  c #B4AFB6",
"k  c #B8AEB6",
"l  c #B1AFBD",
"z  c #AEB2B6",
"x  c #AFB1BD",
"c  c #B2B3B5",
"v  c #B5B9B5",
"b  c #B8BBB4",
"n  c #B2B2BE",
"m  c #B7B8BA",
"M  c #B9B8BE",
"N  c #A28CDE",
"B  c #AEADC3",
"V  c #AEACCA",
"C  c #B2AEC3",
"Z  c #B8AFC2",
"A  c #B2AECB",
"S  c #AFB1C2",
"D  c #AFB1C9",
"F  c #B3B3C2",
"G  c #B9B4C4",
"H  c #B5B8C4",
"J  c #B8B8C3",
"K  c #B3B2CA",
"L  c #B9B4CB",
"P  c #B9B8C8",
"I  c #B2ABD2",
"U  c #B6B2D2",
"Y  c #BCB3D2",
"T  c #9F95EC",
"R  c #828FF5",
"E  c #A294F3",
"W  c #A996F0",
"Q  c #A090FB",
"!  c #AD96FE",
"~  c #B59DFD",
"^  c #B89DFF",
"/  c #BDA5EF",
"(  c #BFA8EC",
")  c #B4B3ED",
"_  c #BDA5F5",
"`  c #B5AAF5",
"'  c #BDA9F4",
"]  c #B4A5FF",
"[  c #BDA5FD",
"{  c #B7A8FD",
"}  c #BDAAFD",
"|  c #B5B1FD",
" . c #BEB0FE",
".. c #C19EFF",
"X. c #C1ABE9",
"o. c #C4B0ED",
"O. c #C1A9F6",
"+. c #C2ACF5",
"@. c #C2ACF5",
"#. c #C9ADF4",
"$. c #C0A7FB",
"%. c #C0A3FF",
"&. c #C6A2FD",
"*. c #C3A7FD",
"=. c #C0A7FF",
"-. c #C1A7FF",
";. c #C2A6FF",
":. c #C3A6FE",
">. c #C8A4FC",
",. c #CCA6FF",
"<. c #C9A6FE",
"1. c #C0A9FB",
"2. c #C2AAF9",
"3. c #C5A8FA",
"4. c #C3ADFA",
"5. c #C1ACFB",
"6. c #C0A8FC",
"7. c #C1A9FD",
"8. c #C1A8FC",
"9. c #C2A9FD",
"0. c #C2A9FC",
"q. c #C1ABFD",
"w. c #C0A8FE",
"e. c #C1A9FF",
"r. c #C0A8FF",
"t. c #C2A8FF",
"y. c #C2A9FF",
"u. c #C0AAFF",
"i. c #C1ABFF",
"p. c #C1AAFF",
"a. c #C2AAFF",
"s. c #C3ABFF",
"d. c #C5A9FE",
"f. c #C3ACFC",
"g. c #C1ADFF",
"h. c #C2ACFF",
"j. c #C3ACFF",
"k. c #C6ADFF",
"l. c #C4ADFE",
"z. c #C3AAFE",
"x. c #C8AAFF",
"c. c #CCA8FF",
"v. c #C9ADFF",
"b. c #C9ACFE",
"n. c #C7B2F7",
"m. c #C5B2F2",
"M. c #CCB2F1",
"N. c #CCBBF6",
"B. c #C6B0F9",
"V. c #C7B1FF",
"C. c #C4B2FE",
"Z. c #C5B1FD",
"A. c #C8B2FA",
"S. c #C9B1FF",
"D. c #CBB1FF",
"F. c #CAB3FF",
"G. c #CDB6FF",
"H. c #CAB3FD",
"J. c #CDB9FE",
"K. c #D0B8F6",
"L. c #D1BBFF",
"P. c #D2BCFE",
"I. c #C3C0F5",
"U. c #D0C2F5",
"Y. c #EEE9E5",
"T. c #E7E7EF",
"R. c #E9EAEF",
"E. c #E7E7F3",
"W. c #E7E6F6",
"Q. c #E6E6F5",
"!. c #E9E6F4",
"~. c #E7E9F6",
"^. c #ECE8F7",
"/. c #EBEAF6",
"(. c #EBE6FC",
"). c #ECE9FA",
"_. c #EFEAFE",
"`. c #ECEDFF",
"'. c #EDEBFA",
"]. c #F1EDF2",
"[. c #F0EBFC",
"{. c #EFF0F5",
"}. c #F2F1FF",
/* pixels */
"e.e.h.e.5.%.5.f.%.%.[ h.e.[ O.f.f.5.O.f.e.f.e.e.' % = % o = - % = $ = = = = - = , O - - % - $ [ } ' @.k.%.3.h.} e.} ' e.} ,.} } ",
"e.e.h.h.e.5.e.5._ v.n._ 4.o.v.v.v.A.f.D.D.G.n.D.D.o < = $ = = - $ $ * $ % $ $ * = o - = = = $ h.V.V.k.D.L.L.V.e.} h.[ e.} &.} 4.",
"e.%.} e.h.} %.5.e.[ [ e.[ %.- % , : % = , % % $ = C n n c L c l G F n h F l l F c F ^.'.j G $ O $ $ - O X $ - 5.[ h.} 5.5.<.} } ",
"3.%.} e.e.[ 5.e.e.5.[ b.} f.- % O o % - % o $ - = A C F F !.C F g H h G F h H x n K E./.c l % = - - $ o , - % e.3.X.} 3.e.c.} e.",
"e.$.%.h.h.5.e.e.4.e.%.4.% % $ , < , = $ $ , $ = = n S F x `.S x x n x S x z H x S D v K B U = # $ = - X > - - _ [ #.{ <.%.<.[ e.",
"f.e.e.e.e.e.e.%.h.m.4._ - = : $ o C c G c A n F n G h H S g H S F S F S S K B F D c K z n n B G l A j l $ $ - O X [  ._ e.v.%.} ",
"f.h.e.5.e.e.f.<.U.G.L.k.% = = . # K c B z B n B g B F z z D x h F F h G h F G B n h n n H B H g [.(.l G o - $ : > <.} k.[ @.k.} ",
"[ e.5.} %.b.,.<.= % , = % % = A F B F x H S x F n L x K S K z P F h G Q._././.n c K n F K S x F /.[.Z B = = - = = @.` <.f.4._ } ",
"} [ 4.<.f.%.%.<.O % $ - = - $ n K F S x x n K g n F F h F l n F F n C n n F l n n C F A M z F z F n K F F l , % - % <.e.e.4.[ } ",
"} @.f.%.O.V.J.J.- % - $ $ = > L n R.S K x x F '._.n F C F h P h C n F F C F F C F c c V B J B L n S x S n n $ % - X U.k.e.} } h.",
"h.' %.e.V.] Q E > $ = = = o + C C (.F S x H z (.Q.S F F C K g K S F B S F S F S F /.).H c h H c C L x c F A O = = $ N ^ 5.[ e.%.",
"h._ &.f.} * # $ l C G c n n B n F ^.F S x H z F H F H x x x G l x x x n x x S n x {.T.C S K z n (.).F n l c _.!.C $ , > f.@.%.e.",
"' k.v.v.P.$ , O F n z c L z H n n n g F F x C F h g C F F l [.h F F n F n F F n A _.).n l H S B c m x x D B /./.F ; $ % G.G.X.%.",
"} [ 3.% % - = % K g D D S x K x H z G S h v I M G l C n l n E.G F n n n n n n n c C F n A c K n x V H x G n h F B = = * [ %.$.v.",
"} [ f., > . $ = B v H h c K x z K S z n K V $ $ $ $ % $ $ $ % $ $ $ $ $ $ $ $ $ = $ $ = $ B F n H I z F n J S H G 4 7 = - % %.4.",
"} f.3.- $ n S K K z S K S z c U x x K n F C $ $ % - - % - $ - - $ = = = = = $ - - % $ = $ M h F x K z F n S n z z y a $ O O h.%.",
"<.<.f.= = c F z x l n n F z n F F c '.Q.n l * o % - % % $ % % % % % % o % $ % % % , $ > = x S z h `.x S z x H n F t r % % % %.[ ",
"c.N.G.$ = C F U H F _./.D G U C A h E._.G C $ 1 - $ $ - - = $ = = = = = - = = = - $ : o $ c n I c V x K V z B S H e e $ X , _ f.",
"_ _ ! % o n F z B c E.'.n g c = $ * % , $ % = $ $ = - = $ = = = = - = = - $ - - o - > $ o K C Z F F c F c P B F h u t = % , e.5.",
", $ $ A n B F F H c (.(.H n P # % $ - - O - = C F F n F F F l F l l F F g ).F n F l b n > - $ % $ > * $ A x G h h K K - = , m.$.",
"= $ $ L n P B n K z G F c C C > - % = $ $ = o F n h F n C F n F G F n C F ).l n B G B H $ = - o - = $ $ G ^.l H H c z $ * = B.C.",
"$ = $ C G x n n F x K z G l F   - % $ = $ $ $ F F [.Q.F l F g n g F n n F F n F S K n C = > o = # = - o C ].n F h A F $ > - } N.",
"% - = g H S D K C n S A $ % % L C C H h G z C n l F F l F F n F G x F C h F F B c h B b V F l C x B K % - $ $ A n H n * = o 8 w ",
"% = = F z v x x F x D c = - = n K h S F z H B H n l F F F l H x ).G h n G h F F z H K d c S K c n S F = % $ = n S h n B F = > # ",
"% $ = F x F ).!._.F B n $ - $ A x x n n F n x S n F n F x H x S Q.H F l h K x x F x n x F F [.^.F n F $ = - $ G x '.F F F = - $ ",
"$ - = F F n ).).).c M l = = o c x H l F l F H h /./.n F x H x x !.F l P F g x H F x H x n l ).^.x F C % - = $ h G W.F g n = = % ",
"% = = x S n F n F A h L ; $ = n n n )./.n n x F /.^.l F S x H x n l F g H x H h l G h x F F E.).x H C % - $ - G h K g G C = $ % ",
"$ = = n F G h x C   * o $ = $ z F F /.).n F n S n P l l x x x F F n F F x h F x ).!.F F h x H l x F C $ - - $ l F F F F n - $ % ",
"% - = n l l x H K $ . - $ F F K n F /.).l n F x l n G h S H h S F n n x H S h H [.!.n x z K x x S x F $ - - $ G n F l F F = - % ",
"$ = $ F n F S h F $ % - * C D S l l )./.F n x x K h g H n h G ).).F h G h x H x l F l n H h F F ~.'.^.; $ , % l F l F n l = - $ ",
"% $ = [.).F h H S $ - - = x V K F n n F n l F x x H x F l G g G n h F G x x x h F h H x H h F F F h F $ - - $ F l G n x G , $ % ",
"$ - - l l n F S x = - , o F c z n F F l F n n H n x H x F n C h n F F x F F h H F x x h x H g n S x F $ - = $ C n F n '.^.= $ $ ",
"% - = l n F C F z $ - o = z C A n x H S K z n A /.G x H n n n F n z K S v H S H x K D F n n F S V F n = % - % c n F F l G = = $ ",
"% $ = G F h x n n , % - = z z H n K z x x n n g ).l n x S n F l I c S D D x h D x K K z F H C l _.c x = - $ = ).~.G h F n = $ % ",
"% = = l F n G F n $ $ , $ D K z n P x S z K V H '.n n x G h n n z x v c x K n z z x c n C l n M ].n A % $ , # F G h F n l = - % ",
"$ - = n F l h F F $ = = = * $ = * # = $ K S z D x F S h H E.).).K K S x z c x D b C n $ > - , $ - $ $ $ = = $ G h G F h n = - $ ",
"$ - = F F g C G F S H L = - - % < = = $ j K n c x x H h x G x l n n n F P S F c A _.].$ $ - o = % $ = - L l F h n B n n l = = % ",
"% $ - l h n F l c x F g $ = % = $ = * $ G F c n F n h H x S n F F n C /.h K n B F [.!.$ % $ ; $ $ : - $ n x H n n F F n F - = % ",
"% = - l F H S G K K S S * - = $ = - $ $ $ o % n l F h F x h G F F g L E.H c V * o = $ - * $ # = = = $ $ F S S K G C l G h = - % ",
"$ = = n G g K ~.Y.(.c S C F x c F F c - % , = C ).E.l H x H h n B G F /.K g H = = % $ $ = F G K c n Z F F z U d g F ).!.F = $ % ",
"% $ = C z F H z F l F n l F l F F x F $ $ $ $ C /./.G F x n h n n g P n H n l = $ - $ - $ c G S x F G g n F x h K n /.E.F $ $ = ",
"- o - F x z S K l n n F F n n n z F P o , $ $ % = - # = = = $ = = * # = o $ $ $ - = % = = F B S F x F '.).h H F F S F P l $ $ $ ",
"- = , A n n F x F l F l n n G l F I c $ - - - = = = - - = = = = = - > $ - $ $ - > $ $ % # n S x S l F !.!.F F n x x n F G = $ % ",
"- O $ C F S F K ).n n n F l l F /._.n %   $ % % % $ % o $ % % % - % - o - % - % > - $ = $ U F F n n n F n G l l S B L # $ = 4 5 ",
"O.~ o , o o H h ).n n F F h l F n F c l P I = $ = - - - - $ - - % $ - , % % $ k c C F j K s P h l G F n h F n n K n B = = : [ [ ",
"D.G.% - = $ n K n l F l n n G h F h G K h P = $ $ = o $ % $ $ $ $ O = = . = - _./.L c B F H C F F n h x H x n F x n z = ; o G.N.",
"[ D.% $ $ = F c l F l F G n n F c C B z F h G n F F B F F L F C C l C C F A B _.^.G x H h S F c F h G x S h G c P g F o o , 5.e.",
"_ e.% = - $ C K F n F n h F l F h K B H z F n n F g H G h n n n H x H B c S n z n n S z S S K n l F x x F H W.).S K c , $ % f.%.",
"` } , - - $ c x F F ).).l F F _.S H z S z K g G n n F h F n n l n l F n G F n l F n l n F n l F S n H x F x F C x x l % % , @.} ",
"C.} % - $ $ A G n n !./.l n F !.n n x H H c n F n G h F Q./.F F F l F n l n F F n F F l l n F l n S z S z F h v S F l = , - V._ ",
"h.[ $ % = = A B c h G z n l n ].B F G F h )._.C l l F G Q.).F n n l n G l F n n F l P l F /.}.n c D F F B f K B C F n &     [ @.",
"k._ $ = o = $ % A F L B F C B L K x n V n ).(.l G F n h n F l F C n [.l l n l F n l n n F l l l S K B F L B = = > $ + 2 @ 4 %.>.",
"h.} $ = = = % o n n /./.).c G h x x S h c c c H h x x H x h H x n F /.n G F l l F l l F F n n F c S P g n F = = % $ > 0 T T @.<.",
"[ k.4.P.o * = = l F C C F C C F F S S H B n x S x H x x x H x F l G Q.h n l n F l F n l C F F l K h c n !.l $ = $ - o 0 J.I.h...",
"} B.' 4.% % = $ l F F F C F h F c j F V b x K S x z F F h H x x F F G F F F l n n l n F F g h G c S n S [.Y $ , % $ $ q e.| [ &.",
"{ } ' 3., % , = = $ = # = $ $ = = = $ = F F n S F S S x S x x F n h n n n F l F F F n l n F F l H > o , $ % $ O = p i R e.) } <.",
"} <.<.$. . .J.L.$ $ $ $ $ % $ $ % = $ $ n n c F /.).Q.H x G x h n n F n F n l ^.'.x n F x n n n n $ - O % - , $ = U.P.Z.v.' 3.h.",
"} f.<.<.} } C.v.= - - - = = - - $ , % o A j n C F C F h G C C P C C F F h C P ^.~.G F h C F F C K % = O - - o $ , h.%.h.3.' v.} ",
"} %.&.f.} } e.$.% $ % $ % $ % - O , - > - = $ $ = = # = = $ $ $ - $ = - * - # = - $ - = - $ $ $ $ > $ , $ - o $ X [ <.[ &.3.@.%.",
"} e.f.e.h.4.[ <.V.V.V.V.V.h.V.V.V.% > % % o - , $ - $ = $ = - $ = $ $ $ = - - = = $ - $ = $ = - $ + %.D.G.D.J.k.e.A.%.v...f.O.5.",
"} k.e.5.e.e.<.<.A.A.4.A.B.A.A.A.A.= - : $ 1 o % = = = - = - = - $ - - - = - = - - = - - - - - $ $ - b.M.b.v.H.v.A.X.f.v.%.b._ k.",
"h.V.e.[ e.f.[ f.f.f.e.e.e.e.e.e.[ - % o % - X % % % - % $ % $ % % - % $ % % $ % % % % % % $ % - , % #.#...&.b.b.k.%.e.3.[ e.e.e.",
"} e.} } [ e.h.h.f.%.%.e.<.f.f.e.[ , - - - = = > % $ - % % - - % $ = $ $ - $ $ - = $ $ $ - - $ $ $ > %.#.<.f.f.[ f.<.` 5. .e.h.[ ",
"e.[ } h.} } } } <.f.5.e.e.e.%.f.@.% - % o = = $ - - - % - $ % - - $ - $ $ - = $ $ - - = $ - $ - $ O [ @.e.%.@.} %.f.} } } } } 3."
};
