/* XPM */
static char *_c33c6579648491ae9c8e80ed5d4df0eFEgZOb54H4M6XGrC[] = {
/* columns rows colors chars-per-pixel */
"32 32 80 1 ",
"  c None",
". c #181425",
"X c #1B1C29",
"o c #1E1E28",
"O c #1F1C2E",
"+ c #2A312E",
"@ c #262333",
"# c #222C30",
"$ c #29293E",
"% c #3E2F33",
"& c #253434",
"* c #2E3932",
"= c #3F383E",
"- c #4B3938",
"; c #324D3F",
": c #38513D",
"> c #3A533C",
", c #2C2C41",
"< c #323346",
"1 c #3A3645",
"2 c #353649",
"3 c #2F4B40",
"4 c #38454B",
"5 c #365B47",
"6 c #3E4359",
"7 c #376148",
"8 c #3D6D4F",
"9 c #4D4446",
"0 c #43404E",
"q c #524F5C",
"w c #407353",
"e c #437A57",
"r c #467C56",
"t c #447F56",
"y c #74685F",
"u c #4A546F",
"i c #535D78",
"p c #6F6C77",
"a c #CD7D32",
"s c #458157",
"d c #47865B",
"f c #4A8A5E",
"g c #4A8C5E",
"h c #589A5F",
"j c #5E9D5D",
"k c #65914D",
"l c #66A35B",
"z c #69A55A",
"x c #6FA958",
"c c #4C9061",
"v c #4D9262",
"b c #509461",
"n c #559860",
"m c #CE8835",
"M c #D09D3C",
"N c #D5A93F",
"B c #DAAD3D",
"V c #8E8070",
"C c #B28A69",
"Z c #D2A740",
"A c #5A6988",
"S c #657088",
"D c #69758E",
"F c #7D7B84",
"G c #667693",
"H c #7F8FA9",
"J c #80848E",
"K c #B6A489",
"L c #9A98A0",
"P c #A2A1A7",
"I c #A8A7AD",
"U c #A3A9B2",
"Y c #C3B091",
"T c #E6B280",
"R c #DDC8A2",
"E c #EAD4AA",
"W c #C5C4C9",
"Q c #D4D3D6",
"! c #F1F0F1",
"~ c white",
/* pixels */
"                                ",
"mvvvvvvvvvvvvvvvvvvvvvvfvvvvvvvv",
"Zvvvvvvvvvvvvvvvvvvvvvdrgvvvvvvv",
"Zvvvvvvvvvvvvvvvvvvvvgsdsvvvvvvv",
"Zvvvvvvvvvvvvvvvvvvvvvgsvvvvvvvv",
"Zvvvvvvvvvvvvvvvvvvvvvvvvvvvvvvv",
"Zvvvvvvvvvvvvvvvvbnvvvvvvvvvvvvv",
"Zvvvvvvvvvvvve&&&>k&3vvvvvvvvvvv",
"Zvvvvvbnvvvve#...o+.o3nvvvvvvvvv",
"Zvvvvvhxvvve#...0WWL.o>vvvvvvvvv",
"Zvvvvvhxbne#...0Q~~!L.X3vvvvvvvv",
"Zvvvvvhxr*#....qQFQFW..X3vvvvvvv",
"Zvvvvvnlw......@pQ!I0...&vvvvvvv",
"Zvvvvvvvw.......qQFW....&vvvvvvv",
"Zvvvvvvvw.......@0@0....&vvvvvvv",
"Nnvvvvvvfww5%CKKKKKKV#wwevvvvvvv",
"Bznvvvvvvvvs-TY9yEEY=&vvvvvvvvvb",
"Znlvvvvvvvv8-TK.9EEK.&vvvvvvvvvh",
"Bzvvvvvvvvb8-TRKYEERV&vvvvvvvvvv",
"Zvvvvvvvvvb8-TEEEEEEK&vvvvvvvvvv",
"Zvvvvvvvvvv8-TEEEEEEK&vvvvvvvvvv",
"Zvvvvvvvvvv81PUUUUUUH&vvvvvvvvvv",
"Zvvvvvvvccg7,GGGGGGGu+vvvvvvvvvv",
"Zvvvvvvvvgd8$AAAAAAAu+vvvvvvvvvv",
"Zvvvvvvvvvg72HG,$,6HD&vvvbhvvvvv",
"Zvvvvvvvvvv8O24885@248vvhhxvvvvv",
"Zvvvvvvvvvvg88dvvc88tvvhxhzvvvvv",
"Zvvvvvvvvvvvbvvvvvvvvvchxhlvvvvv",
"Zvvvvvvvvvvvvvvvvvvvvvvhlvvvvvvv",
"Nvvvvvvvvvvvvbnvvvvvvvvvvvvvvvvv",
"avvvvvvvvvvvbjlnvvvvvvvvvvvvvvvv",
"avvvvvvvvvvvnljlvvvvvvvvvvvvvvvv"
};
