/* XPM */
static char *_e250176506040a5cdc428aab6ead3d2WuY7gfHyhCyf9zOg[] = {
/* columns rows colors chars-per-pixel */
"32 32 193 2 ",
"   c #0E0C1A",
".  c #110D1D",
"X  c #180C18",
"o  c #0D141E",
"O  c #19151C",
"+  c #181617",
"@  c #1A0E22",
"#  c #110C23",
"$  c #0F1724",
"%  c #151424",
"&  c #1A1423",
"*  c #161A25",
"=  c #1B1B25",
"-  c #1A132A",
";  c #1C1B2A",
":  c #14162B",
">  c #191931",
",  c #211526",
"<  c #231826",
"1  c #0D2223",
"2  c #1C2C2C",
"3  c #1A2726",
"4  c #1D372A",
"5  c #1F2831",
"6  c #1C3B35",
"7  c #22242D",
"8  c #242C2B",
"9  c #282226",
"0  c #223B2B",
"q  c #28362C",
"w  c #232C32",
"e  c #272A39",
"r  c #223134",
"t  c #29333C",
"y  c #2E3337",
"u  c #44342C",
"i  c #493A35",
"p  c #244639",
"a  c #34493B",
"s  c #3F5337",
"d  c #4D473B",
"f  c #202640",
"g  c #2D3944",
"h  c #2F3A4E",
"j  c #303741",
"k  c #3D3D42",
"l  c #3E3B4E",
"z  c #423C46",
"x  c #394E4D",
"c  c #2C5340",
"v  c #355847",
"b  c #3A5D52",
"n  c #366649",
"m  c #3D6C52",
"M  c #3D6A57",
"N  c #3B7255",
"B  c #4C424D",
"V  c #524147",
"C  c #4C4F5D",
"Z  c #4B4051",
"A  c #456B4B",
"S  c #42734E",
"D  c #426E54",
"F  c #446E59",
"G  c #4B6E5A",
"H  c #437654",
"J  c #437C53",
"K  c #44795B",
"L  c #4A7A5B",
"P  c #45745B",
"I  c #776B5B",
"U  c #4C586E",
"Y  c #4A5374",
"T  c #494464",
"R  c #786D7E",
"E  c #C87D2A",
"W  c #468C57",
"Q  c #498D57",
"!  c #49845C",
"~  c #458B5D",
"^  c #4B8D5D",
"/  c #488452",
"(  c #528E5D",
")  c #44935C",
"_  c #4C925D",
"`  c #4A9A5D",
"'  c #499657",
"]  c #52945D",
"[  c #5C9A5C",
"{  c #569A59",
"}  c #5FA157",
"|  c #64A15A",
" . c #6DA95A",
".. c #60A85C",
"X. c #70AA5D",
"o. c #478E63",
"O. c #4B8D62",
"+. c #4D8F6B",
"@. c #468661",
"#. c #528D64",
"$. c #558C6B",
"%. c #598E62",
"&. c #469363",
"*. c #4C9363",
"=. c #4B9963",
"-. c #4C936A",
";. c #48966C",
":. c #529364",
">. c #5C9365",
",. c #549964",
"<. c #5A9B62",
"1. c #52936A",
"2. c #53996A",
"3. c #589D68",
"4. c #58966D",
"5. c #4E9371",
"6. c #549671",
"7. c #5B9272",
"8. c #708962",
"9. c #609C60",
"0. c #5DA264",
"q. c #61A262",
"w. c #68A962",
"e. c #CC8932",
"r. c #D39D3D",
"t. c #CFA93E",
"y. c #D9AC35",
"u. c #D1A63D",
"i. c #D2A83F",
"p. c #D6A939",
"a. c #CAB037",
"s. c #898674",
"d. c #80857F",
"f. c #AE8E75",
"g. c #AFA67F",
"h. c #C98345",
"j. c #D4A942",
"k. c #D3A649",
"l. c #D3A641",
"z. c #EBAF7D",
"x. c #5D688A",
"c. c #5B6887",
"v. c #5E6694",
"b. c #6D7489",
"n. c #657989",
"m. c #787B84",
"M. c #667791",
"N. c #677B94",
"B. c #868E99",
"V. c #AE9F80",
"C. c #AD9D8E",
"Z. c #BC9E84",
"A. c #B4A289",
"S. c #B1A88B",
"D. c #BFB28F",
"F. c #A8A692",
"G. c #BDA790",
"H. c #8988A9",
"J. c #9B98A3",
"K. c #9FA8B1",
"L. c #A4A5AF",
"P. c #A4AAAC",
"I. c #A7A0A6",
"U. c #A3A6B2",
"Y. c #C6B297",
"T. c #D8B58B",
"R. c #E5B28C",
"E. c #E0B280",
"W. c #E5D19F",
"Q. c #DDCEA3",
"!. c #ECCFA7",
"~. c #E6D4A4",
"^. c #E5D5AD",
"/. c #EDD4AB",
"(. c #E8D5A4",
"). c #F3D2A9",
"_. c #EBD4B3",
"`. c #EAD9B8",
"'. c #C2C1C9",
"]. c #CBC8D4",
"[. c #D3CBD8",
"{. c #CFD5D5",
"}. c #D8D6D8",
"|. c #ECECEA",
" X c #FFFDE8",
".X c #EBFFFF",
"XX c #E5FCFF",
"oX c #FFF5FA",
"OX c #F5FFFF",
"+X c #FEFEFA",
"@X c #FFFFFF",
"#X c #FDFEFE",
"$X c #F8FEFC",
/* pixels */
"@X@X@X@X@X@X@X@X$X@X+X+X@X@X@X+X+X+X@X@X$X$X@X$XOXoX@X.X$XoXXX X",
"*.*.*.*.-.=.*.*.^ #.O.:.*.O.O.=.:.*.O.^ ^ O.:.%.:._ &._ *._ >.h.",
"_ _ _ _ *.] ^ W N O.-.&.) 2.;.=.&.=.-.*.-.2.*.*.:.*.$.#.O.&.:.u.",
"-.-.*.*.*.*.&.~ / ! #.^ Q :.^ ( &.:.-.^ _ ) ) =.] *.-.*.-.O.] a.",
":._ *._ *.*.*._ / O.1.*._ *.*.*.*.*.=.^ :.=.O.-.=.&.-.' ` ;.^ u.",
"*.*.=.*.*._ *.*.O.O.5.-.&.) &.;.2.O.:.O.#.$.#.#.1.+.$.( :.6.+.k.",
"#.:.1.#.:.#.#.*.` ' _ =.~ 0._ 1.$.@.:.=.' ` ] ,.] *.;.) _ -.( l.",
"_ *._ _ =.=.=._ -.,.$.p 0 8.s q 4 0 P 4.*.&.~ &.] ^ 1.=.) *._ t.",
") :.*.-.:.] ) >.` %.a 7 & y = % % ; 8 L ^ 1.-.;.[ ] -.*.-._ *.k.",
":.-.*.*.:.=.) #.^ v 7   J.].].z : - & 2 K -._ ^ | <.*.*.*._ -.l.",
"*.:.-.&._ ) ;.$.a * . I.|.@X@X}.z X O % 6 H <.{ X.<.] _ =._ _ i.",
":.^ -.) :.&.;.a ; - > ].m.}.m.[.C ; % - - 7 0 L  .[ *.*.#.*.^ t.",
"-.O.-._ _ *.4.4 * % - l P.|.}.R w - - X - - O P | :.*.-.1.*.*.l.",
"*.:.2.:.^ *.7.0 % & & - '.d.{.C - # - < . - O N [ *.*.*.1.+.*.l.",
"&.^ O.:.:.-.O.4 $ : - & B 9 k w , * & . > > o M ^ O.) _ *.*.:.l.",
"*.=.:.O.*.) ;.L S G 3 s.A.A.G.A.Z.g.f.u v F J ^ *.;.*._ :.] :.j.",
":.:.*.*.*.-.*.*.&.;.5 i Y./.^.I z Y.R.i J ] &.#.=.*.-.^ ( 3.q.y.",
",.*.*.*.:.:.*.O.~ 2.g + V.^.`.d O Z.R.i N _ &.>.*.*.1._ ] 3.0.y.",
"=.*.*.O.*.*.*.*.] Q 8 s.~.W.~.Y.S.Q.z.u m ] *.] *.*.-._ _ ,.<.p.",
":.*.*.O.*.:.:.O.-.6.y F.~./.).!._.).R.i A :.&.^ _ *.+._ O.-.,.i.",
"*.*.*.*.*.:.*.*._ O.q F.^.^._._.~.(.T.u A 1.-.=.O.*.-.O.:.O._ i.",
"*.O.O.*.*.*.*.*.) 2.g B.P.U.U.K.U.P.I.l D -.O._ *.*.1.] *.-._ l.",
"*.-.:.*.*.*.*.*._ _ 5 U M.M.N.N.N.n.b.e n ~ -.^ O.:.-._ _ -.*.l.",
"O.*.:.*.*._ *.*.*._ t Y x.c.c.x.v.x.c.f A ~ ~ O.O.*.:.^ =.*._ i.",
"*.-.=._ O.0.-._ ] $.6 n.H.T e e r b.H.h b ^ ] _ ] O.=._ O.-.:.u.",
"O.:._ :.^ w.<.[ =.:.M x j 3 b M m x g 1 m *.:.:.] *.*.*.*.*.*.i.",
"O.2.O.] ^  .[  .,.` :.H m m >.~ 2.K F D ^ ) _ O.*.-.*.*.O.*._ t.",
"^ 1._ :.:.| [  .>.Q *.-.&.*._ _ W -.1.*._ _ -.*.*.-.O.O.*.) *.t.",
"_ =.-.) -.] ] } 3.] =.=.^ *.~ 2.-.3.*.O._ *.*.O.&.-.*.( *.&.-.i.",
"_ *.-.~ 5._ -.] *.~ ^ O.#.1.-.*.W :.( :.*.-.&.:._ +.:._ -.*.:.r.",
"_ =.-.*.-._ -.*.:.-.-.*.*.O.:.-.0.q.9.] *.;.O.( *.O.*.] -.&.#.e.",
":.O.*.:.o.:.-.^ *.-.*.*.:.,.W _ | | ..{ ^ 1.:.] =.o.:.] &.1.$.E "
};
