/* XPM */
static char *_13f776da0a24369a6a7dc8a425b07ecDiy4EIt6oEQeOe69[] = {
/* columns rows colors chars-per-pixel */
"32 32 5 1 ",
"  c None",
". c #FEAE34",
"X c #FEBC3F",
"o c #FED956",
"O c #FEE761",
/* pixels */
"                                ",
" OOOOOOOOOOOOOOOOOOOOOOOOOOOOOo.",
" OOOOOOOOOOOOOOOOOOOOOOOOOOOOOoX",
" OOOOOOOOOOOOOOOOOOOOOOOOOOOOo.X",
" OOOOOOOOOOOOOOOOOOOOOOOOOOOOo.X",
" OOOOOOOOOOOOOOOOOOOOOOOOOOOo..X",
" OOOOOOOOOOOOOOOOOOOOOOOOOOo..XO",
" OOOOOOOOOOOOOOOOOOOOOOOOOo..XOO",
" OOOOOOOOOOOOOOOOOOOOOOOOo..XOOO",
" OOOOOOOOOOOOOOOOOOOOOOOo..XOOOO",
" OOOOOOOOOOOOOOOOOOOOOo...XOOOOO",
" OOOOOOOOOOOOOOOOOOOo....XOOOOOO",
" OOOOOOOOOOOOOOOOOOo....XOOOOOOO",
" OOOOOOOOOOOOOOOOo....XOOOOOOOOO",
" OOOOOOOOOOOOOo.....XOOOOOOOOOOO",
" OOOOOOOOOOo.......XOOOOOOOOOOOO",
" OOOOOOOo........XOOOOOOOOOOOOOO",
" OOOOOo.......XOOOOOOOOOOOOOOOOO",
" OOOo......XOOOOOOOOOOOOOOOOOOOO",
" OOo......XOOOOOOOOOOOOOOOOOOOOO",
" Oo.....XOOOOOOOOOOOOOOOOOOOOOOO",
" Oo....XOOOOOOOOOOOOOOOOOOOOOOOO",
" o...XOOOOOOOOOOOOOOOOOOOOOOOOOO",
" o...XOOOOOOOOOOOOOOOOOOOOOOOOOO",
" o..XOOOOOOOOOOOOOOOOOOOOOOOOOOO",
" ..XOOOOOOOOOOOOOOOOOOOOOOOOOOOO",
" ..XOOOOOOOOOOOOOOOOOOOOOOOOOOOO",
" .XOOOOOOOOOOOOOOOOOOOOOOOOOOOOO",
" .XOOOOOOOOOOOOOOOOOOOOOOOOOOOOO",
" XOOOOOOOOOOOOOOOOOOOOOOOOOOOOOO",
" XOOOOOOOOOOOOOOOOOOOOOOOOOOOOOo",
" OOOOOOOOOOOOOOOOOOOOOOOOOOOOOOo"
};
