/* XPM */
static char *a782c11e5f764f22adc295908a0ecbebjO2P9l9SBvBcf7PE[] = {
/* columns rows colors chars-per-pixel */
"64 64 93 2 ",
"   c #BCA2FF",
".  c #BEA4FD",
"X  c #BFA5FE",
"o  c #BEABFC",
"O  c #BFA9FE",
"+  c #BFA8FF",
"@  c #BEAAFF",
"#  c #BFACFD",
"$  c #C1ABF6",
"%  c #C4ACF6",
"&  c #C0A6FD",
"*  c #C1A7FE",
"=  c #C0A6FF",
"-  c #C1A7FF",
";  c #C3A7FE",
":  c #C3A6FF",
">  c #C0A9F9",
",  c #C1AAF8",
"<  c #C2ABF9",
"1  c #C1A8FB",
"2  c #C0A9FB",
"3  c #C2A9FA",
"4  c #C3AAFB",
"5  c #C2ABFB",
"6  c #C1ACF9",
"7  c #C3AEFB",
"8  c #C1A9FD",
"9  c #C2A9FC",
"0  c #C2A9FD",
"q  c #C0AAFC",
"w  c #C0AAFD",
"e  c #C3AAFD",
"r  c #C2ABFD",
"t  c #C0A8FE",
"y  c #C1A8FF",
"u  c #C0A9FF",
"i  c #C1A9FF",
"p  c #C2A8FF",
"a  c #C2A9FF",
"s  c #C3A9FF",
"d  c #C1ABFE",
"f  c #C1AAFF",
"g  c #C1ABFF",
"h  c #C2AAFE",
"j  c #C3AAFE",
"k  c #C2AAFF",
"l  c #C3AAFF",
"z  c #C3ABFF",
"x  c #C4A8FD",
"c  c #C4A8FF",
"v  c #C5A8FF",
"b  c #C4A9FF",
"n  c #C5A9FF",
"m  c #C6A9FF",
"M  c #C4ABFE",
"N  c #C4AAFF",
"B  c #C4ABFF",
"V  c #C7AAFF",
"C  c #C3ACFC",
"Z  c #C3AEFD",
"A  c #C0ACFF",
"S  c #C1ADFF",
"D  c #C2ACFF",
"F  c #C3ACFF",
"G  c #C4ADFD",
"H  c #C4ACFF",
"J  c #C5ACFF",
"K  c #C4ADFF",
"L  c #C6ACFF",
"P  c #C6ADFF",
"I  c #C6AFFF",
"U  c #C7B3FA",
"Y  c #F1EBF9",
"T  c #F3EDFB",
"R  c #F4EEFA",
"E  c #F3EAFD",
"W  c #F3EAFF",
"Q  c #F4EBFE",
"!  c #F0EDFF",
"~  c #F3ECFE",
"^  c #F2EDFF",
"/  c #F1EEFF",
"(  c #F4EDFD",
")  c #F5ECFF",
"_  c #F5EDFF",
"`  c #F8EFFF",
"'  c #FAF6F7",
"]  c #F8F5FE",
"[  c #FBF4FF",
"{  c #F8F6FF",
"}  c #FAF7FF",
"|  c #FEF7FF",
" . c #FDF9FA",
/* pixels */
"* p p p N N p 5 * * N * * * N * p p p p p p p p p p p p p p p p p p p p p p p p p p p p p p p p p p p p 1 * X * * X X X X X X   ",
"p p p p * 5 5 p * * N * * * * N p p p p p p p p N p p N p N N p p p p p p p p p p p p p p p p p N p * * . * * * * * * X * X X X ",
"N p p p p p G p * N * * N * * N N p N p N p N p N p N p N p N p N p N p N p N p p p p p N p p p N p p * 5 * p p * * X * X * X   ",
"p p p p p 5 p N N N N N N * N N p N p N p N p N p N p N p N p N p N p N p N p N N p p p p N N p G 5 p p p p p p * * * * * * * . ",
"p p p p p p N 5 p N N p * p N p N p N p p N N p N p N p N p N p p N p N N p N p N N * p p N N p N G p N p p p p p p p p * * * X ",
"p p N p p N p G N C p N N N p N C p p N N C p N p N p N p N p N C p N C 5 N p N G C N p N G C p N N G N p N p p p p p p p * * * ",
"p p p N N p N p p C p C N C N p C N p N p C p C N p N p N p N p N p N p C p C N N p C p p G p N p N p G G p N p N p p p p p * X ",
"p N N p p G p G p N N C p p N C p N C C p N N C p N p N p N p N N C C p N N C p p N G N p N N G G p G p p N p N G N p p p * * * ",
"p p p N p N N C C N p C N N p C p C N N p C N p N C C p C p p N p p C N C N p p C C N p N p C C { ' p p N G p C p p p p N N p * ",
"p p N p N C p p C p N C p C p N N C p C p N C p p p N N N N C C C N C p p N C N N p N C C p N p {  .C G N p C C p G p p p p * * ",
"p p p N p G C N N N p p C p C N N p C p C C N N C N p C p C N p N C N p p C N C p N p C C N p N } | p p V 5 p $ N N 5 * p p * 1 ",
"p p N p N p p N p C C N N N C p C p N N N p p C C p N C p N C p p p N C N C p p C C p N p N C C [ ` G N N : p N 5 p 5 * p * * X ",
"p p p N N p C C N C C p p p C N N p C C C p p N N N p C p C N N C N p C N p C N N p C N p C N p C U   p 5 % 5 5 p 5 p * p p * * ",
"p p N p p N N p p p N N C N C p C p N p N N C C p C p N N C p C C p N C N C p N N C p N p N C p O C C C 5 G * p 5 p N p p p p p ",
"p p p N p C C p C N p C N C N p C N p N p C N p C p C N N p C p N N p p p p C C p p C C C C N N C p O p C G * * N p G N N p p p ",
"p p N p N p N N C p N C p p N C p N C C p N C p N N C p C p N N p C C N C N N p C N N p N p p C p G p C p p N 5 N G N N p p p p ",
"p C N p C C N p p C N N p C N p C N p C N N p C C N p p C N p C G p N p N p N 5 N p N 5 N 5 G p p C p G p C N N p C p N p N p p ",
"p N C p N p N C N C p C p N C p C p N C p C p N p N C N C p N C p N 5 G 5 G p N 5 G p N p N p N C p G p N C p C p N C N N p p p ",
"C C N N p N p C N p C p C C N N N N p p C p C N p C N C N N p p N 5 N p N p G p N p G p G p N 5 p G p N N p C p C C N p p N p p ",
"N p p C C C p N C p N N N p p C p C C N N N C p N C p p p C C N p N 5 N p G p N p G p N 5 N p G N p G p C p N N N p p N N p p p ",
"C p p N N N p C N p C C C p p N N C C p p p C N p C N N N C C p G 5 N p N p G 5 N p G p G p N p p G N p C N p C C p p N p N p p ",
"N N C C p C p N C p N p N N C C p p N N C N C p N C p C p p N N p N p G 5 N p N 5 N 5 N p N 5 N G p C p C p N C N N C p N p p p ",
"p C N p C p C N C N p N p C N p C N p C N C N p N p C p C N p C N p N 5 G p N p N 5 N p N 5 N 5 p C N N N N p p p C p N p N p p ",
"p N C p N N C p p N C C p N C p C p N C p p N C C p N N C p N C 5 G p N p N 5 G p N p G p G p N N p p C p C C N p N G p N p p p ",
"C C N p N p C C N N p C p C N N N N p C p C N N p p C N C N p p N p G p N p G p N p G 5 N p G p G p N p N p N 5 C N p C N N p 5 ",
"N p N C C p N p p C p N N C p C p C p N N C p C C N C p p N C N p G p N 5 N 5 N 5 N p N p G p N p N 5 G 5 G p N C p N C p C N 5 ",
"p N p C C N p N C p C N N p C p C p C N N p C p N C N p p C N C N p G 5 N 5 N p G p N p N p G 5 N 5 N p N p G p N N p p N 4 p 5 ",
"C C p N p N C C N N C p C p N N N N C p C p N N p p N C N C p p 5 N p N p N p G p N 5 G 5 N p N p N 5 N p G p N p C C N p p N p ",
"N p C N p C N p p C N p C N p C p C N p C N p C C N p C N p C N N p N 5 G 5 N p G p N p N p N 5 G 5 N p N p G 5 G p N p G p N 5 ",
"N C p N p N C p p N C p C p N C p N C p C p N C C p N C N C p N 5 G p N p N p G p N 5 N 5 G p N p N p G 5 N p N p N 5 G p G p 5 ",
"p p C C C C N N C C N N N N p p C C N N N N p p N N p p p p C C N p G p N p N 5 N 5 N 5 N p G p N p N 5 G p N p N 5 N p N 5 N 5 ",
"C N N p N p p C N p p C p C C N N p p C p C C N p C C N C N N p p G p N 5 G p N p G p N p G p N 5 G p N p N 5 G p N 5 N p N p p ",
"5 p 5 N p N N C G p N p N p N 5 G p N p N p N 5 N p N 5 N 5 G p N 5 N p G 5 N p N 5 N p N 5 N p G 5 N p N p G 5 N p G p N p G 5 ",
"p 5 p C C C p p p N 5 G 5 G p N p N 5 G 5 G p N 5 G p N p N p N p N 5 N p N p G p G p G p N 5 N p N p G 5 N p N p G p N 5 N p p ",
"5 N N p N p C N N 5 N p N p G p N 5 N p N p G p N p G p G p N 5 G 5 N p N p N 5 N p G p G 5 N p N p N 5 G p N p N p G 5 N p N 5 ",
"N p C p N C p N p N 5 N p G p N p N 5 N p G p N p G p N 5 N p G p N p G 5 G p N 5 N p N p N p G 5 G p N p N 5 G 5 N p N 5 N p 5 ",
"p p G p p G p p G 5 N p N p G 5 G 5 N p N p G 5 N p G p G p N p G p N p N p N 5 N p G 5 G p N p N p G p N 5 N p N p N 5 N 5 N 5 ",
"4 N p G G p N G p N p G 5 N p N p N p G 5 N p N 5 N 5 N p N 5 N p N 5 G p G p N 5 N p N p N 5 G p G p N p N 5 N 5 G p N p N p p ",
"N p N 5 p N N N N p N 5 G p N p N p N 5 G p N p N 5 N p N 5 N 5 N 5 N p G p G p G p N p N 5 N p N p G 5 G 5 N p N p G p N p N 5 ",
"5 G p N N N G G 5 G p N p N 5 G 5 G p N p N 5 G p N p G p G p N p N 5 N p N 5 N p N 5 G p N 5 N 5 N p N p N p G p G p N 5 N p 5 ",
"G N 5 p N p G p N 5 N p N 5 N p N p G p N p G p N p G 5 N p G p G 5 N p N p G 5 N p N 5 N 5 N p G p N p N p N 5 N 5 N p G 5 N 5 ",
"G p N p 5 N 5 N p G p G p N 5 N p G p N 5 N 5 N 5 N p N p G p N p N p G 5 N p N p G p N p G p G p N 5 G 5 G p N p N 5 N p N p p ",
"N p G 5 N 5 N p N p G p G 5 N p N p G 5 N 5 N p G p N p N p G 5 N p N 5 G p N p G p G p N p G p N 5 N p N p G p G 5 N p N p N 5 ",
"N N p p p N p G 5 N p N p N p G 5 N p N p N p G p N 5 G 5 N p N 5 G p N p N 5 G p N 5 N 5 N p N p N 5 N p G p N p N p G 5 N p 5 ",
"G p N p G 5 N p N p G 5 G p N p N p N 5 G 5 N p G p N p N p N 5 N p G p N 5 N p N 5 N p G p N 5 G 5 N p N p G 5 G p N p N p N 5 ",
"N N 5 5 p N p G 5 N p N p N 5 G 5 G p N p N p G p N 5 N 5 G p N p G p N p N 5 N p N 5 N 5 N p G p N p G 5 N p N p N 5 G p G p 5 ",
"G N 5 p N p N 5 G p N p N 5 N p N p G p N p N 5 N 5 N 5 N p G p N p G 5 G 5 N p G 5 N p N p N p N p N 5 G p N p N 5 N p N 5 N 5 ",
"G p N p 5 G p N p N 5 G p N 5 N p G p N 5 G p N p G p N p G p N 5 N p N p N p G p N p G p G 5 N 5 G p N p N 5 G p N 5 N p N p p ",
"N p N p N p N p N N p C N p G N N 5 N p N 5 N p G 5 N p N p G 5 p G 5 N 5 N p N 5 N p N p N p G N p N 5 N 5 N p G N C N p p p p ",
"p N p N p N p N G p G p p G * G p G p G p N 5 N p N p G 5 N p N N p N p N p G 5 N p G 5 G 5 N p p G p N p G p G p N p N N p p p ",
"N p N p N p N p N p 5 C C 6 N N N p G p G 5 N p N p N 5 G p N p 5 N p G p G p N p G p N p N 5 N G p G p N p G p G 5 N p p N p N ",
"p N p N p N p N N p C # O C p N 5 N p N p N p G 5 G p N p N 5 G G p N 5 N p G p N p G p N 5 N p p N 5 N 5 N p N p N p N N p p p ",
"N p N p N p N p C C ~ ~ ~ E C C N p G 5 G p N p N p G p N 5 N p p N p G p G p N 5 G p N p N 5 G N 5 N p G p N 5 N G N p p p p p ",
"p N p N p N p N p p _ ~ ~ _ C p 5 N p N p N 5 G p G p N p N 5 N N 5 N p N 5 N 5 N p N 5 G p N p p N 5 N 5 N p G N G p N N p p p ",
"N p N p N p N p 5 C T ! ~ Y C p G p N p N 5 N p N p G 5 G 5 N p 5 N 5 N p N 5 N p N p G 5 N p N G 5 N p N p N p G N G p N p p p ",
"p N p N p N p N G O T ! ! R O C p N 5 G p N 5 N 5 N p N p N p G N p G p G p N p G 5 N p N p G 5 p N p G p G 5 N N p p N p p p p ",
"N * * * N N N N p N p G p N p G N p G 5 N p G p 5 N p N p N p G p G p N 5 G p N p G p N p G p N p C C C C 5 p p G p N p p p 5 * ",
"N * N N N N N * G p G p N 5 N p 5 N p N p G p N N p G 5 G 5 N p N p G p N p N 5 N 5 N 5 N p G p N N p p p 4 N N G N p 5 p p * * ",
"* N N * * N N N p G p N 5 N 5 N G p N p N p G 5 p G p N p N 5 N 5 G p N p N p G p N 5 N 5 G p N N : G G G G p N N G p p p * * * ",
"* N N * N N * N N p G p N p G p p N 5 G 5 N p N N p G p N 5 N p N p N 5 G 5 N p G p N p N p N 5 G p C p p G p G p p p p p * * * ",
"* * * N N * N N N p N 5 p N 5 N N p N p p N p N 5 G p N p N 5 G 5 N 5 N p N p G 4 N p G C p p N p # E _ _ ~ C O N * * * p p * * ",
"* N * * N * N * 5 p 5 N G p G p 5 N 5 N G 5 N 5 N p N 5 G p N p N p N p N 5 N p p N G p N N C C O o ~ T T ~ # C * * * * p p * * ",
"* * N N N * * * 5 * p p p G p N N p N p p N p N p N p G 5 N 5 N p G p N N p 5 N N p p N p C p p p C O p p O p 5 p * * * * * * * ",
"N N * N * * N N 5 p 5 5 N p N 5 * 5 5 p 5 5 p 5 G 5 N p N p N p p 5 5 p 5 5 p 5 5 p 5 5 p 5 p 5 N p p p * * p : * * * * * * * * "
};
